<svg width="70" height="69" viewBox="0 0 70 69" fill="none" xmlns="http://www.w3.org/2000/svg">
<path d="M21.6777 4.33557H65.033V6.50333H21.6777V4.33557Z" fill="white"/>
<path d="M4.33594 4.33557H6.5037V6.50333H4.33594V4.33557Z" fill="white"/>
<path d="M8.67188 4.33557H10.8396V6.50333H8.67188V4.33557Z" fill="white"/>
<path d="M13.0059 4.33557H15.1736V6.50333H13.0059V4.33557Z" fill="white"/>
<path d="M25.8674 37.2076L23.4102 34.7504L24.9428 33.2166L25.8674 34.1423L28.1659 31.8433L29.6986 33.3759L25.8674 37.2076Z" fill="white"/>
<path d="M25.8674 54.5963L23.4102 52.139L24.9428 50.6053L25.8674 51.5309L28.1659 49.2319L29.6986 50.7646L25.8674 54.5963Z" fill="white"/>
<path d="M36.8516 30.3486H49.8581V32.5164H36.8516V30.3486Z" fill="white"/>
<path d="M36.8516 35.7681H45.5226V37.9358H36.8516V35.7681Z" fill="white"/>
<path d="M36.8516 47.6908H49.8581V49.8586H36.8516V47.6908Z" fill="white"/>
<path d="M36.8516 53.1101H45.5226V55.2779H36.8516V53.1101Z" fill="white"/>
<path d="M0 0V58.5295H15.1743V66.1945L19.9433 69L23.6284 66.8322L27.314 69L30.9991 66.8322L34.6842 69L38.3693 66.8322L42.0543 69L45.74 66.8322L49.4251 69L54.194 66.1945V58.5295H69.3683V0H0ZM52.0263 64.955L49.4251 66.4851L45.74 64.3173L42.0543 66.4851L38.3693 64.3173L34.6842 66.4851L30.9991 64.3173L27.314 66.4851L23.6284 64.3173L19.9433 66.4851L17.3421 64.955V17.3421H43.3552V26.0131H52.0263V64.955ZM45.523 23.8454V18.8748L50.4936 23.8454H45.523ZM67.2006 56.3618H54.194V24.4805L44.8879 15.1743H15.1743V56.3618H2.16776V10.8388H67.2006V56.3618ZM67.2006 8.67104H2.16776V2.16776H67.2006V8.67104Z" fill="white"/>
<path d="M26.555 27.097C22.664 27.097 19.5098 30.2513 19.5098 34.1423C19.5098 38.0332 22.664 41.1875 26.555 41.1875C30.446 41.1875 33.6002 38.0332 33.6002 34.1423C33.5954 30.2534 30.4438 27.1018 26.555 27.097ZM26.555 39.0197C23.8612 39.0197 21.6775 36.8361 21.6775 34.1423C21.6775 31.4484 23.8612 29.2648 26.555 29.2648C29.2488 29.2648 31.4325 31.4484 31.4325 34.1423C31.4293 36.835 29.2478 39.0166 26.555 39.0197Z" fill="white"/>
<path d="M26.555 44.4391C22.664 44.4391 19.5098 47.5933 19.5098 51.4843C19.5098 55.3753 22.664 58.5295 26.555 58.5295C30.446 58.5295 33.6002 55.3753 33.6002 51.4843C33.5954 47.5955 30.4438 44.4439 26.555 44.4391ZM26.555 56.3618C23.8612 56.3618 21.6775 54.1781 21.6775 51.4843C21.6775 48.7905 23.8612 46.6068 26.555 46.6068C29.2488 46.6068 31.4325 48.7905 31.4325 51.4843C31.4293 54.1771 29.2478 56.3586 26.555 56.3618Z" fill="white"/>
</svg>
