<svg width="70" height="70" viewBox="0 0 70 70" fill="none" xmlns="http://www.w3.org/2000/svg">
<g clip-path="url(#clip0)">
<path d="M65.4057 31.5011H63.0728V12.8349C63.0728 12.19 62.5502 11.6683 61.9059 11.6683H54.8396L52.5196 4.31825C52.4222 4.01147 52.2034 3.7588 51.9151 3.61871C51.6256 3.47834 51.2913 3.4646 50.9907 3.57894L41.4899 7.19972L37.2226 0.539545C37.0547 0.277221 36.7889 0.0923947 36.4838 0.027764C36.1797 -0.0406685 35.8601 0.0186982 35.6012 0.191534L18.0851 11.6683H8.2405C3.73273 11.6733 0.0797753 15.3268 0.0742188 19.8346V61.8334C0.0797753 66.3412 3.73273 69.9947 8.2405 70H61.9059C62.5502 70 63.0728 69.4774 63.0728 68.8331V54.8334H65.4057C67.9833 54.8334 70.0725 52.7442 70.0725 50.1674V36.1677C70.0725 33.5898 67.9833 31.5011 65.4057 31.5011ZM65.4057 33.8343C66.6945 33.8343 67.7391 34.8783 67.7391 36.1677C67.7391 37.4562 66.6945 38.5006 65.4057 38.5006H63.0728V33.8343H65.4057ZM60.7391 14.0017V25.6677H59.2614L55.5771 14.0017H60.7391ZM56.8153 25.6677H53.4145L50.18 15.9658C50.0215 15.4894 49.5755 15.1674 49.0731 15.1677C47.8881 15.1715 46.7505 14.7007 45.915 13.8605L45.2309 13.1764C44.9092 12.8545 44.429 12.7489 44.0015 12.9068L9.48457 25.6677H8.2405C6.68498 25.6674 5.19408 25.0445 4.1018 23.9373L50.6672 6.20482L56.8153 25.6677ZM50.9553 25.6677H16.2114L44.1106 15.3543L44.265 15.5099C45.328 16.5788 46.7186 17.2613 48.2145 17.447L50.9553 25.6677ZM35.8902 2.79109L39.258 8.05133L12.0479 18.4136L35.8902 2.79109ZM8.2405 14.0017H14.5234L2.74747 21.7171C2.53019 21.1132 2.41496 20.4765 2.40765 19.8346C2.41175 16.6147 5.02096 14.005 8.2405 14.0017ZM60.7391 67.6662H8.2405C5.02096 67.6624 2.41175 65.0529 2.40765 61.8334V25.551C2.41876 25.5613 2.43075 25.5709 2.44128 25.5826C2.53253 25.6736 2.62903 25.7572 2.72408 25.8438C2.81825 25.93 2.91973 26.0289 3.02354 26.1155C3.12766 26.202 3.22796 26.2716 3.33032 26.3488C3.43297 26.426 3.54293 26.5143 3.65464 26.5921C3.76665 26.6685 3.87515 26.7278 3.98511 26.796C4.09507 26.8638 4.21205 26.9404 4.33488 27.006C4.4577 27.0709 4.5741 27.1223 4.69429 27.182C4.81449 27.2411 4.92796 27.2987 5.05137 27.3545C5.17508 27.4104 5.31662 27.4537 5.4491 27.5014C5.58216 27.5493 5.68247 27.5949 5.8053 27.6318C5.95181 27.6789 6.10301 27.7119 6.25362 27.7488C6.3706 27.7765 6.47705 27.8122 6.5911 27.8353C6.76277 27.8713 6.94116 27.8921 7.11517 27.9169C7.21284 27.9301 7.30789 27.9506 7.40703 27.9611C7.68368 27.9886 7.96209 28.0017 8.2405 28.0014H9.75801L9.77468 28.0459L9.89955 28.0014H60.7391V38.5006H47.9062C43.3967 38.5006 39.7399 42.1567 39.7399 46.6671C39.7399 51.1772 43.3967 54.8334 47.9062 54.8334H60.7391V67.6662ZM67.7391 50.1674C67.7391 51.4559 66.6945 52.5003 65.4057 52.5003H47.9062C44.6849 52.5003 42.0734 49.8887 42.0734 46.6671C42.0734 43.4452 44.6849 40.8343 47.9062 40.8343H65.4057C65.6876 40.8314 65.9672 40.8027 66.2438 40.7489C66.3099 40.7375 66.3757 40.7243 66.4409 40.7085C66.7047 40.6515 66.9632 40.5708 67.213 40.469L67.2528 40.45C67.4197 40.3792 67.5818 40.2973 67.7391 40.2076V50.1674Z" fill="white"/>
<path d="M25.2402 31.5012H29.9071V33.8343H25.2402V31.5012Z" fill="white"/>
<path d="M15.9082 31.5012H20.5745V33.8343H15.9082V31.5012Z" fill="white"/>
<path d="M53.2402 31.5012H57.2388V33.8343H53.2402V31.5012Z" fill="white"/>
<path d="M43.9082 31.5012H48.5745V33.8343H43.9082V31.5012Z" fill="white"/>
<path d="M6.86436 31.3378L6.31836 33.601C6.94829 33.7534 7.59343 33.8321 8.2409 33.8344H11.2417V31.5012H8.2409C7.77767 31.5001 7.3156 31.4454 6.86436 31.3378Z" fill="white"/>
<path d="M34.5723 31.5012H39.2389V33.8343H34.5723V31.5012Z" fill="white"/>
<path d="M6.86436 61.67L6.31836 63.933C6.94829 64.0857 7.59343 64.1646 8.2409 64.167H11.2417V61.8335H8.2409C7.77767 61.8321 7.3156 61.7782 6.86436 61.67Z" fill="white"/>
<path d="M53.2402 61.8335H57.2388V64.1669H53.2402V61.8335Z" fill="white"/>
<path d="M25.2402 61.8335H29.9071V64.1669H25.2402V61.8335Z" fill="white"/>
<path d="M43.9082 61.8335H48.5745V64.1669H43.9082V61.8335Z" fill="white"/>
<path d="M15.9082 61.8335H20.5745V64.1669H15.9082V61.8335Z" fill="white"/>
<path d="M34.5723 61.8335H39.2389V64.1669H34.5723V61.8335Z" fill="white"/>
<path d="M47.9062 43.1675C45.9735 43.1675 44.4062 44.7341 44.4062 46.6672C44.4062 48.5997 45.9735 50.1675 47.9062 50.1675C49.839 50.1675 51.406 48.5997 51.406 46.6672C51.406 44.7341 49.839 43.1675 47.9062 43.1675ZM47.9062 47.834C47.2623 47.834 46.7397 47.3114 46.7397 46.6672C46.7397 46.0226 47.2623 45.5006 47.9062 45.5006C48.5505 45.5006 49.0731 46.0226 49.0731 46.6672C49.0731 47.3114 48.5505 47.834 47.9062 47.834Z" fill="white"/>
</g>
<defs>
<clipPath id="clip0">
<rect width="70" height="70" fill="white"/>
</clipPath>
</defs>
</svg>
