<svg width="220" height="23" viewBox="0 0 220 23" fill="none" xmlns="http://www.w3.org/2000/svg">
<path fill-rule="evenodd" clip-rule="evenodd" d="M34.5 22.6908H40.0855V15.7528H43.0286L46.5609 22.6908H52.4332L48.1692 14.6605L48.5568 14.4298C48.871 14.241 49.1606 14.0109 49.4184 13.7452C49.7966 13.3724 50.1425 12.9657 50.4521 12.5298C50.8403 11.9625 51.1385 11.3341 51.3352 10.6684C51.5841 9.87131 51.7078 9.03759 51.7013 8.19946C51.7475 6.17374 50.98 4.21969 49.5834 2.80758C48.1715 1.35632 46.3792 0.630685 44.2063 0.630685H34.5V22.6908ZM46.1165 8.19174C46.1316 8.78406 45.9077 9.35592 45.4991 9.76864C45.0723 10.1955 44.4969 10.4232 43.9053 10.3994H40.0855V6.00055H43.9053C44.4955 5.97647 45.0701 6.20107 45.4991 6.62354C45.9081 7.0324 46.1322 7.60184 46.1165 8.19174ZM59.3405 14.9684C59.3198 14.1031 59.6206 13.2628 60.1804 12.6225C60.6601 12.0138 61.3767 11.661 62.1332 11.661C62.8897 11.661 63.6063 12.0138 64.086 12.6225C64.6458 13.2628 64.9466 14.1031 64.9259 14.9684C64.9466 15.8337 64.6458 16.674 64.086 17.3143C63.6063 17.923 62.8897 18.2758 62.1332 18.2758C61.3767 18.2758 60.6601 17.923 60.1804 17.3143C59.6206 16.674 59.3198 15.8337 59.3405 14.9684ZM70.0677 14.9682C70.0677 12.8245 69.29 10.9503 67.7344 9.34539C64.6358 6.13534 59.6265 6.13534 56.5279 9.34539C54.9675 10.9504 54.1874 12.8247 54.1875 14.9682C54.1877 17.1116 54.9678 18.9859 56.5279 20.5909C59.6265 23.801 64.6358 23.801 67.7344 20.5909C69.2907 18.9859 70.0688 17.1116 70.0688 14.9682H70.0677ZM72.1205 14.9683C72.1205 17.1119 72.9006 18.9861 74.4609 20.591C75.9318 22.1579 77.9559 23.0284 80.0607 22.9993C80.815 23.001 81.5652 22.8843 82.2861 22.6532C82.8914 22.4721 83.4746 22.2192 84.0243 21.8993C84.4637 21.6284 84.8773 21.3143 85.2593 20.9615C85.5235 20.7323 85.7684 20.4801 85.9915 20.2076C86.0968 20.0588 86.1781 19.9434 86.2355 19.8615L83.3056 16.5528L83.0041 16.9527C82.7135 17.3189 82.3545 17.6199 81.9487 17.8374C81.4664 18.1267 80.919 18.2779 80.3622 18.2757C79.5321 18.2976 78.7316 17.9541 78.1577 17.3296C77.5689 16.6989 77.2504 15.8472 77.2746 14.9683C77.2504 14.0894 77.5689 13.2376 78.1577 12.6069C78.7315 11.9826 79.5318 11.639 80.3618 11.6608C80.934 11.6628 81.4939 11.8331 81.9771 12.1521C82.3412 12.3605 82.6749 12.6221 82.9678 12.9289C83.0879 13.0791 83.2005 13.2356 83.3052 13.3978L86.2342 10.0904L86.0046 9.7673C85.7835 9.46914 85.5279 9.2005 85.2436 8.96746C84.8563 8.63494 84.4486 8.32912 84.023 8.05196C83.4758 7.70951 82.8866 7.44557 82.2715 7.2673C79.4986 6.4237 76.5044 7.21974 74.4602 9.34394C72.9003 10.95 72.1204 12.8248 72.1205 14.9683ZM98.5832 13.8758L103.867 7.24555H98.1375L93.8737 12.6144V0.630685H88.8771V22.6908H93.8737V18.7526L95.1947 17.1835L98.5832 22.6908H104.025L98.5832 13.8758ZM107.832 0L104.602 7.72262L107.689 9.61482L111.953 2.52322L107.832 0ZM119.146 7.24572H114.15V22.691H119.146V14.9683C119.146 14.0454 119.366 13.3172 119.807 12.7839C120.224 12.2615 120.848 11.9668 121.501 11.984C122.067 11.9668 122.61 12.2154 122.98 12.6608C123.363 13.112 123.554 13.7274 123.554 14.5068V22.691H128.551V13.554C128.551 11.5848 128.058 9.99008 127.072 8.76971C126.146 7.57776 124.74 6.90122 123.267 6.9387C122.478 6.94019 121.702 7.15206 121.014 7.55409C120.296 7.96436 119.834 8.29 119.629 8.531C119.423 8.77201 119.262 8.97432 119.146 9.13792V7.24572ZM134.279 0L131.049 7.72262L134.136 9.61482L138.4 2.52322L134.279 0ZM151.18 22.6909C153.372 22.6909 155.169 22.0448 156.571 20.7525C157.974 19.4602 158.675 17.9526 158.674 16.2297C158.681 15.5265 158.547 14.8296 158.279 14.1836C158.068 13.6428 157.769 13.1434 157.396 12.7068C157.062 12.3401 156.686 12.0172 156.276 11.7453C155.993 11.5461 155.698 11.3663 155.393 11.2069C155.226 11.1299 155.094 11.071 154.998 11.0301L155.271 10.8762C155.514 10.7347 155.738 10.5615 155.939 10.3609C156.214 10.0957 156.471 9.81034 156.707 9.50697C157 9.11214 157.223 8.66689 157.368 8.19155C157.551 7.63456 157.643 7.04953 157.64 6.4608C157.64 4.89164 156.994 3.52761 155.702 2.36871C154.41 1.20982 152.706 0.630368 150.59 0.630368H141.33V22.6905H151.18V22.6909ZM146.915 17.9681V13.5538H150.735C151.327 13.53 151.902 13.7578 152.329 14.1846C153.152 15.0611 153.152 16.4617 152.329 17.3382C151.902 17.765 151.327 17.9928 150.735 17.969H146.915V17.9681ZM150.003 5.36888C150.515 5.34142 151.016 5.52684 151.396 5.88424C151.747 6.24382 151.935 6.74147 151.913 7.25348C151.935 7.76549 151.747 8.26313 151.396 8.62272C151.016 8.98011 150.515 9.16553 150.003 9.13808H146.915V5.36888H150.003ZM166.617 0.630685H161.621V22.6908H166.617V0.630685ZM174.699 14.9684C174.679 14.103 174.98 13.2626 175.54 12.6223C176.019 12.0136 176.736 11.6607 177.492 11.6607C178.249 11.6607 178.965 12.0136 179.445 12.6223C180.005 13.2625 180.306 14.1029 180.285 14.9682C180.306 15.8336 180.005 16.6741 179.445 17.3144C178.965 17.9231 178.249 18.276 177.492 18.276C176.736 18.276 176.019 17.9231 175.54 17.3144C174.98 16.674 174.679 15.8336 174.699 14.9682V14.9684ZM185.427 14.9685C185.427 12.8248 184.649 10.9506 183.094 9.3457C179.995 6.13566 174.986 6.13566 171.887 9.3457C170.327 10.9507 169.546 12.825 169.546 14.9685C169.546 17.1119 170.327 18.9862 171.887 20.5912C174.986 23.8013 179.995 23.8013 183.094 20.5912C184.649 18.986 185.427 17.1117 185.427 14.9682V14.9685ZM187.479 14.9685C187.479 17.1122 188.26 18.9864 189.82 20.5913C191.291 22.1581 193.315 23.0285 195.419 22.9993C196.174 23.0011 196.924 22.8844 197.645 22.6532C198.25 22.4722 198.834 22.2192 199.383 21.8994C199.823 21.6285 200.236 21.3144 200.618 20.9615C200.882 20.7323 201.127 20.4801 201.35 20.2077C201.456 20.0588 201.537 19.9435 201.594 19.8616L198.665 16.5528L198.363 16.9527C198.072 17.3189 197.713 17.6199 197.308 17.8374C196.825 18.1268 196.278 18.278 195.721 18.2758C194.891 18.2975 194.091 17.954 193.517 17.3297C192.928 16.699 192.61 15.8472 192.634 14.9683C192.61 14.0894 192.928 13.2377 193.517 12.607C194.091 11.9826 194.891 11.6391 195.721 11.6609C196.293 11.6628 196.853 11.8331 197.336 12.1521C197.701 12.3605 198.034 12.6221 198.327 12.929C198.447 13.0791 198.56 13.2356 198.665 13.3979L201.594 10.0905L201.364 9.76736C201.143 9.46915 200.887 9.2005 200.603 8.96752C200.216 8.63494 199.808 8.32912 199.382 8.05201C198.835 7.70952 198.246 7.44558 197.631 7.26736C194.858 6.42365 191.863 7.2197 189.819 9.34399C188.259 10.9501 187.479 12.8248 187.479 14.9683V14.9685ZM213.942 13.876L219.227 7.24577H213.497L209.233 12.6144V0.630685H204.236V22.6908H209.233V18.7526L210.554 17.1835L213.942 22.6908H219.383L213.942 13.876Z" fill="white"/>
<path fill-rule="evenodd" clip-rule="evenodd" d="M0 0H21.2308V22.1154H0V0Z" fill="#FF0000"/>
<path fill-rule="evenodd" clip-rule="evenodd" d="M13.5035 1.76904L4.42383 11.5693H10.0866L6.63376 20.346L16.8084 8.50483H11.1456L13.5035 1.76904Z" fill="white"/>
</svg>
