<svg width="73" height="57" viewBox="0 0 73 57" fill="none" xmlns="http://www.w3.org/2000/svg">
<path d="M70.7892 28.5H64.8517V11.2314C66.3713 14.276 68.5584 16.9385 71.25 19.0202L72.7047 17.1416C67.7439 13.3379 64.8402 7.43865 64.8517 1.1875V0H57.7267V1.1875C57.7143 12.3316 48.6833 21.3625 37.5392 21.375H35.1642C24.0202 21.3625 14.9892 12.3316 14.9767 1.1875V0H7.85175V1.1875C7.86362 7.4385 4.96034 13.3377 0 17.1416L1.45469 19.0202C4.14586 16.9383 6.33264 14.2758 7.85175 11.2314V28.5H1.91425C1.25845 28.5 0.72675 29.0317 0.72675 29.6875V35.625C0.72675 36.2808 1.25845 36.8125 1.91425 36.8125H7.85175V49.875H6.66425C6.00845 49.875 5.47675 50.4067 5.47675 51.0625V55.8125C5.47675 56.4683 6.00845 57 6.66425 57H16.1642C16.82 57 17.3517 56.4683 17.3517 55.8125V51.0625C17.3517 50.4067 16.82 49.875 16.1642 49.875H14.9767V36.8125H57.7267V49.875H56.5392C55.8834 49.875 55.3517 50.4067 55.3517 51.0625V55.8125C55.3517 56.4683 55.8834 57 56.5392 57H66.0392C66.695 57 67.2267 56.4683 67.2267 55.8125V51.0625C67.2267 50.4067 66.695 49.875 66.0392 49.875H64.8517V36.8125H70.7892C71.445 36.8125 71.9767 36.2808 71.9767 35.625V29.6875C71.9767 29.0317 71.445 28.5 70.7892 28.5ZM60.1017 2.375H62.4767V28.5H60.1017V2.375ZM14.9767 11.2159C18.7845 18.8842 26.6027 23.7384 35.1642 23.75H37.5392C46.1008 23.7384 53.919 18.8842 57.7267 11.2159V28.5H14.9767V11.2159ZM10.2267 2.375H12.6017V28.5H10.2267V2.375ZM14.9767 54.625H7.85175V52.25H14.9767V54.625ZM10.2267 49.875V36.8125H12.6017V49.875H10.2267ZM64.8517 54.625H57.7267V52.25H64.8517V54.625ZM60.1017 49.875V36.8125H62.4767V49.875H60.1017ZM69.6017 34.4375H3.10175V30.875H69.6017V34.4375Z" fill="white"/>
</svg>
