<svg width="15" height="15" fill="none" xmlns="http://www.w3.org/2000/svg"><path d="M15 8.71v5.498h-3.216v-5.13c0-1.287-.464-2.167-1.628-2.167-.889 0-1.417.592-1.65 1.166-.084.205-.106.49-.106.777v5.354H5.184s.043-8.688 0-9.587H8.4V5.98c-.006.01-.016.02-.021.031H8.4V5.98c.427-.652 1.19-1.584 2.898-1.584C13.414 4.396 15 5.766 15 8.71zM1.82 0C.72 0 0 .716 0 1.656c0 .92.699 1.657 1.778 1.657h.02c1.122 0 1.82-.736 1.82-1.657C3.595.716 2.92 0 1.82 0zM.19 14.208h3.215V4.621H.19v9.587z" fill="#fff"/></svg>