<svg width="71" height="70" viewBox="0 0 71 70" fill="none" xmlns="http://www.w3.org/2000/svg">
<path d="M70.1065 8.57744C70.0645 8.53795 61.7613 0.619351 61.7613 0.619351C61.4439 0.314784 61.1155 0 60.5025 0H27.0747C26.0984 0 25.3039 0.794276 25.3039 1.77066V7.20799L13.5223 9.22758C12.578 9.39325 11.9429 10.297 12.1065 11.2404L12.7044 14.7268C8.875 16.0154 4.94338 17.3439 1.14789 18.7073C0.25103 19.0352 -0.219627 20.0324 0.100403 20.9346L7.65038 41.9224C7.80225 42.3447 8.20028 42.6078 8.62483 42.6078C8.74108 42.6078 8.85953 42.588 8.97523 42.5463C9.5134 42.3528 9.7927 41.7596 9.59914 41.2215L2.16086 20.544C5.73669 19.2638 9.43981 18.0107 13.0589 16.7926L16.6169 37.5359L20.711 61.4252C20.8589 62.2685 21.6001 62.8685 22.4368 62.8685C22.5315 62.8685 22.6276 62.8608 22.724 62.8449L33.8126 60.942L42.4775 59.4567L29.4456 64.1407L19.1688 67.8357L11.1877 45.6367C10.9943 45.0985 10.4013 44.8192 9.86298 45.0127C9.32481 45.2061 9.0455 45.7992 9.23893 46.3374L17.3333 68.8519C17.5922 69.5599 18.2629 70 18.9718 70C19.1677 70 19.3667 69.9663 19.5605 69.8955L30.1459 66.0896L54.1819 57.4505L58.7737 56.6634H68.9174C69.8937 56.6634 70.6881 55.8673 70.6881 54.8887V9.74421C70.6883 9.12444 70.352 8.80828 70.1065 8.57744ZM67.363 8.82264H62.1815L62.0531 8.82319C61.805 8.82485 61.2242 8.82913 61.0769 8.68278C61.0429 8.64896 61.0032 8.53602 61.0032 8.3263L60.9911 2.74649L67.363 8.82264ZM68.6173 54.5922H27.3749V34.4119C27.3749 33.8401 26.9113 33.3764 26.3394 33.3764C25.7676 33.3764 25.3039 33.8401 25.3039 34.4119V54.8885C25.3039 55.8669 26.0984 56.6631 27.0747 56.6631H46.5157L33.4625 58.9006L22.6961 60.7483L18.658 37.1857L14.2028 11.212L25.3038 9.30903V29.6073C25.3038 30.1792 25.7674 30.6428 26.3393 30.6428C26.9111 30.6428 27.3747 30.1792 27.3747 29.6073V2.07081H58.9187L58.9322 8.32865C58.9322 9.08717 59.1629 9.70072 59.6178 10.1525C60.3169 10.8465 61.305 10.8948 61.9184 10.8948C61.9711 10.8948 62.0211 10.8944 62.0679 10.8941L68.6173 10.8937V54.5922Z" fill="white"/>
<path d="M32.3652 16.0783C32.3652 16.6502 32.8288 17.1138 33.4007 17.1138H63.0064C63.5782 17.1138 64.0419 16.6502 64.0419 16.0783C64.0419 15.5065 63.5782 15.0428 63.0064 15.0428H33.4007C32.8288 15.0428 32.3652 15.5065 32.3652 16.0783Z" fill="white"/>
<path d="M63.0064 22.399H33.4007C32.8288 22.399 32.3652 22.8627 32.3652 23.4345C32.3652 24.0064 32.8288 24.47 33.4007 24.47H63.0064C63.5782 24.47 64.0419 24.0064 64.0419 23.4345C64.0419 22.8627 63.5782 22.399 63.0064 22.399Z" fill="white"/>
<path d="M63.0064 29.7554H33.4007C32.8288 29.7554 32.3652 30.219 32.3652 30.7908C32.3652 31.3627 32.8288 31.8263 33.4007 31.8263H63.0064C63.5782 31.8263 64.0419 31.3627 64.0419 30.7908C64.0419 30.219 63.5782 29.7554 63.0064 29.7554Z" fill="white"/>
<path d="M63.0064 37.1116H33.4007C32.8288 37.1116 32.3652 37.5752 32.3652 38.147C32.3652 38.7189 32.8288 39.1825 33.4007 39.1825H63.0064C63.5782 39.1825 64.0419 38.7189 64.0419 38.147C64.0419 37.5752 63.5782 37.1116 63.0064 37.1116Z" fill="white"/>
<path d="M63.0064 44.468H33.4007C32.8288 44.468 32.3652 44.9316 32.3652 45.5035C32.3652 46.0753 32.8288 46.539 33.4007 46.539H63.0064C63.5782 46.539 64.0419 46.0753 64.0419 45.5035C64.0419 44.9316 63.5782 44.468 63.0064 44.468Z" fill="white"/>
</svg>
