<svg width="104" height="131" viewBox="0 0 104 131" fill="none" xmlns="http://www.w3.org/2000/svg">
<path d="M93.252 36.7671H85.7383V41.5758H93.252V36.7671Z" fill="#E2E2E2"/>
<path d="M98.9631 67.1224H14.6094V177.023H98.9631V67.1224Z" fill="#433D4F"/>
<path d="M96.0571 70.1278H88.6436V129.736H96.0571V70.1278Z" fill="#2A2633"/>
<path d="M77.4244 70.3282H64.7012V151.176H77.4244V70.3282Z" fill="#2A2633"/>
<path d="M67.9056 74.2353H38.1514V85.1552H67.9056V74.2353Z" fill="#A5A5A5"/>
<path d="M9.69986 29.2533H5.49219V51.9948H9.69986V29.2533Z" fill="#6A6572"/>
<path d="M84.0338 24.5447H76.4199V54.9001H84.0338V24.5447Z" fill="#6A6572"/>
<path d="M15.109 24.5447H7.49512V54.9001H15.109V24.5447Z" fill="#5A5663"/>
<path d="M69.4075 56.0022H57.5859V63.3155H69.4075V56.0022Z" fill="#D6AB8E"/>
<path d="M69.5079 36.0657H57.8867V56.5029H69.5079V36.0657Z" fill="#BFA08C"/>
<path d="M57.5869 52.3955H35.7471V62.9147H57.5869V52.3955Z" fill="#BFA08C"/>
<path d="M57.8886 18.5338H24.6279V56.8035H57.8886V18.5338Z" fill="#D6AB8E"/>
<path d="M40.7569 11.521H40.3562H24.5273V22.2406H40.3562H40.7569H56.0849V11.521H40.7569Z" fill="#313131"/>
<path d="M69.3108 8.21505H57.4893V36.5667H69.3108V8.21505Z" fill="#313131"/>
<path d="M46.667 62.514L35.7471 62.3136V74.1352V80.3465H69.2081V62.514H57.5869V73.9348H46.7672L46.667 62.514Z" fill="white"/>
<path d="M35.7485 82.4503H2.3877V163.899C2.3877 163.899 102.671 163.197 103.272 163.899C103.873 164.6 103.272 82.4503 103.272 82.4503H69.3097H35.7485Z" fill="white"/>
<path d="M55.682 86.9585H47.7676V154.381H55.682V86.9585Z" fill="#E2E2E2"/>
<path d="M40.1551 47.4866H35.7471V56.9037H40.1551V47.4866Z" fill="#313131"/>
<path d="M59.8912 74.2353H44.2627V84.7545H59.8912V74.2353Z" fill="#E2E2E2"/>
<path d="M57.5852 62.4138H45.7637V75.4375H57.5852V62.4138Z" fill="white"/>
<path d="M57.6868 11.6211H48.7705V48.7889H57.6868V11.6211Z" fill="#DDB99F"/>
<path d="M35.6459 56.7033H24.8262V62.7142H35.6459V56.7033Z" fill="#313131"/>
<path d="M33.4429 29.654H27.0312V47.2861H33.4429V29.654Z" fill="#BFA08C"/>
<path d="M38.6535 20.3371H23.4258V24.8453H38.6535V20.3371Z" fill="#313131"/>
<path d="M38.1526 25.2461H33.8447V29.5539H38.1526V25.2461Z" fill="#313131"/>
<path d="M26.7292 25.2461H24.7256V29.5539H26.7292V25.2461Z" fill="#313131"/>
<path d="M35.7501 41.3754H22.4258V47.3864H35.7501V41.3754Z" fill="#313131"/>
<path d="M79.2255 13.6248H10.8008V65.1186H79.2255V13.6248Z" fill="#E2E2E2"/>
<path d="M24.4273 97.1771H13.4072V158.088H24.4273V97.1771Z" fill="#E2E2E2"/>
<path d="M91.5494 97.1771H80.5293V158.389H91.5494V97.1771Z" fill="#E2E2E2"/>
<path d="M103.373 98.2791H93.3545V102.286H103.373V98.2791Z" fill="#FFBC00"/>
<path d="M73.0141 7.81422H16.6113V18.7341H73.0141V7.81422Z" fill="#E2E2E2"/>
<path d="M69.6118 4.10746H22.4258V11.8215H69.6118V4.10746Z" fill="#E2E2E2"/>
<path d="M64 0H27.1328V8.51552H64V0Z" fill="#E2E2E2"/>
<path d="M16.9368 68.9046H73.0391V57.9847L16.9368 57.9847V68.9046Z" fill="#E2E2E2"/>
<path d="M21.8128 72.6082H69.1992V64.8942H21.8128V72.6082Z" fill="#E2E2E2"/>
<path d="M27.2245 76.623H64.793V68.1074H27.2245V76.623Z" fill="#E2E2E2"/>
<path d="M61.4936 76.5394H35.6465V80.4465H61.4936V76.5394Z" fill="#A5A5A5"/>
<path d="M35.6483 72.1314H27.1328V76.6397H35.6483V72.1314Z" fill="#A5A5A5"/>
<path d="M26.3319 65.7199H21.9238V72.5323H26.3319V65.7199Z" fill="#A5A5A5"/>
<path d="M21.921 62.6142H16.6113V68.9257H21.921V62.6142Z" fill="#A5A5A5"/>
<path d="M16.7116 13.6248H10.8008V65.1186H16.7116V13.6248Z" fill="#A5A5A5"/>
<path d="M32.5406 68.5249H26.1289V72.6324H32.5406V68.5249Z" fill="#A5A5A5"/>
<path d="M21.7224 13.6248H16.3125V18.7341H21.7224V13.6248Z" fill="#A5A5A5"/>
<path d="M22.5221 10.5192H16.6113V13.6248H22.5221V10.5192Z" fill="#A5A5A5"/>
<path d="M26.6327 10.6193H21.0225V13.8252H26.6327V10.6193Z" fill="#A5A5A5"/>
<path d="M26.6287 7.61389H22.2207V10.5192H26.6287V7.61389Z" fill="#A5A5A5"/>
<path d="M74.9197 18.8343H69.5098V13.8252H66.5043V10.6194H61.6956V7.21316H29.9377V10.6194H25.8302V13.8252H20.8211V18.8343H15.9121V62.6142H21.1216V65.82H25.4295V69.0258H29.9377V72.4321H62.3968V69.0258H66.4041V65.82H69.5098V62.6142H74.9197V18.8343Z" fill="#313131"/>
<path d="M69.5098 18.8343V13.8252H66.5043V10.6194H61.6956V7.21316H29.9377V10.6194H25.8302V13.8252H20.8211V18.8343H15.9121V34.4628H20.6207V31.257H24.628V27.8508H56.3859V31.257H61.1947V34.4628H64.2001V39.3718H69.61V62.6142H74.9197V18.8343H69.5098Z" fill="#1E1E1E"/>
<path d="M13.6082 116.412H2.3877V119.418H13.6082V116.412Z" fill="#6A6572"/>
<path d="M103.571 116.412H91.6494V119.418H103.571V116.412Z" fill="#6A6572"/>
<path d="M62.3954 76.5394H57.2861V80.4465H62.3954V76.5394Z" fill="#E2E2E2"/>
<path d="M29.9366 33.962H24.126V39.7726H29.9366V33.962Z" fill="#1E1E1E"/>
<path d="M22.8262 41.0749H17.0156V46.8854H22.8262V41.0749Z" fill="#1E1E1E"/>
<path d="M62.0944 19.6357H56.6846V25.0456H62.0944V19.6357Z" fill="#313131"/>
<path d="M91.5497 123.124H13.4072V128.534H91.5497V123.124Z" fill="#6A6572"/>
<path d="M24.5275 123.124H13.4072V128.534H24.5275V123.124Z" fill="#5A5663"/>
<path d="M91.6462 123.124H80.4258V128.534H91.6462V123.124Z" fill="#5A5663"/>
<path d="M79.7268 86.7581H58.6885V92.5687H79.7268V86.7581Z" fill="#6A6572"/>
<path d="M33.0425 126.531H30.7383V160.693H33.0425V126.531Z" fill="#6A6572"/>
<path d="M74.3179 126.531H72.0137V160.693H74.3179V126.531Z" fill="#6A6572"/>
<path d="M86.5387 29.2533H82.3311V51.9948H86.5387V29.2533Z" fill="#6A6572"/>
<path d="M45.2625 97.1771H40.3535V102.086H45.2625V97.1771Z" fill="#6A6572"/>
<path d="M37.1492 97.1771H32.2402V102.086H37.1492V97.1771Z" fill="#6A6572"/>
<path d="M97.6596 41.5759H93.1514V67.1224H97.6596V41.5759Z" fill="white"/>
</svg>
