<svg width="102" height="131" viewBox="0 0 102 131" fill="none" xmlns="http://www.w3.org/2000/svg">
<path d="M67.1032 76.4393H55.3818V83.7526H67.1032V76.4393Z" fill="#DDB99F"/>
<path d="M67.2026 56.6032H55.6816V77.0404H67.2026V56.6032Z" fill="#BFA08C"/>
<path d="M55.483 72.8327H33.543V83.6524H55.483V72.8327Z" fill="#BFA08C"/>
<path d="M55.6864 38.9711H22.4258V77.2408H55.6864V38.9711Z" fill="#DDB99F"/>
<path d="M36.748 29.1531H36.1469H16.6113V39.0712H36.1469H36.748H55.6825V29.1531H36.748Z" fill="#313131"/>
<path d="M67.2052 32.8599H55.584V57.1041H67.2052V32.8599Z" fill="#313131"/>
<path d="M33.9438 100.884H0.583008V173.416C0.583008 173.416 100.866 172.815 101.467 173.416C102.068 174.017 101.467 100.884 101.467 100.884H67.505H33.9438Z" fill="#B94F49"/>
<path d="M78.1239 100.884H22.3223V173.116H78.1239V100.884Z" fill="#B94F49"/>
<path d="M40.054 61.9128H17.8135V67.9237H40.054V61.9128Z" fill="#313131"/>
<path d="M33.4405 67.9237H20.1162V73.033H33.4405V67.9237Z" fill="#313131"/>
<path d="M33.4425 77.3409H22.3223V83.5522H33.4425V77.3409Z" fill="#313131"/>
<path d="M37.8524 67.9237H33.4443V77.4411H37.8524V67.9237Z" fill="#313131"/>
<path d="M31.6419 77.3409H24.9297V86.9584H31.6419V77.3409Z" fill="#313131"/>
<path d="M56.2844 94.6726H44.4629V105.592H56.2844V94.6726Z" fill="#B94F49"/>
<path d="M31.0396 50.1915H24.6279V67.8236H31.0396V50.1915Z" fill="#BFA08C"/>
<path d="M36.3469 40.7743H21.1191V45.2825H36.3469V40.7743Z" fill="#313131"/>
<path d="M35.847 45.7834H31.5391V50.0913H35.847V45.7834Z" fill="#313131"/>
<path d="M24.3259 45.7834H22.3223V50.0913H24.3259V45.7834Z" fill="#313131"/>
<path d="M65.9029 13.9254H20.9209V32.9601H65.9029V13.9254Z" fill="#B94F49"/>
<path d="M21.6213 23.7433H5.89258V32.9601H21.6213V23.7433Z" fill="#B94F49"/>
<path d="M77.9236 23.7433H62.0947V32.9601H77.9236V23.7433Z" fill="#B94F49"/>
<path d="M35.5475 13.8251H20.9209V28.4518H35.5475V13.8251Z" fill="#FFBC00"/>
<path d="M63.8971 8.11477H25.2266V14.1257H63.8971V8.11477Z" fill="#B94F49"/>
<path d="M44.6641 83.6525L33.7441 83.4521V94.8729V100.884H67.2052V83.6525H55.5839V94.6726H44.7642L44.6641 83.6525Z" fill="#B94F49"/>
<path d="M56.2844 83.6525H44.4629V94.6726H56.2844V83.6525Z" fill="#DDB99F"/>
<path d="M59.1891 0H30.2363V11.0201H59.1891V0Z" fill="#B94F49"/>
<path d="M22.2213 117.715H11.2012V197.46H22.2213V117.715Z" fill="#A5312F"/>
<path d="M89.3453 117.715H78.3252V197.46H89.3453V117.715Z" fill="#A5312F"/>
<path d="M89.2434 130.538H11.2012V141.458H89.2434V130.538Z" fill="#D39807"/>
<path d="M78.3277 130.538H22.4258V141.458H78.3277V130.538Z" fill="#FFBC00"/>
</svg>
