<svg width="103" height="131" viewBox="0 0 103 131" fill="none" xmlns="http://www.w3.org/2000/svg">
<path d="M67.1075 43.4792H55.4863V63.9165H67.1075V43.4792Z" fill="#BFA08C"/>
<path d="M67.505 63.616H55.8838V70.228H67.505V63.616Z" fill="#DDB99F"/>
<path d="M55.7832 59.308H33.9434V70.1277H55.7832V59.308Z" fill="#BFA08C"/>
<path d="M56.0839 25.3462H22.8232V63.616H56.0839V25.3462Z" fill="#DDB99F"/>
<path d="M39.1527 14.827H38.752H22.0215V25.6468H38.752H39.1527H55.8832V14.827H39.1527Z" fill="#313131"/>
<path d="M67.204 19.4355H55.7832V43.4793H67.204V19.4355Z" fill="#313131"/>
<path d="M56.2855 69.8272H44.9648V81.1479H56.2855V69.8272Z" fill="#DDB99F"/>
<path d="M44.9634 70.2281L33.9434 70.0277V81.3483V87.2591H67.4043V70.2281H55.7832V81.148H44.9634V70.2281Z" fill="#B94F49"/>
<path d="M34.4458 87.2591H1.08496V159.791C1.08496 159.791 101.368 159.19 101.969 159.791C102.57 160.392 101.969 87.2591 101.969 87.2591H68.007H34.4458Z" fill="#B94F49"/>
<path d="M22.7232 104.09H11.7031V170.411H22.7232V104.09Z" fill="#A5312F"/>
<path d="M89.7466 104.09H78.7266V170.411H89.7466V104.09Z" fill="#A5312F"/>
<path d="M53.2811 87.76H47.1699V159.992H53.2811V87.76Z" fill="#A5312F"/>
<path d="M31.7398 36.5667H25.3281V54.1988H31.7398V36.5667Z" fill="#BFA08C"/>
<path d="M36.9494 27.2496H21.7217V30.6559H36.9494V27.2496Z" fill="#313131"/>
<path d="M36.4505 32.1586H32.1426V36.4665H36.4505V32.1586Z" fill="#313131"/>
<path d="M25.029 32.1586H23.0254V36.4665H25.029V32.1586Z" fill="#313131"/>
<path d="M74.3182 104.09H58.9902V108.297H74.3182V104.09Z" fill="white"/>
<path d="M67.006 3.20575H21.9238V20.0364H67.006V3.20575Z" fill="#B94F49"/>
<path d="M64.3973 0H24.3242V5.30967H64.3973V0Z" fill="#B94F49"/>
<path d="M67.203 12.2222H21.8203V16.1294H67.203V12.2222Z" fill="#FFBC00"/>
<path d="M31.0409 85.3556H10.4033V91.4667H31.0409V85.3556Z" fill="#FFBC00"/>
<path d="M90.9501 85.3556H70.3125V91.4667H90.9501V85.3556Z" fill="#FFBC00"/>
</svg>
