<svg width="102" height="131" viewBox="0 0 102 131" fill="none" xmlns="http://www.w3.org/2000/svg">
<path d="M56.5842 88.5614H44.7627V99.5815H56.5842V88.5614Z" fill="#DDB99F"/>
<path d="M67.403 81.3483H55.6816V88.6616H67.403V81.3483Z" fill="#DDB99F"/>
<path d="M67.4048 61.5121H55.8838V81.9494H67.4048V61.5121Z" fill="#BFA08C"/>
<path d="M55.8845 77.7416H33.7441V88.5614H55.8845V77.7416Z" fill="#BFA08C"/>
<path d="M55.8827 37.6686H22.6221V82.2499H55.8827V37.6686Z" fill="#DDB99F"/>
<path d="M43.0612 34.062H42.4602H20.9209V40.1731H42.4602H43.0612H63.9994V34.062H43.0612Z" fill="#604925"/>
<path d="M67.4044 37.7689H55.7832V62.0131H67.4044V37.7689Z" fill="#604925"/>
<path d="M33.9439 106.294H0.583008V178.826C0.583008 178.826 100.866 178.225 101.467 178.826C102.068 179.427 101.467 106.294 101.467 106.294H67.505H33.9439Z" fill="#6E94B6"/>
<path d="M78.4238 105.592H22.6221V178.024H78.4238V105.592Z" fill="#6E94B6"/>
<path d="M37.0499 82.2499H22.5234V88.4612H37.0499V82.2499Z" fill="#BFA08C"/>
<path d="M56.5842 99.5815H44.7627V111.203H56.5842V99.5815Z" fill="#6E94B6"/>
<path d="M32.3419 56.3026H25.8301V73.8346H32.3419V56.3026Z" fill="#BFA08C"/>
<path d="M40.357 46.3845H21.3223V50.1915H40.357V46.3845Z" fill="#604925"/>
<path d="M67.5057 27.45H8.99902V37.869H67.5057V27.45Z" fill="#D39807"/>
<path d="M63.4001 6.21137H19.9209V13.7251H63.4001V6.21137Z" fill="#FFBC00"/>
<path d="M44.9634 88.5614L33.9434 88.361V99.7818V105.793H67.4043V88.5614H55.7832V99.5815H44.9634V88.5614Z" fill="#DDB99F"/>
<path d="M44.9634 91.667L33.9434 91.5669V100.884V105.793H67.4043V91.667H55.7832V100.683H44.9634V91.667Z" fill="#6E94B6"/>
<path d="M67.0034 11.7213H15.209V22.7414H67.0034V11.7213Z" fill="#FFBC00"/>
<path d="M69.2054 21.8398H11.8008V30.3553H69.2054V21.8398Z" fill="#FFBC00"/>
<path d="M56.9885 113.306H44.666V174.618H56.9885V113.306Z" fill="#6E94B6"/>
<path d="M39.7549 70.4284H22.5234V73.8346H39.7549V70.4284Z" fill="#604925"/>
<path d="M34.2433 82.1497H22.6221V88.3611H34.2433V82.1497Z" fill="#604925"/>
<path d="M70.2091 29.4537H3.78809V36.0657H70.2091V29.4537Z" fill="#FFBC00"/>
<path d="M68.6062 30.2551H3.78809V36.1659H68.6062V30.2551Z" fill="#D39807"/>
<path d="M41.3587 114.609H34.1455V123.525H41.3587V114.609Z" fill="#FF8F29"/>
<path d="M68.4077 115.01H59.792V124.126H68.4077V115.01Z" fill="#FF8F29"/>
<path d="M89.246 105.592H67.4062V115.11H89.246V105.592Z" fill="#FF8F29"/>
<path d="M34.1457 114.609H19.4189V182.533H34.1457V114.609Z" fill="#FF8F29"/>
<path d="M81.9315 115.11H67.1045V182.533H81.9315V115.11Z" fill="#FF8F29"/>
<path d="M34.1457 127.833H11.4043V182.533H34.1457V127.833Z" fill="#FF8F29"/>
<path d="M89.646 127.833H67.2051V182.533H89.646V127.833Z" fill="#FF8F29"/>
<path d="M68.9071 182.432V122.523H57.3861V127.633H54.9817V134.645H46.4662V127.633H43.7612V122.523H33.9434V182.432H68.9071Z" fill="#FF8F29"/>
<path d="M44.6628 105.592H33.9434V110.401H44.6628V105.592Z" fill="#6E94B6"/>
<path d="M67.4049 105.592H56.3848V110.401H67.4049V105.592Z" fill="#6E94B6"/>
<path d="M33.8428 105.592H10.8008V115.01H33.8428V105.592Z" fill="#FF8F29"/>
<path d="M19.4189 122.623H11.4043V182.432H19.4189V122.623Z" fill="#D17D2A"/>
<path d="M89.8451 122.623H81.9307V182.432H89.8451V122.623Z" fill="#D17D2A"/>
<path d="M11.7046 25.9474H6.49512V29.4538H11.7046V25.9474Z" fill="#FFBC00"/>
<path d="M57.7859 0H25.2266V11.6212H57.7859V0Z" fill="#FFBC00"/>
<path d="M40.1565 51.8946H35.8486V56.2024H40.1565V51.8946Z" fill="#3F2E17"/>
<path d="M24.7259 51.8946H22.6221V56.2024H24.7259V51.8946Z" fill="#3F2E17"/>
<path d="M56.4841 108.598H44.7627V119.217H56.4841V108.598Z" fill="#6E94B6"/>
<path d="M65.3029 26.3481H19.0186V30.2552H65.3029V26.3481Z" fill="#D39807"/>
<path d="M63.0956 22.1403H21.8203V26.348H63.0956V22.1403Z" fill="#D39807"/>
<path d="M60.9932 12.9235H25.3281V22.3407H60.9932V12.9235Z" fill="#D39807"/>
<path d="M57.2872 7.51373H29.6367V12.8234H57.2872V7.51373Z" fill="#D39807"/>
</svg>
