<svg width="102" height="131" viewBox="0 0 102 131" fill="none" xmlns="http://www.w3.org/2000/svg">
<path d="M37.5505 35.4646H21.2207V59.7088H37.5505V35.4646Z" fill="#A5312F"/>
<path d="M34.244 48.0876H24.0254V68.024H34.244V48.0876Z" fill="#313131"/>
<path d="M38.352 24.0438H18.3154V48.288H38.352V24.0438Z" fill="#A5312F"/>
<path d="M67.1032 67.7234H55.3818V75.0368H67.1032V67.7234Z" fill="#DDB99F"/>
<path d="M67.105 47.7871H55.584V68.2244H67.105V47.7871Z" fill="#BFA08C"/>
<path d="M55.3844 64.1168H33.4443V74.9366H55.3844V64.1168Z" fill="#BFA08C"/>
<path d="M55.5829 30.2551H22.3223V68.5249H55.5829V30.2551Z" fill="#DDB99F"/>
<path d="M40.2549 19.0347H39.3532H7.99609V30.3553H39.3532H40.2549H70.7104V19.0347H40.2549Z" fill="#B94F49"/>
<path d="M43.3586 9.41721H42.7575H20.1162V20.7378H42.7575H43.3586H65.3988V9.41721H43.3586Z" fill="#B94F49"/>
<path d="M34.4462 9.41721H34.2459H26.4316V20.7378H34.2459H34.4462H42.0602V9.41721H34.4462Z" fill="white"/>
<path d="M43.5611 4.90891H43.0602H25.0273V13.1239H43.0602H43.5611H61.0931V4.90891H43.5611Z" fill="#B94F49"/>
<path d="M42.7599 0H42.3592H29.9365V10.2186H42.3592H42.7599H54.882V0H42.7599Z" fill="#B94F49"/>
<path d="M75.6205 24.0438H55.584V48.288H75.6205V24.0438Z" fill="#B94F49"/>
<path d="M74.8176 35.4646H59.5898V59.7088H74.8176V35.4646Z" fill="#B94F49"/>
<path d="M72.5145 48.0876H62.2959V68.024H72.5145V48.0876Z" fill="#B94F49"/>
<path d="M33.9438 92.0679H0.583008V142.66C0.583008 142.66 100.866 142.259 101.467 142.66C102.068 143.061 101.467 92.0679 101.467 92.0679H67.4048H33.9438Z" fill="#B94F49"/>
<path d="M78.124 92.168H22.3223V164.4H78.124V92.168Z" fill="#B94F49"/>
<path d="M33.4423 59.1077H20.8193V64.2171H33.4423V59.1077Z" fill="#604925"/>
<path d="M33.3409 68.5249H22.2207V74.7362H33.3409V68.5249Z" fill="#604925"/>
<path d="M37.8524 59.2079H33.4443V68.7253H37.8524V59.2079Z" fill="#604925"/>
<path d="M56.2845 85.9566H44.4629V96.8765H56.2845V85.9566Z" fill="#B94F49"/>
<path d="M31.0396 41.3754H24.6279V57.1041H31.0396V41.3754Z" fill="#D8988D"/>
<path d="M24.9296 32.0584H21.5234V34.8636H24.9296V32.0584Z" fill="#604925"/>
<path d="M36.2494 32.0584H30.0381V34.8636H36.2494V32.0584Z" fill="#604925"/>
<path d="M35.7454 36.9674H31.4375V41.2753H35.7454V36.9674Z" fill="#4F381A"/>
<path d="M24.3259 36.9674H22.3223V41.2753H24.3259V36.9674Z" fill="#4F381A"/>
<path d="M44.6636 74.9365L33.7438 74.7362L33.6436 86.157V92.0678H67.2047V74.9365H55.4834V85.8564H44.6636V74.9365Z" fill="#DDB99F"/>
<path d="M56.2845 74.9366H44.4629V85.9566H56.2845V74.9366Z" fill="#DDB99F"/>
<path d="M22.5218 108.899H11.2012V188.644H22.5218V108.899Z" fill="#A5312F"/>
<path d="M89.5455 108.899H77.8242V188.644H89.5455V108.899Z" fill="#A5312F"/>
<path d="M71.0113 37.4683H63.3975V47.2862H71.0113V37.4683Z" fill="white"/>
<path d="M56.1848 19.0347H13.8076V25.3462H56.1848V19.0347Z" fill="#A5312F"/>
<path d="M61.0945 4.90891H54.4824V11.521H61.0945V4.90891Z" fill="#A5312F"/>
<path d="M65.3006 9.41721H58.6885V16.0293H65.3006V9.41721Z" fill="#A5312F"/>
<path d="M70.8113 19.0347H64.1992V25.6467H70.8113V19.0347Z" fill="#A5312F"/>
<path d="M54.7808 90.1643H43.7607V101.184H54.7808V90.1643Z" fill="#DDB99F"/>
<path d="M26.9322 92.0679H23.9268V101.485H26.9322V92.0679Z" fill="white"/>
<path d="M29.8375 101.485H26.832V106.294H29.8375V101.485Z" fill="white"/>
<path d="M32.7438 106.193H29.7383V111.203H32.7438V106.193Z" fill="white"/>
<path d="M35.7506 111.203H32.7451V188.844H35.7506V111.203Z" fill="white"/>
<path d="M72.2191 101.538H75.2246V92.1208H72.2191V101.538Z" fill="white"/>
<path d="M69.3021 106.291H72.3076V101.482H69.3021V106.291Z" fill="white"/>
<path d="M66.4828 111.258H69.4883V106.249H66.4828V111.258Z" fill="white"/>
<path d="M63.4887 188.798H66.4941L66.4941 111.157H63.4887L63.4887 188.798Z" fill="white"/>
</svg>
