<svg width="98" height="131" viewBox="0 0 98 131" fill="none" xmlns="http://www.w3.org/2000/svg">
<path d="M28.6708 33.5612H17.25V90.5651H28.6708V33.5612Z" fill="#CE9B1B"/>
<path d="M34.0861 89.7635H19.5596V96.3756H34.0861V89.7635Z" fill="#CE9B1B"/>
<path d="M36.389 78.443H28.4746V93.6708H36.389V78.443Z" fill="#CE9B1B"/>
<path d="M65.5388 71.5304H53.8174V78.8437H65.5388V71.5304Z" fill="#DDB99F"/>
<path d="M65.5389 51.6942H55.3203V72.1314H65.5389V51.6942Z" fill="#BFA08C"/>
<path d="M55.223 68.0241H31.7803V78.8438H55.223V68.0241Z" fill="#DDB99F"/>
<path d="M55.3207 27.8507H20.2568V73.9347H55.3207V27.8507Z" fill="#DDB99F"/>
<path d="M41.6993 22.9418H40.9981H15.0508V34.1623H40.9981H41.6993H66.9454V22.9418H41.6993Z" fill="#EFB922"/>
<path d="M83.576 95.9749H14.1494V162.095H83.576V95.9749Z" fill="#465A6D"/>
<path d="M97.6 98.5797H85.5781V168.207C92.7913 168.207 97.4999 168.307 97.6 168.407C98.2011 169.108 97.6 98.5797 97.6 98.5797Z" fill="#465A6D"/>
<path d="M76.5595 90.5651H20.7578V154.983H76.5595V90.5651Z" fill="#465A6D"/>
<path d="M35.3845 72.1314H23.6631V78.3428H35.3845V72.1314Z" fill="#DDB99F"/>
<path d="M54.719 89.7635H42.8975V100.683H54.719V89.7635Z" fill="#DDB99F"/>
<path d="M27.9734 45.7835H24.2666V63.4156H27.9734V45.7835Z" fill="#BFA08C"/>
<path d="M67.0459 10.1184H17.5557V29.1531H67.0459V10.1184Z" fill="#465A6D"/>
<path d="M63.3361 4.20773H21.1592V10.2187H63.3361V4.20773Z" fill="#465A6D"/>
<path d="M44.3012 78.7435L33.9824 78.5432V89.964V95.9749H65.6401V78.7435H54.62V89.7636H44.4014L44.3012 78.7435Z" fill="#DDB99F"/>
<path d="M55.5205 78.7435H42.8975V89.7636H55.5205V78.7435Z" fill="#DDB99F"/>
<path d="M49.9127 0H20.96V11.0201H49.9127V0Z" fill="#465A6D"/>
<path d="M76.7613 125.629H20.8594V136.549H76.7613V125.629Z" fill="#465A6D"/>
<path d="M66.9428 18.7342H5.93164V29.1532H66.9428V18.7342Z" fill="#1E1E1E"/>
<path d="M54.719 103.489H42.8975V149.072H54.719V103.489Z" fill="#424242"/>
<path d="M54.719 100.784H42.8975V111.403H54.719V100.784Z" fill="#1E1E1E"/>
<path d="M60.2327 18.7342H11.5439V24.5448H60.2327V18.7342Z" fill="#313131"/>
<path d="M67.2435 112.806H56.4238V117.013H67.2435V112.806Z" fill="#D39807"/>
<path d="M48.8091 77.8419H28.5723V82.6507H48.8091V77.8419Z" fill="#DDB99F"/>
<path d="M71.8504 33.0602H55.3203V90.5651H71.8504V33.0602Z" fill="#EFB922"/>
<path d="M67.0422 33.0602H54.7197V101.084H67.0422V33.0602Z" fill="#EFB922"/>
<path d="M60.0329 34.3627H54.623V73.5341H60.0329V34.3627Z" fill="#CE9B1B"/>
<path d="M54.7204 73.4338H49.3105V78.3428H54.7204V73.4338Z" fill="#CE9B1B"/>
<path d="M54.6207 78.2426H47.0068V83.1515H54.6207V78.2426Z" fill="#CE9B1B"/>
<path d="M57.1267 83.1515H47.1084V100.884H57.1267V83.1515Z" fill="#EFB922"/>
<path d="M49.5114 78.2426H47.0068V100.984H49.5114V78.2426Z" fill="#CE9B1B"/>
<path d="M64.4389 100.984H49.5117V106.594H64.4389V100.984Z" fill="#EFB922"/>
<path d="M17.2548 29.1531H15.0508V34.2624H17.2548V29.1531Z" fill="#CE9B1B"/>
<path d="M18.7543 97.3775H10.8398V146.066H18.7543V97.3775Z" fill="#465A6D"/>
<path d="M88.682 97.3775H80.7676V146.066H88.682V97.3775Z" fill="#465A6D"/>
<path d="M88.4838 99.9822H80.5693V146.066H88.4838V99.9822Z" fill="#465A6D"/>
<path d="M10.139 100.383H2.22461V136.849H10.139V100.383Z" fill="#465A6D"/>
<path d="M68.0641 146.063H75.9785V104.787H68.0641V146.063Z" fill="#465A6D"/>
<path d="M73.0338 141.611H80.9482V110.654H73.0338V141.611Z" fill="#465A6D"/>
<path d="M12.644 98.5797H0.62207V168.207C7.83522 168.207 12.5438 168.307 12.644 168.407C13.2451 169.108 12.644 98.5797 12.644 98.5797Z" fill="#465A6D"/>
<path d="M22.8642 36.7671H19.458V39.5722H22.8642V36.7671Z" fill="#CE9B1B"/>
<path d="M34.184 36.7671H27.9727V39.5722H34.184V36.7671Z" fill="#CE9B1B"/>
<path d="M33.6809 41.6759H29.373V45.9838H33.6809V41.6759Z" fill="#604925"/>
<path d="M22.2605 41.6759H20.2568V45.9838H22.2605V41.6759Z" fill="#604925"/>
</svg>
