<svg width="109" height="131" viewBox="0 0 109 131" fill="none" xmlns="http://www.w3.org/2000/svg">
<path d="M71.475 50.3919H58.9521V58.2061H71.475V50.3919Z" fill="#DDB99F"/>
<path d="M71.4729 29.2533H59.1504V50.993H71.4729V29.2533Z" fill="#BFA08C"/>
<path d="M59.1503 46.4848H35.6074V58.0058H59.1503V46.4848Z" fill="#BFA08C"/>
<path d="M59.052 3.80699H23.6875V51.1934H59.052V3.80699Z" fill="#DDB99F"/>
<path d="M39.5151 0H38.914H18.2764V10.6194H38.914H39.5151H59.6518V0H39.5151Z" fill="#313131"/>
<path d="M71.4729 9.91811H59.1504V35.0639H71.4729V9.91811Z" fill="#313131"/>
<path d="M36.1097 76.3392H0.544922V153.58C0.544922 153.58 107.239 152.979 107.84 153.58C108.442 154.181 107.84 76.3392 107.84 76.3392H71.6746H36.1097Z" fill="white"/>
<path d="M83.1964 76.239H23.7881V153.179H83.1964V76.239Z" fill="#E2E2E2"/>
<path d="M39.1156 51.2935H23.6875V57.9056H39.1156V51.2935Z" fill="#BFA08C"/>
<path d="M59.8509 69.8273H47.3281V81.5487H59.8509V69.8273Z" fill="#DDB99F"/>
<path d="M47.5319 58.1059L35.9107 57.8054L35.8105 69.9275V76.3392H71.4756V58.0058H59.0529V69.7271H47.5319V58.1059Z" fill="#DDB99F"/>
<path d="M59.9511 58.0058H47.3281V69.7272H59.9511V58.0058Z" fill="#DDB99F"/>
<path d="M23.686 94.2719H11.6641V165.201H23.686V94.2719Z" fill="#E2E2E2"/>
<path d="M94.9167 94.2719H83.1953V165.201H94.9167V94.2719Z" fill="#E2E2E2"/>
<path d="M59.7523 84.3537H47.2295V132.842H59.7523V84.3537Z" fill="#424242"/>
<path d="M59.7523 81.4485H47.2295V92.7691H59.7523V81.4485Z" fill="#1E1E1E"/>
<path d="M41.8205 85.556H34.1064V95.0733H41.8205V85.556Z" fill="white"/>
<path d="M75.7817 85.556H66.665V95.2737H75.7817V85.556Z" fill="white"/>
<path d="M94.8166 76.4395H71.5742V90.1644H94.8166V76.4395Z" fill="white"/>
<path d="M36.2101 85.6561H20.4814V157.988H36.2101V85.6561Z" fill="white"/>
<path d="M87.1033 86.2573H71.2744V157.988H87.1033V86.2573Z" fill="white"/>
<path d="M36.211 107.496H11.9668V246.349H36.211V107.496Z" fill="white"/>
<path d="M95.319 107.496H71.4756V246.349H95.319V107.496Z" fill="white"/>
<path d="M35.91 76.3392H11.3652V89.964H35.91V76.3392Z" fill="white"/>
<path d="M20.4786 103.789H11.7627V246.349H20.4786V103.789Z" fill="#E2E2E2"/>
<path d="M95.5214 94.1717H87.0059V246.549H95.5214V94.1717Z" fill="#E2E2E2"/>
<path d="M32.3028 21.1386H26.9932V39.8728H32.3028V21.1386Z" fill="#BFA08C"/>
<path d="M42.4238 19.1349H32.7061V26.5484H42.4238V19.1349Z" fill="#1E1E1E"/>
<path d="M39.2186 23.042H35.3115V26.5484H39.2186V23.042Z" fill="#1E1E1E"/>
<path d="M42.4256 19.135H39.2197V22.9419H42.4256V19.135Z" fill="#1E1E1E"/>
<path d="M41.4202 21.2388H34.207V23.9437H41.4202V21.2388Z" fill="white"/>
<path d="M40.8201 22.7416H34.709V25.0458H40.8201V22.7416Z" fill="white"/>
<path d="M40.8201 20.5375H34.709V22.8418H40.8201V20.5375Z" fill="white"/>
<path d="M40.0176 24.0438H35.4092V25.9473H40.0176V24.0438Z" fill="white"/>
<path d="M40.0176 19.6359H35.4092V21.5393H40.0176V19.6359Z" fill="white"/>
<path d="M41.7228 18.1331H33.5078V19.5357H41.7228V18.1331Z" fill="#1E1E1E"/>
<path d="M41.7228 26.1478H33.5078V27.5503H41.7228V26.1478Z" fill="#1E1E1E"/>
<path d="M40.9215 26.9492H34.5098V28.3518H40.9215V26.9492Z" fill="#1E1E1E"/>
<path d="M40.9215 17.3317H34.5098V18.7342H40.9215V17.3317Z" fill="#1E1E1E"/>
<path d="M44.4263 20.0367H42.1221V25.5467H44.4263V20.0367Z" fill="#1E1E1E"/>
<path d="M25.9946 19.135H23.6904V26.5485H25.9946V19.135Z" fill="#313131"/>
<path d="M25.8945 19.135H23.6904V22.942H25.8945V19.135Z" fill="#1E1E1E"/>
<path d="M25.2904 18.1331H23.6875V19.135H25.2904V18.1331Z" fill="#1E1E1E"/>
<path d="M25.2934 25.9474H23.6904V26.9492H25.2934V25.9474Z" fill="#1E1E1E"/>
<path d="M25.4908 20.9383H23.6875V23.6432H25.4908V20.9383Z" fill="white"/>
<path d="M24.8897 22.5412H23.6875V24.8454H24.8897V22.5412Z" fill="white"/>
<path d="M24.8897 19.7361H23.6875V22.0403H24.8897V19.7361Z" fill="white"/>
<path d="M24.1884 23.9437H23.6875V25.8472H24.1884V23.9437Z" fill="white"/>
<path d="M24.1884 18.6341H23.6875V20.5375H24.1884V18.6341Z" fill="white"/>
<path d="M33.2074 20.9383H25.293V22.8418H33.2074V20.9383Z" fill="#1E1E1E"/>
<path d="M78.5858 246.349V94.0715H62.8571V111.303H59.5511V120.219H48.1302V111.303H44.3233V94.0715H30.999V246.349H78.5858Z" fill="white"/>
<path d="M83.6947 97.7782H66.5635V102.286H83.6947V97.7782Z" fill="#E2E2E2"/>
<path d="M54.8418 120.119H53.1387V246.349H54.8418V120.119Z" fill="#E2E2E2"/>
</svg>
