<svg width="102" height="131" viewBox="0 0 102 131" fill="none" xmlns="http://www.w3.org/2000/svg">
<path d="M66.1014 60.4101H55.3818V67.7235H66.1014V60.4101Z" fill="#DDB99F"/>
<path d="M66.1032 40.4738H55.584V60.9111H66.1032V40.4738Z" fill="#BFA08C"/>
<path d="M55.6833 56.8035H33.543V67.6233H55.6833V56.8035Z" fill="#BFA08C"/>
<path d="M57.0856 16.6303H22.3223V61.2116H57.0856V16.6303Z" fill="#DDB99F"/>
<path d="M35.9483 7.11298H35.3472H13.4072V16.5301H35.3472H35.9483H57.2872V7.11298H35.9483Z" fill="#1E1E1E"/>
<path d="M36.25 3.70676H35.7491H19.0186V15.0274H35.7491H36.25H52.4796V3.70676H36.25Z" fill="#1E1E1E"/>
<path d="M34.3453 0H34.0447H23.3252V8.41533H34.0447H34.3453H44.7643V0H34.3453Z" fill="#1E1E1E"/>
<path d="M66.1031 18.2332H56.7861V40.9747H66.1031V18.2332Z" fill="#313131"/>
<path d="M33.9438 84.7544H0.583008V157.287C0.583008 157.287 100.866 156.686 101.467 157.287C102.068 157.888 101.467 84.7544 101.467 84.7544H67.505H33.9438Z" fill="white"/>
<path d="M78.124 84.9548H22.3223V157.086H78.124V84.9548Z" fill="white"/>
<path d="M36.7472 61.2116H22.2207V67.4229H36.7472V61.2116Z" fill="#BFA08C"/>
<path d="M56.2844 78.6434H44.4629V89.5633H56.2844V78.6434Z" fill="#DDB99F"/>
<path d="M44.3631 67.6233L33.7437 67.4229L33.6436 78.7436V84.7546H66.2029V67.5231H54.8823V78.5432H44.3631V67.6233Z" fill="#DDB99F"/>
<path d="M56.2837 67.6232H43.5605V78.6433H56.2837V67.6232Z" fill="#DDB99F"/>
<path d="M19.4162 101.585H11.2012V168.207H19.4162V101.585Z" fill="#E2E2E2"/>
<path d="M89.6459 101.585H80.5293V168.207H89.6459V101.585Z" fill="#E2E2E2"/>
<path d="M62.1965 10.7195H10.1016V18.5337H62.1965V10.7195Z" fill="#1E1E1E"/>
<path d="M60.194 33.2606H52.5801V44.8817H60.194V33.2606Z" fill="#DDB99F"/>
<path d="M36.2463 50.7925H22.2207V55.0002H36.2463V50.7925Z" fill="#313131"/>
<path d="M39.9558 54.6996H36.249V64.1168H39.9558V54.6996Z" fill="#313131"/>
<path d="M36.3465 64.0168H22.2207V67.423H36.3465V64.0168Z" fill="#313131"/>
<path d="M30.8361 34.2624H24.3242V51.8945H30.8361V34.2624Z" fill="#BFA08C"/>
<path d="M30.1392 33.6613H24.9297V34.7633H30.1392V33.6613Z" fill="#BFA08C"/>
<path d="M28.6352 33.0602H26.3311V34.1623H28.6352V33.0602Z" fill="#BFA08C"/>
<path d="M35.4486 96.0751H37.9532V99.1807H44.4651V84.7544H32.1426V92.1679H35.4486V96.0751Z" fill="#E2E2E2"/>
<path d="M56.1836 99.1807H62.6955V96.3756H67.5042V84.7544H56.1836V96.3756V99.1807Z" fill="#E2E2E2"/>
<path d="M51.1768 93.3701H49.9746V167.906H51.1768V93.3701Z" fill="#E2E2E2"/>
<path d="M47.1688 88.4612H45.5659V87.1589H44.2636V86.0569H39.9557V87.1589H38.6533V99.5815H39.9557V100.683H44.2636V99.5815H45.5659V98.2791H47.1688V88.4612Z" fill="#424242"/>
<path d="M53.8828 88.4613H55.3856V87.1589H56.7881V86.0569H61.0959V87.1589H62.2981V99.5815H61.0959V100.684H56.7881V99.5815H55.3856V98.2792H53.8828V88.4613Z" fill="#424242"/>
<path d="M54.5841 89.5632H46.3691V96.9767H54.5841V89.5632Z" fill="#2B2B2B"/>
<path d="M25.0273 24.244H21.6211V27.0492H25.0273V24.244Z" fill="#313131"/>
<path d="M36.3471 24.244H30.1357V27.0492H36.3471V24.244Z" fill="#313131"/>
<path d="M35.8469 29.2532H31.5391V33.5611H35.8469V29.2532Z" fill="#1E1E1E"/>
<path d="M24.3259 29.2532H22.3223V33.5611H24.3259V29.2532Z" fill="#1E1E1E"/>
<path d="M79.5272 102.988H64.1992V107.195H79.5272V102.988Z" fill="#D39807"/>
</svg>
