<svg width="1358" height="236" viewBox="0 0 1358 236" fill="none" xmlns="http://www.w3.org/2000/svg">
<path d="M1357.9 224.575H1346.63V235.829H1357.9V224.575Z" fill="#FFD5AD"/>
<path d="M1357.9 213.322H1346.63V224.575H1357.9V213.322Z" fill="#FFD5AD"/>
<path d="M1357.9 202.069H1346.63V213.322H1357.9V202.069Z" fill="#4CA52D"/>
<path d="M1357.9 190.895H1346.63V202.148H1357.9V190.895Z" fill="#4CA52D"/>
<path d="M1346.63 224.575H1335.36V235.829H1346.63V224.575Z" fill="#FFD5AD"/>
<path d="M1346.63 213.322H1335.36V224.575H1346.63V213.322Z" fill="#FFD5AD"/>
<path d="M1346.63 202.069H1335.36V213.322H1346.63V202.069Z" fill="#1A9149"/>
<path d="M1346.63 190.895H1335.36V202.148H1346.63V190.895Z" fill="#1A9149"/>
<path d="M1346.63 179.642H1335.36V190.895H1346.63V179.642Z" fill="#4CA52D"/>
<path d="M1346.63 112.361H1335.36V123.614H1346.63V112.361Z" fill="#FFD5AD"/>
<path d="M1346.63 101.107H1335.36V112.361H1346.63V101.107Z" fill="#FFD5AD"/>
<path d="M1346.63 89.8542H1335.36V101.107H1346.63V89.8542Z" fill="#594A42"/>
<path d="M1335.44 224.575H1324.17V235.829H1335.44V224.575Z" fill="#4CA52D"/>
<path d="M1335.44 213.322H1324.17V224.575H1335.44V213.322Z" fill="#1A9149"/>
<path d="M1335.44 202.069H1324.17V213.322H1335.44V202.069Z" fill="#1A9149"/>
<path d="M1335.44 190.895H1324.17V202.148H1335.44V190.895Z" fill="#1A9149"/>
<path d="M1335.44 179.642H1324.17V190.895H1335.44V179.642Z" fill="#4CA52D"/>
<path d="M1335.44 168.468H1324.17V179.721H1335.44V168.468Z" fill="#4CA52D"/>
<path d="M1335.44 134.788H1324.17V146.041H1335.44V134.788Z" fill="#FFD5AD"/>
<path d="M1335.44 123.535H1324.17V134.788H1335.44V123.535Z" fill="#FFD5AD"/>
<path d="M1335.44 112.361H1324.17V123.614H1335.44V112.361Z" fill="#FFD5AD"/>
<path d="M1335.44 101.107H1324.17V112.361H1335.44V101.107Z" fill="#FFD5AD"/>
<path d="M1335.44 89.8542H1324.17V101.107H1335.44V89.8542Z" fill="#FFD5AD"/>
<path d="M1335.44 78.6804H1324.17V89.9336H1335.44V78.6804Z" fill="#414042"/>
<path d="M1335.44 67.4272H1324.17V78.6804H1335.44V67.4272Z" fill="#414042"/>
<path d="M1324.17 224.575H1312.91V235.829H1324.17V224.575Z" fill="#4CA52D"/>
<path d="M1324.17 213.322H1312.91V224.575H1324.17V213.322Z" fill="#4CA52D"/>
<path d="M1324.17 202.069H1312.91V213.322H1324.17V202.069Z" fill="#4CA52D"/>
<path d="M1324.17 190.895H1312.91V202.148H1324.17V190.895Z" fill="#4CA52D"/>
<path d="M1324.17 179.642H1312.91V190.895H1324.17V179.642Z" fill="#4CA52D"/>
<path d="M1324.17 168.468H1312.91V179.721H1324.17V168.468Z" fill="#4CA52D"/>
<path d="M1324.17 157.215H1312.91V168.468H1324.17V157.215Z" fill="#414042"/>
<path d="M1324.17 145.962H1312.91V157.215H1324.17V145.962Z" fill="#FFD5AD"/>
<path d="M1324.17 134.788H1312.91V146.041H1324.17V134.788Z" fill="#FFD5AD"/>
<path d="M1324.17 123.535H1312.91V134.788H1324.17V123.535Z" fill="#FFD5AD"/>
<path d="M1324.17 112.361H1312.91V123.614H1324.17V112.361Z" fill="white"/>
<path d="M1324.17 101.107H1312.91V112.361H1324.17V101.107Z" fill="#414042"/>
<path d="M1324.17 89.8542H1312.91V101.107H1324.17V89.8542Z" fill="#414042"/>
<path d="M1324.17 78.6804H1312.91V89.9336H1324.17V78.6804Z" fill="#414042"/>
<path d="M1324.17 67.4272H1312.91V78.6804H1324.17V67.4272Z" fill="#414042"/>
<path d="M1324.17 56.2532H1312.91V67.5064H1324.17V56.2532Z" fill="#414042"/>
<path d="M1312.91 224.575H1301.64V235.829H1312.91V224.575Z" fill="#4CA52D"/>
<path d="M1312.91 213.322H1301.64V224.575H1312.91V213.322Z" fill="#4CA52D"/>
<path d="M1312.91 202.069H1301.64V213.322H1312.91V202.069Z" fill="#4CA52D"/>
<path d="M1312.91 190.895H1301.64V202.148H1312.91V190.895Z" fill="#4CA52D"/>
<path d="M1312.91 179.642H1301.64V190.895H1312.91V179.642Z" fill="#4CA52D"/>
<path d="M1312.91 168.468H1301.64V179.721H1312.91V168.468Z" fill="#4CA52D"/>
<path d="M1312.91 157.215H1301.64V168.468H1312.91V157.215Z" fill="#414042"/>
<path d="M1312.91 145.962H1301.64V157.215H1312.91V145.962Z" fill="#FFD5AD"/>
<path d="M1312.91 134.788H1301.64V146.041H1312.91V134.788Z" fill="white"/>
<path d="M1312.91 123.535H1301.64V134.788H1312.91V123.535Z" fill="#FFD5AD"/>
<path d="M1312.91 112.361H1301.64V123.614H1312.91V112.361Z" fill="white"/>
<path d="M1312.91 101.107H1301.64V112.361H1312.91V101.107Z" fill="#414042"/>
<path d="M1312.91 89.8542H1301.64V101.107H1312.91V89.8542Z" fill="white"/>
<path d="M1312.91 78.6804H1301.64V89.9336H1312.91V78.6804Z" fill="#414042"/>
<path d="M1312.91 67.4272H1301.64V78.6804H1312.91V67.4272Z" fill="#4CA52D"/>
<path d="M1312.91 56.2532H1301.64V67.5064H1312.91V56.2532Z" fill="#4CA52D"/>
<path d="M1301.72 224.575H1290.45V235.829H1301.72V224.575Z" fill="#4DC87D"/>
<path d="M1301.72 213.322H1290.45V224.575H1301.72V213.322Z" fill="#4DC87D"/>
<path d="M1301.72 202.069H1290.45V213.322H1301.72V202.069Z" fill="#1A9149"/>
<path d="M1301.72 190.895H1290.45V202.148H1301.72V190.895Z" fill="#1A9149"/>
<path d="M1301.72 179.642H1290.45V190.895H1301.72V179.642Z" fill="#1A9149"/>
<path d="M1301.72 168.468H1290.45V179.721H1301.72V168.468Z" fill="#4CA52D"/>
<path d="M1301.72 157.215H1290.45V168.468H1301.72V157.215Z" fill="#414042"/>
<path d="M1301.72 145.962H1290.45V157.215H1301.72V145.962Z" fill="white"/>
<path d="M1301.72 134.788H1290.45V146.041H1301.72V134.788Z" fill="white"/>
<path d="M1301.72 123.535H1290.45V134.788H1301.72V123.535Z" fill="#FFD5AD"/>
<path d="M1301.72 112.361H1290.45V123.614H1301.72V112.361Z" fill="#FFD5AD"/>
<path d="M1301.72 101.107H1290.45V112.361H1301.72V101.107Z" fill="#FFD5AD"/>
<path d="M1301.72 89.8542H1290.45V101.107H1301.72V89.8542Z" fill="#FFD5AD"/>
<path d="M1301.72 78.6804H1290.45V89.9336H1301.72V78.6804Z" fill="#4CA52D"/>
<path d="M1301.72 67.4272H1290.45V78.6804H1301.72V67.4272Z" fill="#1A9149"/>
<path d="M1301.72 56.2532H1290.45V67.5064H1301.72V56.2532Z" fill="#1A9149"/>
<path d="M1301.72 45H1290.45V56.2532H1301.72V45Z" fill="#4CA52D"/>
<path d="M1290.45 224.575H1279.18V235.829H1290.45V224.575Z" fill="#4DC87D"/>
<path d="M1290.45 213.322H1279.18V224.575H1290.45V213.322Z" fill="#4DC87D"/>
<path d="M1290.45 202.069H1279.18V213.322H1290.45V202.069Z" fill="#1A9149"/>
<path d="M1290.45 190.895H1279.18V202.148H1290.45V190.895Z" fill="#1A9149"/>
<path d="M1290.45 179.642H1279.18V190.895H1290.45V179.642Z" fill="#1A9149"/>
<path d="M1290.45 168.468H1279.18V179.721H1290.45V168.468Z" fill="#4CA52D"/>
<path d="M1290.45 157.215H1279.18V168.468H1290.45V157.215Z" fill="#414042"/>
<path d="M1290.45 145.962H1279.18V157.215H1290.45V145.962Z" fill="white"/>
<path d="M1290.45 134.788H1279.18V146.041H1290.45V134.788Z" fill="white"/>
<path d="M1290.45 123.535H1279.18V134.788H1290.45V123.535Z" fill="#FFD5AD"/>
<path d="M1290.45 112.361H1279.18V123.614H1290.45V112.361Z" fill="#FFD5AD"/>
<path d="M1290.45 101.107H1279.18V112.361H1290.45V101.107Z" fill="#FFD5AD"/>
<path d="M1290.45 89.8542H1279.18V101.107H1290.45V89.8542Z" fill="#FFD5AD"/>
<path d="M1290.45 78.6804H1279.18V89.9336H1290.45V78.6804Z" fill="#4CA52D"/>
<path d="M1290.45 67.4272H1279.18V78.6804H1290.45V67.4272Z" fill="#1A9149"/>
<path d="M1290.45 56.2532H1279.18V67.5064H1290.45V56.2532Z" fill="white"/>
<path d="M1290.45 45H1279.18V56.2532H1290.45V45Z" fill="#4CA52D"/>
<path d="M1279.26 224.575H1267.99V235.829H1279.26V224.575Z" fill="#4CA52D"/>
<path d="M1279.26 213.322H1267.99V224.575H1279.26V213.322Z" fill="#4CA52D"/>
<path d="M1279.26 202.069H1267.99V213.322H1279.26V202.069Z" fill="#4CA52D"/>
<path d="M1279.26 190.895H1267.99V202.148H1279.26V190.895Z" fill="#4CA52D"/>
<path d="M1279.26 179.642H1267.99V190.895H1279.26V179.642Z" fill="#4CA52D"/>
<path d="M1279.26 168.468H1267.99V179.721H1279.26V168.468Z" fill="#4CA52D"/>
<path d="M1279.26 157.215H1267.99V168.468H1279.26V157.215Z" fill="#414042"/>
<path d="M1279.26 145.962H1267.99V157.215H1279.26V145.962Z" fill="#FFD5AD"/>
<path d="M1279.26 134.788H1267.99V146.041H1279.26V134.788Z" fill="white"/>
<path d="M1279.26 123.535H1267.99V134.788H1279.26V123.535Z" fill="#FFD5AD"/>
<path d="M1279.26 112.361H1267.99V123.614H1279.26V112.361Z" fill="white"/>
<path d="M1279.26 101.107H1267.99V112.361H1279.26V101.107Z" fill="#414042"/>
<path d="M1279.26 89.8542H1267.99V101.107H1279.26V89.8542Z" fill="#414042"/>
<path d="M1279.26 78.6804H1267.99V89.9336H1279.26V78.6804Z" fill="#414042"/>
<path d="M1279.26 67.4272H1267.99V78.6804H1279.26V67.4272Z" fill="#4CA52D"/>
<path d="M1279.26 56.2532H1267.99V67.5064H1279.26V56.2532Z" fill="#4CA52D"/>
<path d="M1267.99 224.575H1256.72V235.829H1267.99V224.575Z" fill="#4CA52D"/>
<path d="M1267.99 213.322H1256.72V224.575H1267.99V213.322Z" fill="#4CA52D"/>
<path d="M1267.99 202.069H1256.72V213.322H1267.99V202.069Z" fill="#4CA52D"/>
<path d="M1267.99 190.895H1256.72V202.148H1267.99V190.895Z" fill="#4CA52D"/>
<path d="M1267.99 179.642H1256.72V190.895H1267.99V179.642Z" fill="#4CA52D"/>
<path d="M1267.99 168.468H1256.72V179.721H1267.99V168.468Z" fill="#4CA52D"/>
<path d="M1267.99 157.215H1256.72V168.468H1267.99V157.215Z" fill="#414042"/>
<path d="M1267.99 145.962H1256.72V157.215H1267.99V145.962Z" fill="#FFD5AD"/>
<path d="M1267.99 134.788H1256.72V146.041H1267.99V134.788Z" fill="#FFD5AD"/>
<path d="M1267.99 123.535H1256.72V134.788H1267.99V123.535Z" fill="#FFD5AD"/>
<path d="M1267.99 112.361H1256.72V123.614H1267.99V112.361Z" fill="white"/>
<path d="M1267.99 101.107H1256.72V112.361H1267.99V101.107Z" fill="#414042"/>
<path d="M1267.99 89.8542H1256.72V101.107H1267.99V89.8542Z" fill="white"/>
<path d="M1267.99 78.6804H1256.72V89.9336H1267.99V78.6804Z" fill="#414042"/>
<path d="M1267.99 67.4272H1256.72V78.6804H1267.99V67.4272Z" fill="#414042"/>
<path d="M1267.99 56.2532H1256.72V67.5064H1267.99V56.2532Z" fill="#414042"/>
<path d="M1256.73 224.575H1245.46V235.829H1256.73V224.575Z" fill="#4CA52D"/>
<path d="M1256.73 213.322H1245.46V224.575H1256.73V213.322Z" fill="#1A9149"/>
<path d="M1256.73 202.069H1245.46V213.322H1256.73V202.069Z" fill="#1A9149"/>
<path d="M1256.73 190.895H1245.46V202.148H1256.73V190.895Z" fill="#1A9149"/>
<path d="M1256.73 179.642H1245.46V190.895H1256.73V179.642Z" fill="#4CA52D"/>
<path d="M1256.73 168.468H1245.46V179.721H1256.73V168.468Z" fill="#4CA52D"/>
<path d="M1256.73 134.788H1245.46V146.041H1256.73V134.788Z" fill="#FFD5AD"/>
<path d="M1256.73 123.535H1245.46V134.788H1256.73V123.535Z" fill="#FFD5AD"/>
<path d="M1256.73 112.361H1245.46V123.614H1256.73V112.361Z" fill="#FFD5AD"/>
<path d="M1256.73 101.107H1245.46V112.361H1256.73V101.107Z" fill="#FFD5AD"/>
<path d="M1256.73 89.8542H1245.46V101.107H1256.73V89.8542Z" fill="#FFD5AD"/>
<path d="M1256.73 78.6804H1245.46V89.9336H1256.73V78.6804Z" fill="#414042"/>
<path d="M1256.73 67.4272H1245.46V78.6804H1256.73V67.4272Z" fill="#414042"/>
<path d="M1245.54 224.575H1234.27V235.829H1245.54V224.575Z" fill="#FFD5AD"/>
<path d="M1245.54 213.322H1234.27V224.575H1245.54V213.322Z" fill="#FFD5AD"/>
<path d="M1245.54 202.069H1234.27V213.322H1245.54V202.069Z" fill="#1A9149"/>
<path d="M1245.54 190.895H1234.27V202.148H1245.54V190.895Z" fill="#1A9149"/>
<path d="M1245.54 179.642H1234.27V190.895H1245.54V179.642Z" fill="#4CA52D"/>
<path d="M1245.54 112.361H1234.27V123.614H1245.54V112.361Z" fill="#FFD5AD"/>
<path d="M1245.54 101.107H1234.27V112.361H1245.54V101.107Z" fill="#FFD5AD"/>
<path d="M1245.54 89.8542H1234.27V101.107H1245.54V89.8542Z" fill="#594A42"/>
<path d="M1234.27 224.575H1223V235.829H1234.27V224.575Z" fill="#FFD5AD"/>
<path d="M1234.27 213.322H1223V224.575H1234.27V213.322Z" fill="#FFD5AD"/>
<path d="M1234.27 202.069H1223V213.322H1234.27V202.069Z" fill="#4CA52D"/>
<path d="M1234.27 190.895H1223V202.148H1234.27V190.895Z" fill="#4CA52D"/>
<path d="M134.898 223.162H123.63V234.415H134.898V223.162Z" fill="#FFD5AD"/>
<path d="M134.898 211.909H123.63V223.162H134.898V211.909Z" fill="#FFD5AD"/>
<path d="M134.898 200.656H123.63V211.909H134.898V200.656Z" fill="#27AAE1"/>
<path d="M134.898 189.482H123.63V200.735H134.898V189.482Z" fill="#27AAE1"/>
<path d="M123.63 223.162H112.362V234.415H123.63V223.162Z" fill="#FFD5AD"/>
<path d="M123.63 211.909H112.362V223.162H123.63V211.909Z" fill="#FFD5AD"/>
<path d="M123.63 200.656H112.362V211.909H123.63V200.656Z" fill="#57C0E5"/>
<path d="M123.63 189.482H112.362V200.735H123.63V189.482Z" fill="#57C0E5"/>
<path d="M123.63 178.229H112.362V189.482H123.63V178.229Z" fill="#27AAE1"/>
<path d="M123.63 110.947H112.362V122.2H123.63V110.947Z" fill="#FFD5AD"/>
<path d="M123.63 99.6938H112.362V110.947H123.63V99.6938Z" fill="#FFD5AD"/>
<path d="M123.63 88.4407H112.362V99.6939H123.63V88.4407Z" fill="#594A42"/>
<path d="M112.442 223.162H101.174V234.415H112.442V223.162Z" fill="#27AAE1"/>
<path d="M112.442 211.909H101.174V223.162H112.442V211.909Z" fill="#57C0E5"/>
<path d="M112.442 200.656H101.174V211.909H112.442V200.656Z" fill="#57C0E5"/>
<path d="M112.442 189.482H101.174V200.735H112.442V189.482Z" fill="#57C0E5"/>
<path d="M112.442 178.229H101.174V189.482H112.442V178.229Z" fill="#27AAE1"/>
<path d="M112.442 167.054H101.174V178.308H112.442V167.054Z" fill="#27AAE1"/>
<path d="M112.442 133.374H101.174V144.627H112.442V133.374Z" fill="#FFD5AD"/>
<path d="M112.442 122.121H101.174V133.374H112.442V122.121Z" fill="#FFD5AD"/>
<path d="M112.442 110.947H101.174V122.2H112.442V110.947Z" fill="#FFD5AD"/>
<path d="M112.442 99.6938H101.174V110.947H112.442V99.6938Z" fill="#FFD5AD"/>
<path d="M112.442 88.4407H101.174V99.6939H112.442V88.4407Z" fill="#FFD5AD"/>
<path d="M112.442 77.2668H101.174V88.52H112.442V77.2668Z" fill="#414042"/>
<path d="M112.442 66.0137H101.174V77.2669H112.442V66.0137Z" fill="#414042"/>
<path d="M101.173 223.162H89.9053V234.415H101.173V223.162Z" fill="#27AAE1"/>
<path d="M101.173 211.909H89.9053V223.162H101.173V211.909Z" fill="#27AAE1"/>
<path d="M101.173 200.656H89.9053V211.909H101.173V200.656Z" fill="#27AAE1"/>
<path d="M101.173 189.482H89.9053V200.735H101.173V189.482Z" fill="#27AAE1"/>
<path d="M101.173 178.229H89.9053V189.482H101.173V178.229Z" fill="#27AAE1"/>
<path d="M101.173 167.054H89.9053V178.308H101.173V167.054Z" fill="#27AAE1"/>
<path d="M101.173 155.801H89.9053V167.054H101.173V155.801Z" fill="#414042"/>
<path d="M101.173 144.548H89.9053V155.801H101.173V144.548Z" fill="#FFD5AD"/>
<path d="M101.173 133.374H89.9053V144.627H101.173V133.374Z" fill="#FFD5AD"/>
<path d="M101.173 122.121H89.9053V133.374H101.173V122.121Z" fill="#FFD5AD"/>
<path d="M101.173 110.947H89.9053V122.2H101.173V110.947Z" fill="white"/>
<path d="M101.173 99.6938H89.9053V110.947H101.173V99.6938Z" fill="#414042"/>
<path d="M101.173 88.4407H89.9053V99.6939H101.173V88.4407Z" fill="#414042"/>
<path d="M101.173 77.2668H89.9053V88.52H101.173V77.2668Z" fill="#414042"/>
<path d="M101.173 66.0137H89.9053V77.2669H101.173V66.0137Z" fill="#414042"/>
<path d="M101.173 54.8396H89.9053V66.0928H101.173V54.8396Z" fill="#414042"/>
<path d="M89.9057 223.162H78.6377V234.415H89.9057V223.162Z" fill="#27AAE1"/>
<path d="M89.9057 211.909H78.6377V223.162H89.9057V211.909Z" fill="#27AAE1"/>
<path d="M89.9057 200.656H78.6377V211.909H89.9057V200.656Z" fill="#27AAE1"/>
<path d="M89.9057 189.482H78.6377V200.735H89.9057V189.482Z" fill="#27AAE1"/>
<path d="M89.9057 178.229H78.6377V189.482H89.9057V178.229Z" fill="#27AAE1"/>
<path d="M89.9057 167.054H78.6377V178.308H89.9057V167.054Z" fill="#27AAE1"/>
<path d="M89.9057 155.801H78.6377V167.054H89.9057V155.801Z" fill="#414042"/>
<path d="M89.9057 144.548H78.6377V155.801H89.9057V144.548Z" fill="#FFD5AD"/>
<path d="M89.9057 133.374H78.6377V144.627H89.9057V133.374Z" fill="white"/>
<path d="M89.9057 122.121H78.6377V133.374H89.9057V122.121Z" fill="#FFD5AD"/>
<path d="M89.9057 110.947H78.6377V122.2H89.9057V110.947Z" fill="white"/>
<path d="M89.9057 99.6938H78.6377V110.947H89.9057V99.6938Z" fill="#414042"/>
<path d="M89.9057 88.4407H78.6377V99.6939H89.9057V88.4407Z" fill="white"/>
<path d="M89.9057 77.2668H78.6377V88.52H89.9057V77.2668Z" fill="#414042"/>
<path d="M89.9057 66.0137H78.6377V77.2669H89.9057V66.0137Z" fill="#27AAE1"/>
<path d="M89.9057 54.8396H78.6377V66.0928H89.9057V54.8396Z" fill="#27AAE1"/>
<path d="M78.7172 223.162H67.4492V234.415H78.7172V223.162Z" fill="#00A79D"/>
<path d="M78.7172 211.909H67.4492V223.162H78.7172V211.909Z" fill="#00A79D"/>
<path d="M78.7172 200.656H67.4492V211.909H78.7172V200.656Z" fill="#57C0E5"/>
<path d="M78.7172 189.482H67.4492V200.735H78.7172V189.482Z" fill="#57C0E5"/>
<path d="M78.7172 178.229H67.4492V189.482H78.7172V178.229Z" fill="#57C0E5"/>
<path d="M78.7172 167.054H67.4492V178.308H78.7172V167.054Z" fill="#27AAE1"/>
<path d="M78.7172 155.801H67.4492V167.054H78.7172V155.801Z" fill="#414042"/>
<path d="M78.7172 144.548H67.4492V155.801H78.7172V144.548Z" fill="white"/>
<path d="M78.7172 133.374H67.4492V144.627H78.7172V133.374Z" fill="white"/>
<path d="M78.7172 122.121H67.4492V133.374H78.7172V122.121Z" fill="#FFD5AD"/>
<path d="M78.7172 110.947H67.4492V122.2H78.7172V110.947Z" fill="#FFD5AD"/>
<path d="M78.7172 99.6938H67.4492V110.947H78.7172V99.6938Z" fill="#FFD5AD"/>
<path d="M78.7172 88.4407H67.4492V99.6939H78.7172V88.4407Z" fill="#FFD5AD"/>
<path d="M78.7172 77.2668H67.4492V88.52H78.7172V77.2668Z" fill="#27AAE1"/>
<path d="M78.7172 66.0137H67.4492V77.2669H78.7172V66.0137Z" fill="#57C0E5"/>
<path d="M78.7172 54.8396H67.4492V66.0928H78.7172V54.8396Z" fill="#57C0E5"/>
<path d="M78.7172 43.5864H67.4492V54.8396H78.7172V43.5864Z" fill="#27AAE1"/>
<path d="M67.4496 223.162H56.1816V234.415H67.4496V223.162Z" fill="#00A79D"/>
<path d="M67.4496 211.909H56.1816V223.162H67.4496V211.909Z" fill="#00A79D"/>
<path d="M67.4496 200.656H56.1816V211.909H67.4496V200.656Z" fill="#57C0E5"/>
<path d="M67.4496 189.482H56.1816V200.735H67.4496V189.482Z" fill="#57C0E5"/>
<path d="M67.4496 178.229H56.1816V189.482H67.4496V178.229Z" fill="#57C0E5"/>
<path d="M67.4496 167.054H56.1816V178.308H67.4496V167.054Z" fill="#27AAE1"/>
<path d="M67.4496 155.801H56.1816V167.054H67.4496V155.801Z" fill="#414042"/>
<path d="M67.4496 144.548H56.1816V155.801H67.4496V144.548Z" fill="white"/>
<path d="M67.4496 133.374H56.1816V144.627H67.4496V133.374Z" fill="white"/>
<path d="M67.4496 122.121H56.1816V133.374H67.4496V122.121Z" fill="#FFD5AD"/>
<path d="M67.4496 110.947H56.1816V122.2H67.4496V110.947Z" fill="#FFD5AD"/>
<path d="M67.4496 99.6938H56.1816V110.947H67.4496V99.6938Z" fill="#FFD5AD"/>
<path d="M67.4496 88.4407H56.1816V99.6939H67.4496V88.4407Z" fill="#FFD5AD"/>
<path d="M67.4496 77.2668H56.1816V88.52H67.4496V77.2668Z" fill="#27AAE1"/>
<path d="M67.4496 66.0137H56.1816V77.2669H67.4496V66.0137Z" fill="#57C0E5"/>
<path d="M67.4496 54.8396H56.1816V66.0928H67.4496V54.8396Z" fill="white"/>
<path d="M67.4496 43.5864H56.1816V54.8396H67.4496V43.5864Z" fill="#27AAE1"/>
<path d="M56.2602 223.162H44.9922V234.415H56.2602V223.162Z" fill="#27AAE1"/>
<path d="M56.2602 211.909H44.9922V223.162H56.2602V211.909Z" fill="#27AAE1"/>
<path d="M56.2602 200.656H44.9922V211.909H56.2602V200.656Z" fill="#27AAE1"/>
<path d="M56.2602 189.482H44.9922V200.735H56.2602V189.482Z" fill="#27AAE1"/>
<path d="M56.2602 178.229H44.9922V189.482H56.2602V178.229Z" fill="#27AAE1"/>
<path d="M56.2602 167.054H44.9922V178.308H56.2602V167.054Z" fill="#27AAE1"/>
<path d="M56.2602 155.801H44.9922V167.054H56.2602V155.801Z" fill="#414042"/>
<path d="M56.2602 144.548H44.9922V155.801H56.2602V144.548Z" fill="#FFD5AD"/>
<path d="M56.2602 133.374H44.9922V144.627H56.2602V133.374Z" fill="white"/>
<path d="M56.2602 122.121H44.9922V133.374H56.2602V122.121Z" fill="#FFD5AD"/>
<path d="M56.2602 110.947H44.9922V122.2H56.2602V110.947Z" fill="white"/>
<path d="M56.2602 99.6938H44.9922V110.947H56.2602V99.6938Z" fill="#414042"/>
<path d="M56.2602 88.4407H44.9922V99.6939H56.2602V88.4407Z" fill="#414042"/>
<path d="M56.2602 77.2668H44.9922V88.52H56.2602V77.2668Z" fill="#414042"/>
<path d="M56.2602 66.0137H44.9922V77.2669H56.2602V66.0137Z" fill="#27AAE1"/>
<path d="M56.2602 54.8396H44.9922V66.0928H56.2602V54.8396Z" fill="#27AAE1"/>
<path d="M44.9926 223.162H33.7246V234.415H44.9926V223.162Z" fill="#27AAE1"/>
<path d="M44.9926 211.909H33.7246V223.162H44.9926V211.909Z" fill="#27AAE1"/>
<path d="M44.9926 200.656H33.7246V211.909H44.9926V200.656Z" fill="#27AAE1"/>
<path d="M44.9926 189.482H33.7246V200.735H44.9926V189.482Z" fill="#27AAE1"/>
<path d="M44.9926 178.229H33.7246V189.482H44.9926V178.229Z" fill="#27AAE1"/>
<path d="M44.9926 167.054H33.7246V178.308H44.9926V167.054Z" fill="#27AAE1"/>
<path d="M44.9926 155.801H33.7246V167.054H44.9926V155.801Z" fill="#414042"/>
<path d="M44.9926 144.548H33.7246V155.801H44.9926V144.548Z" fill="#FFD5AD"/>
<path d="M44.9926 133.374H33.7246V144.627H44.9926V133.374Z" fill="#FFD5AD"/>
<path d="M44.9926 122.121H33.7246V133.374H44.9926V122.121Z" fill="#FFD5AD"/>
<path d="M44.9926 110.947H33.7246V122.2H44.9926V110.947Z" fill="white"/>
<path d="M44.9926 99.6938H33.7246V110.947H44.9926V99.6938Z" fill="#414042"/>
<path d="M44.9926 88.4407H33.7246V99.6939H44.9926V88.4407Z" fill="white"/>
<path d="M44.9926 77.2668H33.7246V88.52H44.9926V77.2668Z" fill="#414042"/>
<path d="M44.9926 66.0137H33.7246V77.2669H44.9926V66.0137Z" fill="#414042"/>
<path d="M44.9926 54.8396H33.7246V66.0928H44.9926V54.8396Z" fill="#414042"/>
<path d="M33.725 223.162H22.457V234.415H33.725V223.162Z" fill="#27AAE1"/>
<path d="M33.725 211.909H22.457V223.162H33.725V211.909Z" fill="#57C0E5"/>
<path d="M33.725 200.656H22.457V211.909H33.725V200.656Z" fill="#57C0E5"/>
<path d="M33.725 189.482H22.457V200.735H33.725V189.482Z" fill="#57C0E5"/>
<path d="M33.725 178.229H22.457V189.482H33.725V178.229Z" fill="#27AAE1"/>
<path d="M33.725 167.054H22.457V178.308H33.725V167.054Z" fill="#27AAE1"/>
<path d="M33.725 133.374H22.457V144.627H33.725V133.374Z" fill="#FFD5AD"/>
<path d="M33.725 122.121H22.457V133.374H33.725V122.121Z" fill="#FFD5AD"/>
<path d="M33.725 110.947H22.457V122.2H33.725V110.947Z" fill="#FFD5AD"/>
<path d="M33.725 99.6938H22.457V110.947H33.725V99.6938Z" fill="#FFD5AD"/>
<path d="M33.725 88.4407H22.457V99.6939H33.725V88.4407Z" fill="#FFD5AD"/>
<path d="M33.725 77.2668H22.457V88.52H33.725V77.2668Z" fill="#414042"/>
<path d="M33.725 66.0137H22.457V77.2669H33.725V66.0137Z" fill="#414042"/>
<path d="M22.5355 223.162H11.2676V234.415H22.5355V223.162Z" fill="#FFD5AD"/>
<path d="M22.5355 211.909H11.2676V223.162H22.5355V211.909Z" fill="#FFD5AD"/>
<path d="M22.5355 200.656H11.2676V211.909H22.5355V200.656Z" fill="#57C0E5"/>
<path d="M22.5355 189.482H11.2676V200.735H22.5355V189.482Z" fill="#57C0E5"/>
<path d="M22.5355 178.229H11.2676V189.482H22.5355V178.229Z" fill="#27AAE1"/>
<path d="M22.5355 110.947H11.2676V122.2H22.5355V110.947Z" fill="#FFD5AD"/>
<path d="M22.5355 99.6938H11.2676V110.947H22.5355V99.6938Z" fill="#FFD5AD"/>
<path d="M22.5355 88.4407H11.2676V99.6939H22.5355V88.4407Z" fill="#594A42"/>
<path d="M11.268 223.162H0V234.415H11.268V223.162Z" fill="#FFD5AD"/>
<path d="M11.268 211.909H0V223.162H11.268V211.909Z" fill="#FFD5AD"/>
<path d="M11.268 200.656H0V211.909H11.268V200.656Z" fill="#27AAE1"/>
<path d="M11.268 189.482H0V200.735H11.268V189.482Z" fill="#27AAE1"/>
<path d="M319.717 223.162H308.449V234.415H319.717V223.162Z" fill="#FFD5AD"/>
<path d="M319.717 211.909H308.449V223.162H319.717V211.909Z" fill="#FFD5AD"/>
<path d="M319.717 200.656H308.449V211.909H319.717V200.656Z" fill="#052A60"/>
<path d="M319.717 189.482H308.449V200.735H319.717V189.482Z" fill="#052A60"/>
<path d="M308.529 223.162H297.261V234.415H308.529V223.162Z" fill="#F7941E"/>
<path d="M308.529 211.909H297.261V223.162H308.529V211.909Z" fill="#594A42"/>
<path d="M308.529 200.656H297.261V211.909H308.529V200.656Z" fill="#052A60"/>
<path d="M308.529 189.482H297.261V200.735H308.529V189.482Z" fill="#052A60"/>
<path d="M308.529 178.229H297.261V189.482H308.529V178.229Z" fill="#052A60"/>
<path d="M308.529 110.947H297.261V122.2H308.529V110.947Z" fill="#FFD5AD"/>
<path d="M308.529 99.6938H297.261V110.947H308.529V99.6938Z" fill="#FFD5AD"/>
<path d="M308.529 88.4407H297.261V99.6939H308.529V88.4407Z" fill="#594A42"/>
<path d="M308.529 77.2668H297.261V88.52H308.529V77.2668Z" fill="#F7941E"/>
<path d="M297.26 223.162H285.992V234.415H297.26V223.162Z" fill="#F7941E"/>
<path d="M297.26 211.909H285.992V223.162H297.26V211.909Z" fill="#F7941E"/>
<path d="M297.26 200.656H285.992V211.909H297.26V200.656Z" fill="#F7941E"/>
<path d="M297.26 189.482H285.992V200.735H297.26V189.482Z" fill="#F7941E"/>
<path d="M297.26 178.229H285.992V189.482H297.26V178.229Z" fill="#F7941E"/>
<path d="M297.26 167.054H285.992V178.308H297.26V167.054Z" fill="#F7941E"/>
<path d="M297.26 133.374H285.992V144.627H297.26V133.374Z" fill="#FFD5AD"/>
<path d="M297.26 122.121H285.992V133.374H297.26V122.121Z" fill="#FFD5AD"/>
<path d="M297.26 110.947H285.992V122.2H297.26V110.947Z" fill="#FFD5AD"/>
<path d="M297.26 99.6938H285.992V110.947H297.26V99.6938Z" fill="#FFD5AD"/>
<path d="M297.26 88.4407H285.992V99.6939H297.26V88.4407Z" fill="#FFD5AD"/>
<path d="M297.26 77.2668H285.992V88.52H297.26V77.2668Z" fill="#F7941E"/>
<path d="M297.26 66.0137H285.992V77.2669H297.26V66.0137Z" fill="#F7941E"/>
<path d="M285.993 223.162H274.725V234.415H285.993V223.162Z" fill="#F7941E"/>
<path d="M285.993 211.909H274.725V223.162H285.993V211.909Z" fill="#FBB040"/>
<path d="M285.993 200.656H274.725V211.909H285.993V200.656Z" fill="#FBB040"/>
<path d="M285.993 189.482H274.725V200.735H285.993V189.482Z" fill="#FBB040"/>
<path d="M285.993 178.229H274.725V189.482H285.993V178.229Z" fill="#052A60"/>
<path d="M285.993 167.054H274.725V178.308H285.993V167.054Z" fill="#052A60"/>
<path d="M285.993 155.801H274.725V167.054H285.993V155.801Z" fill="#052A60"/>
<path d="M285.993 144.548H274.725V155.801H285.993V144.548Z" fill="#FFD5AD"/>
<path d="M285.993 133.374H274.725V144.627H285.993V133.374Z" fill="#FFD5AD"/>
<path d="M285.993 122.121H274.725V133.374H285.993V122.121Z" fill="#FFD5AD"/>
<path d="M285.993 110.947H274.725V122.2H285.993V110.947Z" fill="white"/>
<path d="M285.993 99.6938H274.725V110.947H285.993V99.6938Z" fill="#414042"/>
<path d="M285.993 88.4407H274.725V99.6939H285.993V88.4407Z" fill="#414042"/>
<path d="M285.993 77.2668H274.725V88.52H285.993V77.2668Z" fill="#F7941E"/>
<path d="M285.993 66.0137H274.725V77.2669H285.993V66.0137Z" fill="#F7941E"/>
<path d="M285.993 54.8396H274.725V66.0928H285.993V54.8396Z" fill="#F7941E"/>
<path d="M274.804 223.162H263.536V234.415H274.804V223.162Z" fill="#F7941E"/>
<path d="M274.804 211.909H263.536V223.162H274.804V211.909Z" fill="#FBB040"/>
<path d="M274.804 200.656H263.536V211.909H274.804V200.656Z" fill="#FBB040"/>
<path d="M274.804 189.482H263.536V200.735H274.804V189.482Z" fill="#052A60"/>
<path d="M274.804 178.229H263.536V189.482H274.804V178.229Z" fill="#052A60"/>
<path d="M274.804 167.054H263.536V178.308H274.804V167.054Z" fill="#052A60"/>
<path d="M274.804 155.801H263.536V167.054H274.804V155.801Z" fill="#E5B085"/>
<path d="M274.804 144.548H263.536V155.801H274.804V144.548Z" fill="#FFD5AD"/>
<path d="M274.804 133.374H263.536V144.627H274.804V133.374Z" fill="white"/>
<path d="M274.804 122.121H263.536V133.374H274.804V122.121Z" fill="#FFD5AD"/>
<path d="M274.804 110.947H263.536V122.2H274.804V110.947Z" fill="white"/>
<path d="M274.804 99.6938H263.536V110.947H274.804V99.6938Z" fill="#414042"/>
<path d="M274.804 88.4407H263.536V99.6939H274.804V88.4407Z" fill="white"/>
<path d="M274.804 77.2668H263.536V88.52H274.804V77.2668Z" fill="#FBB040"/>
<path d="M274.804 66.0137H263.536V77.2669H274.804V66.0137Z" fill="#FBB040"/>
<path d="M274.804 54.8396H263.536V66.0928H274.804V54.8396Z" fill="#FBB040"/>
<path d="M263.536 223.162H252.269V234.415H263.536V223.162Z" fill="#F7941E"/>
<path d="M263.536 211.909H252.269V223.162H263.536V211.909Z" fill="#FBB040"/>
<path d="M263.536 200.656H252.269V211.909H263.536V200.656Z" fill="#052A60"/>
<path d="M263.536 189.482H252.269V200.735H263.536V189.482Z" fill="#052A60"/>
<path d="M263.536 178.229H252.269V189.482H263.536V178.229Z" fill="#E5B085"/>
<path d="M263.536 167.054H252.269V178.308H263.536V167.054Z" fill="#E5B085"/>
<path d="M263.536 155.801H252.269V167.054H263.536V155.801Z" fill="#E5B085"/>
<path d="M263.536 144.548H252.269V155.801H263.536V144.548Z" fill="white"/>
<path d="M263.536 133.374H252.269V144.627H263.536V133.374Z" fill="white"/>
<path d="M263.536 122.121H252.269V133.374H263.536V122.121Z" fill="#594A42"/>
<path d="M263.536 110.947H252.269V122.2H263.536V110.947Z" fill="#FFD5AD"/>
<path d="M263.536 99.6938H252.269V110.947H263.536V99.6938Z" fill="#FFD5AD"/>
<path d="M263.536 88.4407H252.269V99.6939H263.536V88.4407Z" fill="#FFD5AD"/>
<path d="M263.536 77.2668H252.269V88.52H263.536V77.2668Z" fill="#FBB040"/>
<path d="M263.536 66.0137H252.269V77.2669H263.536V66.0137Z" fill="#F15A29"/>
<path d="M263.536 54.8396H252.269V66.0928H263.536V54.8396Z" fill="#F15A29"/>
<path d="M263.536 43.5864H252.269V54.8396H263.536V43.5864Z" fill="#F15A29"/>
<path d="M252.348 223.162H241.08V234.415H252.348V223.162Z" fill="#F7941E"/>
<path d="M252.348 211.909H241.08V223.162H252.348V211.909Z" fill="#FBB040"/>
<path d="M252.348 200.656H241.08V211.909H252.348V200.656Z" fill="#052A60"/>
<path d="M252.348 189.482H241.08V200.735H252.348V189.482Z" fill="#052A60"/>
<path d="M252.348 178.229H241.08V189.482H252.348V178.229Z" fill="#E5B085"/>
<path d="M252.348 167.054H241.08V178.308H252.348V167.054Z" fill="#E5B085"/>
<path d="M252.348 155.801H241.08V167.054H252.348V155.801Z" fill="#E5B085"/>
<path d="M252.348 144.548H241.08V155.801H252.348V144.548Z" fill="white"/>
<path d="M252.348 133.374H241.08V144.627H252.348V133.374Z" fill="white"/>
<path d="M252.348 122.121H241.08V133.374H252.348V122.121Z" fill="#594A42"/>
<path d="M252.348 110.947H241.08V122.2H252.348V110.947Z" fill="#FFD5AD"/>
<path d="M252.348 99.6938H241.08V110.947H252.348V99.6938Z" fill="#FFD5AD"/>
<path d="M252.348 88.4407H241.08V99.6939H252.348V88.4407Z" fill="#FFD5AD"/>
<path d="M252.348 77.2668H241.08V88.52H252.348V77.2668Z" fill="#FBB040"/>
<path d="M252.348 66.0137H241.08V77.2669H252.348V66.0137Z" fill="#F15A29"/>
<path d="M252.348 54.8396H241.08V66.0928H252.348V54.8396Z" fill="#F15A29"/>
<path d="M252.348 43.5864H241.08V54.8396H252.348V43.5864Z" fill="#F15A29"/>
<path d="M241.079 223.162H229.812V234.415H241.079V223.162Z" fill="#F7941E"/>
<path d="M241.079 211.909H229.812V223.162H241.079V211.909Z" fill="#FBB040"/>
<path d="M241.079 200.656H229.812V211.909H241.079V200.656Z" fill="#FBB040"/>
<path d="M241.079 189.482H229.812V200.735H241.079V189.482Z" fill="#052A60"/>
<path d="M241.079 178.229H229.812V189.482H241.079V178.229Z" fill="#052A60"/>
<path d="M241.079 167.054H229.812V178.308H241.079V167.054Z" fill="#052A60"/>
<path d="M241.079 155.801H229.812V167.054H241.079V155.801Z" fill="#E5B085"/>
<path d="M241.079 144.548H229.812V155.801H241.079V144.548Z" fill="#FFD5AD"/>
<path d="M241.079 133.374H229.812V144.627H241.079V133.374Z" fill="white"/>
<path d="M241.079 122.121H229.812V133.374H241.079V122.121Z" fill="#FFD5AD"/>
<path d="M241.079 110.947H229.812V122.2H241.079V110.947Z" fill="white"/>
<path d="M241.079 99.6938H229.812V110.947H241.079V99.6938Z" fill="#414042"/>
<path d="M241.079 88.4407H229.812V99.6939H241.079V88.4407Z" fill="#414042"/>
<path d="M241.079 77.2668H229.812V88.52H241.079V77.2668Z" fill="#FBB040"/>
<path d="M241.079 66.0137H229.812V77.2669H241.079V66.0137Z" fill="#FBB040"/>
<path d="M241.079 54.8396H229.812V66.0928H241.079V54.8396Z" fill="#FBB040"/>
<path d="M229.812 223.162H218.544V234.415H229.812V223.162Z" fill="#F7941E"/>
<path d="M229.812 211.909H218.544V223.162H229.812V211.909Z" fill="#FBB040"/>
<path d="M229.812 200.656H218.544V211.909H229.812V200.656Z" fill="#FBB040"/>
<path d="M229.812 189.482H218.544V200.735H229.812V189.482Z" fill="#FBB040"/>
<path d="M229.812 178.229H218.544V189.482H229.812V178.229Z" fill="#052A60"/>
<path d="M229.812 167.054H218.544V178.308H229.812V167.054Z" fill="#052A60"/>
<path d="M229.812 155.801H218.544V167.054H229.812V155.801Z" fill="#052A60"/>
<path d="M229.812 144.548H218.544V155.801H229.812V144.548Z" fill="#FFD5AD"/>
<path d="M229.812 133.374H218.544V144.627H229.812V133.374Z" fill="#FFD5AD"/>
<path d="M229.812 122.121H218.544V133.374H229.812V122.121Z" fill="#FFD5AD"/>
<path d="M229.812 110.947H218.544V122.2H229.812V110.947Z" fill="white"/>
<path d="M229.812 99.6938H218.544V110.947H229.812V99.6938Z" fill="#414042"/>
<path d="M229.812 88.4407H218.544V99.6939H229.812V88.4407Z" fill="white"/>
<path d="M229.812 77.2668H218.544V88.52H229.812V77.2668Z" fill="#F7941E"/>
<path d="M229.812 66.0137H218.544V77.2669H229.812V66.0137Z" fill="#F7941E"/>
<path d="M229.812 54.8396H218.544V66.0928H229.812V54.8396Z" fill="#F7941E"/>
<path d="M218.623 223.162H207.355V234.415H218.623V223.162Z" fill="#F7941E"/>
<path d="M218.623 211.909H207.355V223.162H218.623V211.909Z" fill="#F7941E"/>
<path d="M218.623 200.656H207.355V211.909H218.623V200.656Z" fill="#F7941E"/>
<path d="M218.623 189.482H207.355V200.735H218.623V189.482Z" fill="#F7941E"/>
<path d="M218.623 178.229H207.355V189.482H218.623V178.229Z" fill="#F7941E"/>
<path d="M218.623 167.054H207.355V178.308H218.623V167.054Z" fill="#F7941E"/>
<path d="M218.623 133.374H207.355V144.627H218.623V133.374Z" fill="#FFD5AD"/>
<path d="M218.623 122.121H207.355V133.374H218.623V122.121Z" fill="#FFD5AD"/>
<path d="M218.623 110.947H207.355V122.2H218.623V110.947Z" fill="#FFD5AD"/>
<path d="M218.623 99.6938H207.355V110.947H218.623V99.6938Z" fill="#FFD5AD"/>
<path d="M218.623 88.4407H207.355V99.6939H218.623V88.4407Z" fill="#FFD5AD"/>
<path d="M218.623 77.2668H207.355V88.52H218.623V77.2668Z" fill="#F7941E"/>
<path d="M218.623 66.0137H207.355V77.2669H218.623V66.0137Z" fill="#F7941E"/>
<path d="M207.355 223.162H196.087V234.415H207.355V223.162Z" fill="#F7941E"/>
<path d="M207.355 211.909H196.087V223.162H207.355V211.909Z" fill="#594A42"/>
<path d="M207.355 200.656H196.087V211.909H207.355V200.656Z" fill="#052A60"/>
<path d="M207.355 189.482H196.087V200.735H207.355V189.482Z" fill="#052A60"/>
<path d="M207.355 178.229H196.087V189.482H207.355V178.229Z" fill="#052A60"/>
<path d="M207.355 110.947H196.087V122.2H207.355V110.947Z" fill="#FFD5AD"/>
<path d="M207.355 99.6938H196.087V110.947H207.355V99.6938Z" fill="#FFD5AD"/>
<path d="M207.355 88.4407H196.087V99.6939H207.355V88.4407Z" fill="#594A42"/>
<path d="M207.355 77.2668H196.087V88.52H207.355V77.2668Z" fill="#F7941E"/>
<path d="M196.166 223.162H184.898V234.415H196.166V223.162Z" fill="#FFD5AD"/>
<path d="M196.166 211.909H184.898V223.162H196.166V211.909Z" fill="#FFD5AD"/>
<path d="M196.166 200.656H184.898V211.909H196.166V200.656Z" fill="#052A60"/>
<path d="M196.166 189.482H184.898V200.735H196.166V189.482Z" fill="#052A60"/>
<path d="M527.073 224.43H515.805V235.683H527.073V224.43Z" fill="#F7941E"/>
<path d="M527.073 213.256H515.805V224.509H527.073V213.256Z" fill="#FBB040"/>
<path d="M527.073 202.003H515.805V213.256H527.073V202.003Z" fill="#414042"/>
<path d="M527.073 190.75H515.805V202.003H527.073V190.75Z" fill="#B8956B"/>
<path d="M527.073 67.3608H515.805V78.614H527.073V67.3608Z" fill="#6D5F58"/>
<path d="M527.073 56.1077H515.805V67.3609H527.073V56.1077Z" fill="#6D5F58"/>
<path d="M527.073 44.9336H515.805V56.1868H527.073V44.9336Z" fill="#6D5F58"/>
<path d="M515.884 224.43H504.616V235.683H515.884V224.43Z" fill="#414042"/>
<path d="M515.884 213.256H504.616V224.509H515.884V213.256Z" fill="#414042"/>
<path d="M515.884 202.003H504.616V213.256H515.884V202.003Z" fill="#414042"/>
<path d="M515.884 190.75H504.616V202.003H515.884V190.75Z" fill="#B8956B"/>
<path d="M515.884 179.576H504.616V190.829H515.884V179.576Z" fill="#414042"/>
<path d="M515.884 67.3608H504.616V78.614H515.884V67.3608Z" fill="#6D5F58"/>
<path d="M515.884 56.1077H504.616V67.3609H515.884V56.1077Z" fill="#594A42"/>
<path d="M515.884 44.9336H504.616V56.1868H515.884V44.9336Z" fill="#594A42"/>
<path d="M504.616 224.43H493.348V235.683H504.616V224.43Z" fill="#FFD5AD"/>
<path d="M504.616 213.256H493.348V224.509H504.616V213.256Z" fill="#FFD5AD"/>
<path d="M504.616 202.003H493.348V213.256H504.616V202.003Z" fill="#B8956B"/>
<path d="M504.616 190.75H493.348V202.003H504.616V190.75Z" fill="#B8956B"/>
<path d="M504.616 179.576H493.348V190.829H504.616V179.576Z" fill="#414042"/>
<path d="M504.616 168.323H493.348V179.576H504.616V168.323Z" fill="#414042"/>
<path d="M504.616 112.215H493.348V123.468H504.616V112.215Z" fill="#FFD5AD"/>
<path d="M504.616 101.041H493.348V112.294H504.616V101.041Z" fill="#FFD5AD"/>
<path d="M504.616 89.7878H493.348V101.041H504.616V89.7878Z" fill="#594A42"/>
<path d="M504.616 78.5347H493.348V89.7879H504.616V78.5347Z" fill="#594A42"/>
<path d="M504.616 67.3608H493.348V78.614H504.616V67.3608Z" fill="#6D5F58"/>
<path d="M504.616 56.1077H493.348V67.3609H504.616V56.1077Z" fill="#594A42"/>
<path d="M493.427 224.43H482.159V235.683H493.427V224.43Z" fill="#B8956B"/>
<path d="M493.427 213.256H482.159V224.509H493.427V213.256Z" fill="#B8956B"/>
<path d="M493.427 202.003H482.159V213.256H493.427V202.003Z" fill="#B8956B"/>
<path d="M493.427 190.75H482.159V202.003H493.427V190.75Z" fill="#B8956B"/>
<path d="M493.427 179.576H482.159V190.829H493.427V179.576Z" fill="#B8956B"/>
<path d="M493.427 168.323H482.159V179.576H493.427V168.323Z" fill="#414042"/>
<path d="M493.427 134.642H482.159V145.895H493.427V134.642Z" fill="#FFD5AD"/>
<path d="M493.427 123.468H482.159V134.721H493.427V123.468Z" fill="#FFD5AD"/>
<path d="M493.427 112.215H482.159V123.468H493.427V112.215Z" fill="#FFD5AD"/>
<path d="M493.427 101.041H482.159V112.294H493.427V101.041Z" fill="#FFD5AD"/>
<path d="M493.427 89.7878H482.159V101.041H493.427V89.7878Z" fill="#FFD5AD"/>
<path d="M493.427 78.5347H482.159V89.7879H493.427V78.5347Z" fill="#594A42"/>
<path d="M493.427 67.3608H482.159V78.614H493.427V67.3608Z" fill="#594A42"/>
<path d="M493.427 56.1077H482.159V67.3609H493.427V56.1077Z" fill="#594A42"/>
<path d="M482.16 224.43H470.892V235.683H482.16V224.43Z" fill="#B8956B"/>
<path d="M482.16 213.256H470.892V224.509H482.16V213.256Z" fill="#B8956B"/>
<path d="M482.16 202.003H470.892V213.256H482.16V202.003Z" fill="#B8956B"/>
<path d="M482.16 190.75H470.892V202.003H482.16V190.75Z" fill="#B8956B"/>
<path d="M482.16 179.576H470.892V190.829H482.16V179.576Z" fill="#5E5E5E"/>
<path d="M482.16 168.323H470.892V179.576H482.16V168.323Z" fill="#B8956B"/>
<path d="M482.16 145.895H470.892V157.148H482.16V145.895Z" fill="#FFD5AD"/>
<path d="M482.16 134.642H470.892V145.895H482.16V134.642Z" fill="#FFD5AD"/>
<path d="M482.16 123.468H470.892V134.721H482.16V123.468Z" fill="#FFD5AD"/>
<path d="M482.16 112.215H470.892V123.468H482.16V112.215Z" fill="white"/>
<path d="M482.16 101.041H470.892V112.294H482.16V101.041Z" fill="#414042"/>
<path d="M482.16 89.7878H470.892V101.041H482.16V89.7878Z" fill="#414042"/>
<path d="M482.16 78.5347H470.892V89.7879H482.16V78.5347Z" fill="#594A42"/>
<path d="M482.16 67.3608H470.892V78.614H482.16V67.3608Z" fill="#594A42"/>
<path d="M482.16 56.1077H470.892V67.3609H482.16V56.1077Z" fill="#594A42"/>
<path d="M482.16 44.9336H470.892V56.1868H482.16V44.9336Z" fill="#594A42"/>
<path d="M482.16 33.6804H470.892V44.9336H482.16V33.6804Z" fill="#6D5F58"/>
<path d="M482.16 22.4272H470.892V33.6804H482.16V22.4272Z" fill="#6D5F58"/>
<path d="M470.891 224.43H459.623V235.683H470.891V224.43Z" fill="#B8956B"/>
<path d="M470.891 213.256H459.623V224.509H470.891V213.256Z" fill="#B8956B"/>
<path d="M470.891 202.003H459.623V213.256H470.891V202.003Z" fill="#B8956B"/>
<path d="M470.891 190.75H459.623V202.003H470.891V190.75Z" fill="#5E5E5E"/>
<path d="M470.891 179.576H459.623V190.829H470.891V179.576Z" fill="#414042"/>
<path d="M470.891 168.323H459.623V179.576H470.891V168.323Z" fill="#B8956B"/>
<path d="M470.891 157.148H459.623V168.402H470.891V157.148Z" fill="#E5B085"/>
<path d="M470.891 145.895H459.623V157.148H470.891V145.895Z" fill="#FFD5AD"/>
<path d="M470.891 134.642H459.623V145.895H470.891V134.642Z" fill="white"/>
<path d="M470.891 123.468H459.623V134.721H470.891V123.468Z" fill="#FFD5AD"/>
<path d="M470.891 112.215H459.623V123.468H470.891V112.215Z" fill="white"/>
<path d="M470.891 101.041H459.623V112.294H470.891V101.041Z" fill="#414042"/>
<path d="M470.891 89.7878H459.623V101.041H470.891V89.7878Z" fill="white"/>
<path d="M470.891 78.5347H459.623V89.7879H470.891V78.5347Z" fill="#594A42"/>
<path d="M470.891 67.3608H459.623V78.614H470.891V67.3608Z" fill="#594A42"/>
<path d="M470.891 56.1077H459.623V67.3609H470.891V56.1077Z" fill="#594A42"/>
<path d="M470.891 44.9336H459.623V56.1868H470.891V44.9336Z" fill="#F7941E"/>
<path d="M470.891 33.6804H459.623V44.9336H470.891V33.6804Z" fill="#594A42"/>
<path d="M470.891 22.4272H459.623V33.6804H470.891V22.4272Z" fill="#6D5F58"/>
<path d="M459.703 224.43H448.435V235.683H459.703V224.43Z" fill="#414042"/>
<path d="M459.703 213.256H448.435V224.509H459.703V213.256Z" fill="#414042"/>
<path d="M459.703 202.003H448.435V213.256H459.703V202.003Z" fill="#414042"/>
<path d="M459.703 190.75H448.435V202.003H459.703V190.75Z" fill="#414042"/>
<path d="M459.703 179.576H448.435V190.829H459.703V179.576Z" fill="#414042"/>
<path d="M459.703 168.323H448.435V179.576H459.703V168.323Z" fill="#E5B085"/>
<path d="M459.703 157.148H448.435V168.402H459.703V157.148Z" fill="#594A42"/>
<path d="M459.703 145.895H448.435V157.148H459.703V145.895Z" fill="white"/>
<path d="M459.703 134.642H448.435V145.895H459.703V134.642Z" fill="white"/>
<path d="M459.703 123.468H448.435V134.721H459.703V123.468Z" fill="#FFD5AD"/>
<path d="M459.703 112.215H448.435V123.468H459.703V112.215Z" fill="#FFD5AD"/>
<path d="M459.703 101.041H448.435V112.294H459.703V101.041Z" fill="#FFD5AD"/>
<path d="M459.703 89.7878H448.435V101.041H459.703V89.7878Z" fill="#FFD5AD"/>
<path d="M459.703 78.5347H448.435V89.7879H459.703V78.5347Z" fill="#594A42"/>
<path d="M459.703 67.3608H448.435V78.614H459.703V67.3608Z" fill="#594A42"/>
<path d="M459.703 56.1077H448.435V67.3609H459.703V56.1077Z" fill="#F7941E"/>
<path d="M459.703 44.9336H448.435V56.1868H459.703V44.9336Z" fill="#FBB040"/>
<path d="M459.703 33.6804H448.435V44.9336H459.703V33.6804Z" fill="#FBB040"/>
<path d="M459.703 22.4272H448.435V33.6804H459.703V22.4272Z" fill="#594A42"/>
<path d="M448.435 224.43H437.167V235.683H448.435V224.43Z" fill="#414042"/>
<path d="M448.435 213.256H437.167V224.509H448.435V213.256Z" fill="#414042"/>
<path d="M448.435 202.003H437.167V213.256H448.435V202.003Z" fill="#414042"/>
<path d="M448.435 190.75H437.167V202.003H448.435V190.75Z" fill="#414042"/>
<path d="M448.435 179.576H437.167V190.829H448.435V179.576Z" fill="#414042"/>
<path d="M448.435 168.323H437.167V179.576H448.435V168.323Z" fill="#E5B085"/>
<path d="M448.435 157.148H437.167V168.402H448.435V157.148Z" fill="#594A42"/>
<path d="M448.435 145.895H437.167V157.148H448.435V145.895Z" fill="white"/>
<path d="M448.435 134.642H437.167V145.895H448.435V134.642Z" fill="white"/>
<path d="M448.435 123.468H437.167V134.721H448.435V123.468Z" fill="#FFD5AD"/>
<path d="M448.435 112.215H437.167V123.468H448.435V112.215Z" fill="#FFD5AD"/>
<path d="M448.435 101.041H437.167V112.294H448.435V101.041Z" fill="#FFD5AD"/>
<path d="M448.435 89.7878H437.167V101.041H448.435V89.7878Z" fill="#FFD5AD"/>
<path d="M448.435 78.5347H437.167V89.7879H448.435V78.5347Z" fill="#594A42"/>
<path d="M448.435 67.3608H437.167V78.614H448.435V67.3608Z" fill="#594A42"/>
<path d="M448.435 56.1077H437.167V67.3609H448.435V56.1077Z" fill="#F7941E"/>
<path d="M448.435 44.9336H437.167V56.1868H448.435V44.9336Z" fill="#FBB040"/>
<path d="M448.435 33.6804H437.167V44.9336H448.435V33.6804Z" fill="#FBB040"/>
<path d="M448.435 22.4272H437.167V33.6804H448.435V22.4272Z" fill="#594A42"/>
<path d="M437.167 224.43H425.899V235.683H437.167V224.43Z" fill="#B8956B"/>
<path d="M437.167 213.256H425.899V224.509H437.167V213.256Z" fill="#B8956B"/>
<path d="M437.167 202.003H425.899V213.256H437.167V202.003Z" fill="#B8956B"/>
<path d="M437.167 190.75H425.899V202.003H437.167V190.75Z" fill="#5E5E5E"/>
<path d="M437.167 179.576H425.899V190.829H437.167V179.576Z" fill="#414042"/>
<path d="M437.167 168.323H425.899V179.576H437.167V168.323Z" fill="#B8956B"/>
<path d="M437.167 157.148H425.899V168.402H437.167V157.148Z" fill="#E5B085"/>
<path d="M437.167 145.895H425.899V157.148H437.167V145.895Z" fill="#FFD5AD"/>
<path d="M437.167 134.642H425.899V145.895H437.167V134.642Z" fill="white"/>
<path d="M437.167 123.468H425.899V134.721H437.167V123.468Z" fill="#FFD5AD"/>
<path d="M437.167 112.215H425.899V123.468H437.167V112.215Z" fill="white"/>
<path d="M437.167 101.041H425.899V112.294H437.167V101.041Z" fill="#414042"/>
<path d="M437.167 89.7878H425.899V101.041H437.167V89.7878Z" fill="#414042"/>
<path d="M437.167 78.5347H425.899V89.7879H437.167V78.5347Z" fill="#594A42"/>
<path d="M437.167 67.3608H425.899V78.614H437.167V67.3608Z" fill="#594A42"/>
<path d="M437.167 56.1077H425.899V67.3609H437.167V56.1077Z" fill="#594A42"/>
<path d="M437.167 44.9336H425.899V56.1868H437.167V44.9336Z" fill="#F7941E"/>
<path d="M437.167 33.6804H425.899V44.9336H437.167V33.6804Z" fill="#594A42"/>
<path d="M437.167 22.4272H425.899V33.6804H437.167V22.4272Z" fill="#594A42"/>
<path d="M425.978 224.43H414.71V235.683H425.978V224.43Z" fill="#B8956B"/>
<path d="M425.978 213.256H414.71V224.509H425.978V213.256Z" fill="#B8956B"/>
<path d="M425.978 202.003H414.71V213.256H425.978V202.003Z" fill="#B8956B"/>
<path d="M425.978 190.75H414.71V202.003H425.978V190.75Z" fill="#B8956B"/>
<path d="M425.978 179.576H414.71V190.829H425.978V179.576Z" fill="#5E5E5E"/>
<path d="M425.978 168.323H414.71V179.576H425.978V168.323Z" fill="#B8956B"/>
<path d="M425.978 145.895H414.71V157.148H425.978V145.895Z" fill="#FFD5AD"/>
<path d="M425.978 134.642H414.71V145.895H425.978V134.642Z" fill="#FFD5AD"/>
<path d="M425.978 123.468H414.71V134.721H425.978V123.468Z" fill="#FFD5AD"/>
<path d="M425.978 112.215H414.71V123.468H425.978V112.215Z" fill="white"/>
<path d="M425.978 101.041H414.71V112.294H425.978V101.041Z" fill="#414042"/>
<path d="M425.978 89.7878H414.71V101.041H425.978V89.7878Z" fill="white"/>
<path d="M425.978 78.5347H414.71V89.7879H425.978V78.5347Z" fill="#594A42"/>
<path d="M425.978 67.3608H414.71V78.614H425.978V67.3608Z" fill="#594A42"/>
<path d="M425.978 56.1077H414.71V67.3609H425.978V56.1077Z" fill="#594A42"/>
<path d="M425.978 44.9336H414.71V56.1868H425.978V44.9336Z" fill="#594A42"/>
<path d="M425.978 33.6804H414.71V44.9336H425.978V33.6804Z" fill="#594A42"/>
<path d="M425.978 22.4272H414.71V33.6804H425.978V22.4272Z" fill="#594A42"/>
<path d="M414.71 224.43H403.442V235.683H414.71V224.43Z" fill="#B8956B"/>
<path d="M414.71 213.256H403.442V224.509H414.71V213.256Z" fill="#B8956B"/>
<path d="M414.71 202.003H403.442V213.256H414.71V202.003Z" fill="#B8956B"/>
<path d="M414.71 190.75H403.442V202.003H414.71V190.75Z" fill="#B8956B"/>
<path d="M414.71 179.576H403.442V190.829H414.71V179.576Z" fill="#B8956B"/>
<path d="M414.71 168.323H403.442V179.576H414.71V168.323Z" fill="#414042"/>
<path d="M414.71 134.642H403.442V145.895H414.71V134.642Z" fill="#FFD5AD"/>
<path d="M414.71 123.468H403.442V134.721H414.71V123.468Z" fill="#FFD5AD"/>
<path d="M414.71 112.215H403.442V123.468H414.71V112.215Z" fill="#FFD5AD"/>
<path d="M414.71 101.041H403.442V112.294H414.71V101.041Z" fill="#FFD5AD"/>
<path d="M414.71 89.7878H403.442V101.041H414.71V89.7878Z" fill="#FFD5AD"/>
<path d="M414.71 78.5347H403.442V89.7879H414.71V78.5347Z" fill="#594A42"/>
<path d="M414.71 67.3608H403.442V78.614H414.71V67.3608Z" fill="#594A42"/>
<path d="M414.71 56.1077H403.442V67.3609H414.71V56.1077Z" fill="#594A42"/>
<path d="M403.522 224.43H392.254V235.683H403.522V224.43Z" fill="#FFD5AD"/>
<path d="M403.522 213.256H392.254V224.509H403.522V213.256Z" fill="#FFD5AD"/>
<path d="M403.522 202.003H392.254V213.256H403.522V202.003Z" fill="#B8956B"/>
<path d="M403.522 190.75H392.254V202.003H403.522V190.75Z" fill="#B8956B"/>
<path d="M403.522 179.576H392.254V190.829H403.522V179.576Z" fill="#414042"/>
<path d="M403.522 168.323H392.254V179.576H403.522V168.323Z" fill="#414042"/>
<path d="M403.522 112.215H392.254V123.468H403.522V112.215Z" fill="#FFD5AD"/>
<path d="M403.522 101.041H392.254V112.294H403.522V101.041Z" fill="#FFD5AD"/>
<path d="M403.522 89.7878H392.254V101.041H403.522V89.7878Z" fill="#594A42"/>
<path d="M403.522 78.5347H392.254V89.7879H403.522V78.5347Z" fill="#594A42"/>
<path d="M403.522 67.3608H392.254V78.614H403.522V67.3608Z" fill="#6D5F58"/>
<path d="M403.522 56.1077H392.254V67.3609H403.522V56.1077Z" fill="#594A42"/>
<path d="M392.253 224.43H380.985V235.683H392.253V224.43Z" fill="#414042"/>
<path d="M392.253 213.256H380.985V224.509H392.253V213.256Z" fill="#414042"/>
<path d="M392.253 202.003H380.985V213.256H392.253V202.003Z" fill="#414042"/>
<path d="M392.253 190.75H380.985V202.003H392.253V190.75Z" fill="#B8956B"/>
<path d="M392.253 179.576H380.985V190.829H392.253V179.576Z" fill="#414042"/>
<path d="M392.253 67.3608H380.985V78.614H392.253V67.3608Z" fill="#6D5F58"/>
<path d="M392.253 56.1077H380.985V67.3609H392.253V56.1077Z" fill="#594A42"/>
<path d="M392.253 44.9336H380.985V56.1868H392.253V44.9336Z" fill="#594A42"/>
<path d="M380.986 224.43H369.718V235.683H380.986V224.43Z" fill="#F7941E"/>
<path d="M380.986 213.256H369.718V224.509H380.986V213.256Z" fill="#FBB040"/>
<path d="M380.986 202.003H369.718V213.256H380.986V202.003Z" fill="#414042"/>
<path d="M380.986 190.75H369.718V202.003H380.986V190.75Z" fill="#B8956B"/>
<path d="M380.986 67.3608H369.718V78.614H380.986V67.3608Z" fill="#6D5F58"/>
<path d="M380.986 56.1077H369.718V67.3609H380.986V56.1077Z" fill="#6D5F58"/>
<path d="M380.986 44.9336H369.718V56.1868H380.986V44.9336Z" fill="#6D5F58"/>
<path d="M700.703 213.256H689.435V224.509H700.703V213.256Z" fill="#F7941E"/>
<path d="M655.789 67.3608H644.521V78.614H655.789V67.3608Z" fill="#414042"/>
<path d="M666.978 33.6804H655.71V44.9336H666.978V33.6804Z" fill="#BCBEC0"/>
<path d="M599.608 179.576H588.34V190.829H599.608V179.576Z" fill="#414042"/>
<path d="M655.789 89.7878H644.521V101.041H655.789V89.7878Z" fill="#FFD5AD"/>
<path d="M655.789 44.9336H644.521V56.1868H655.789V44.9336Z" fill="#F7941E"/>
<path d="M633.332 202.003H622.064V213.256H633.332V202.003Z" fill="#E6E7E8"/>
<path d="M655.789 22.4272H644.521V33.6804H655.789V22.4272Z" fill="#BCBEC0"/>
<path d="M666.978 134.642H655.71V145.895H666.978V134.642Z" fill="white"/>
<path d="M711.97 224.43H700.702V235.683H711.97V224.43Z" fill="#E6E7E8"/>
<path d="M622.065 190.75H610.797V202.003H622.065V190.75Z" fill="#E6E7E8"/>
<path d="M633.332 179.576H622.064V190.829H633.332V179.576Z" fill="#E6E7E8"/>
<path d="M678.246 112.215H666.978V123.468H678.246V112.215Z" fill="#FFD5AD"/>
<path d="M633.332 101.041H622.064V112.294H633.332V101.041Z" fill="#414042"/>
<path d="M622.065 123.468H610.797V134.721H622.065V123.468Z" fill="#FFD5AD"/>
<path d="M588.34 224.43H577.072V235.683H588.34V224.43Z" fill="#FFD5AD"/>
<path d="M610.797 224.43H599.529V235.683H610.797V224.43Z" fill="#E6E7E8"/>
<path d="M610.797 190.75H599.529V202.003H610.797V190.75Z" fill="#E6E7E8"/>
<path d="M588.34 190.75H577.072V202.003H588.34V190.75Z" fill="#F7941E"/>
<path d="M599.608 202.003H588.34V213.256H599.608V202.003Z" fill="#E6E7E8"/>
<path d="M689.514 112.215H678.246V123.468H689.514V112.215Z" fill="#FFD5AD"/>
<path d="M633.332 78.5347H622.064V89.7879H633.332V78.5347Z" fill="#414042"/>
<path d="M734.427 213.256H723.159V224.509H734.427V213.256Z" fill="#FFD5AD"/>
<path d="M711.97 190.75H700.702V202.003H711.97V190.75Z" fill="#E6E7E8"/>
<path d="M622.065 224.43H610.797V235.683H622.065V224.43Z" fill="#E6E7E8"/>
<path d="M711.97 67.3608H700.702V78.614H711.97V67.3608Z" fill="#594A42"/>
<path d="M610.797 89.7878H599.529V101.041H610.797V89.7878Z" fill="#FFD5AD"/>
<path d="M610.797 67.3608H599.529V78.614H610.797V67.3608Z" fill="#594A42"/>
<path d="M622.065 44.9336H610.797V56.1868H622.065V44.9336Z" fill="#BCBEC0"/>
<path d="M711.97 89.7878H700.702V101.041H711.97V89.7878Z" fill="#FFD5AD"/>
<path d="M633.332 56.1077H622.064V67.3609H633.332V56.1077Z" fill="#FBB040"/>
<path d="M622.065 89.7878H610.797V101.041H622.065V89.7878Z" fill="#FFD5AD"/>
<path d="M599.608 168.323H588.34V179.576H599.608V168.323Z" fill="#FBB040"/>
<path d="M622.065 67.3608H610.797V78.614H622.065V67.3608Z" fill="#414042"/>
<path d="M599.608 56.1077H588.34V67.3609H599.608V56.1077Z" fill="#FBB040"/>
<path d="M655.789 224.43H644.521V235.683H655.789V224.43Z" fill="#414042"/>
<path d="M700.703 33.6804H689.435V44.9336H700.703V33.6804Z" fill="#E6E7E8"/>
<path d="M633.332 168.323H622.064V179.576H633.332V168.323Z" fill="#BCBEC0"/>
<path d="M666.978 213.256H655.71V224.509H666.978V213.256Z" fill="#414042"/>
<path d="M655.789 190.75H644.521V202.003H655.789V190.75Z" fill="#414042"/>
<path d="M644.522 112.215H633.254V123.468H644.522V112.215Z" fill="#FFD5AD"/>
<path d="M655.789 157.148H644.521V168.402H655.789V157.148Z" fill="#E5B085"/>
<path d="M655.789 123.468H644.521V134.721H655.789V123.468Z" fill="white"/>
<path d="M723.159 168.323H711.891V179.576H723.159V168.323Z" fill="#FBB040"/>
<path d="M678.246 168.323H666.978V179.576H678.246V168.323Z" fill="#414042"/>
<path d="M644.522 179.576H633.254V190.829H644.522V179.576Z" fill="#BCBEC0"/>
<path d="M622.065 33.6804H610.797V44.9336H622.065V33.6804Z" fill="#BCBEC0"/>
<path d="M644.522 101.041H633.254V112.294H644.522V101.041Z" fill="#414042"/>
<path d="M711.97 33.6804H700.702V44.9336H711.97V33.6804Z" fill="#E6E7E8"/>
<path d="M644.522 78.5347H633.254V89.7879H644.522V78.5347Z" fill="#414042"/>
<path d="M610.797 33.6804H599.529V44.9336H610.797V33.6804Z" fill="#BCBEC0"/>
<path d="M689.514 168.323H678.246V179.576H689.514V168.323Z" fill="#BCBEC0"/>
<path d="M700.703 67.3608H689.435V78.614H700.703V67.3608Z" fill="#414042"/>
<path d="M655.789 213.256H644.521V224.509H655.789V213.256Z" fill="#414042"/>
<path d="M666.978 190.75H655.71V202.003H666.978V190.75Z" fill="#414042"/>
<path d="M666.978 123.468H655.71V134.721H666.978V123.468Z" fill="white"/>
<path d="M689.514 56.1077H678.246V67.3609H689.514V56.1077Z" fill="#FBB040"/>
<path d="M666.978 157.148H655.71V168.402H666.978V157.148Z" fill="#E5B085"/>
<path d="M700.703 89.7878H689.435V101.041H700.703V89.7878Z" fill="#FFD5AD"/>
<path d="M700.703 44.9336H689.435V56.1868H700.703V44.9336Z" fill="#E6E7E8"/>
<path d="M678.246 145.895H666.978V157.148H678.246V145.895Z" fill="#E5B085"/>
<path d="M678.246 56.1077H666.978V67.3609H678.246V56.1077Z" fill="#FBB040"/>
<path d="M723.159 56.1077H711.891V67.3609H723.159V56.1077Z" fill="#FBB040"/>
<path d="M666.978 224.43H655.71V235.683H666.978V224.43Z" fill="#414042"/>
<path d="M644.522 202.003H633.254V213.256H644.522V202.003Z" fill="#E6E7E8"/>
<path d="M666.978 22.4272H655.71V33.6804H666.978V22.4272Z" fill="#BCBEC0"/>
<path d="M655.789 134.642H644.521V145.895H655.789V134.642Z" fill="white"/>
<path d="M700.703 224.43H689.435V235.683H700.703V224.43Z" fill="#E6E7E8"/>
<path d="M678.246 78.5347H666.978V89.7879H678.246V78.5347Z" fill="#414042"/>
<path d="M689.514 179.576H678.246V190.829H689.514V179.576Z" fill="#BCBEC0"/>
<path d="M666.978 44.9336H655.71V56.1868H666.978V44.9336Z" fill="#F7941E"/>
<path d="M689.514 101.041H678.246V112.294H689.514V101.041Z" fill="#414042"/>
<path d="M633.332 112.215H622.064V123.468H633.332V112.215Z" fill="#FFD5AD"/>
<path d="M678.246 101.041H666.978V112.294H678.246V101.041Z" fill="#414042"/>
<path d="M655.789 33.6804H644.521V44.9336H655.789V33.6804Z" fill="#BCBEC0"/>
<path d="M689.514 78.5347H678.246V89.7879H689.514V78.5347Z" fill="#414042"/>
<path d="M723.159 179.576H711.891V190.829H723.159V179.576Z" fill="#414042"/>
<path d="M666.978 89.7878H655.71V101.041H666.978V89.7878Z" fill="#FFD5AD"/>
<path d="M678.246 179.576H666.978V190.829H678.246V179.576Z" fill="#BCBEC0"/>
<path d="M666.978 67.3608H655.71V78.614H666.978V67.3608Z" fill="#414042"/>
<path d="M700.703 190.75H689.435V202.003H700.703V190.75Z" fill="#E6E7E8"/>
<path d="M644.522 168.323H633.254V179.576H644.522V168.323Z" fill="#414042"/>
<path d="M700.703 123.468H689.435V134.721H700.703V123.468Z" fill="#FFD5AD"/>
<path d="M723.159 202.003H711.891V213.256H723.159V202.003Z" fill="#E6E7E8"/>
<path d="M678.246 202.003H666.978V213.256H678.246V202.003Z" fill="#E6E7E8"/>
<path d="M711.97 213.256H700.702V224.509H711.97V213.256Z" fill="#F7941E"/>
<path d="M734.427 190.75H723.159V202.003H734.427V190.75Z" fill="#F7941E"/>
<path d="M644.522 56.1077H633.254V67.3609H644.522V56.1077Z" fill="#FBB040"/>
<path d="M610.797 213.256H599.529V224.509H610.797V213.256Z" fill="#E6E7E8"/>
<path d="M644.522 145.895H633.254V157.148H644.522V145.895Z" fill="#E5B085"/>
<path d="M588.34 213.256H577.072V224.509H588.34V213.256Z" fill="#FFD5AD"/>
<path d="M734.427 224.43H723.159V235.683H734.427V224.43Z" fill="#FFD5AD"/>
<path d="M622.065 213.256H610.797V224.509H622.065V213.256Z" fill="#E6E7E8"/>
<path d="M689.514 202.003H678.246V213.256H689.514V202.003Z" fill="#E6E7E8"/>
<path d="M678.246 213.256H666.978V224.509H678.246V213.256Z" fill="#E6E7E8"/>
<path d="M599.608 190.75H588.34V202.003H599.608V190.75Z" fill="#E6E7E8"/>
<path d="M723.159 213.256H711.891V224.509H723.159V213.256Z" fill="#E6E7E8"/>
<path d="M711.97 202.003H700.702V213.256H711.97V202.003Z" fill="#E6E7E8"/>
<path d="M610.797 202.003H599.529V213.256H610.797V202.003Z" fill="#E6E7E8"/>
<path d="M588.34 202.003H577.072V213.256H588.34V202.003Z" fill="#E6E7E8"/>
<path d="M655.789 145.895H644.521V157.148H655.789V145.895Z" fill="#594A42"/>
<path d="M622.065 202.003H610.797V213.256H622.065V202.003Z" fill="#E6E7E8"/>
<path d="M655.789 56.1077H644.521V67.3609H655.789V56.1077Z" fill="#FBB040"/>
<path d="M689.514 213.256H678.246V224.509H689.514V213.256Z" fill="#F7941E"/>
<path d="M599.608 224.43H588.34V235.683H599.608V224.43Z" fill="#E6E7E8"/>
<path d="M655.789 168.323H644.521V179.576H655.789V168.323Z" fill="#414042"/>
<path d="M610.797 78.5347H599.529V89.7879H610.797V78.5347Z" fill="#FFD5AD"/>
<path d="M700.703 112.215H689.435V123.468H700.703V112.215Z" fill="#FFD5AD"/>
<path d="M633.332 123.468H622.064V134.721H633.332V123.468Z" fill="#FFD5AD"/>
<path d="M622.065 101.041H610.797V112.294H622.065V101.041Z" fill="#FFD5AD"/>
<path d="M633.332 157.148H622.064V168.402H633.332V157.148Z" fill="#BCBEC0"/>
<path d="M622.065 179.576H610.797V190.829H622.065V179.576Z" fill="#E6E7E8"/>
<path d="M711.97 78.5347H700.702V89.7879H711.97V78.5347Z" fill="#FFD5AD"/>
<path d="M644.522 33.6804H633.254V44.9336H644.522V33.6804Z" fill="#FBB040"/>
<path d="M633.332 190.75H622.064V202.003H633.332V190.75Z" fill="#E6E7E8"/>
<path d="M633.332 224.43H622.064V235.683H633.332V224.43Z" fill="#E6E7E8"/>
<path d="M622.065 78.5347H610.797V89.7879H622.065V78.5347Z" fill="#414042"/>
<path d="M711.97 179.576H700.702V190.829H711.97V179.576Z" fill="#F7941E"/>
<path d="M711.97 101.041H700.702V112.294H711.97V101.041Z" fill="#FFD5AD"/>
<path d="M588.34 179.576H577.072V190.829H588.34V179.576Z" fill="#FBB040"/>
<path d="M644.522 134.642H633.254V145.895H644.522V134.642Z" fill="#FFD5AD"/>
<path d="M610.797 101.041H599.529V112.294H610.797V101.041Z" fill="#FFD5AD"/>
<path d="M610.797 179.576H599.529V190.829H610.797V179.576Z" fill="#F7941E"/>
<path d="M655.789 202.003H644.521V213.256H655.789V202.003Z" fill="#414042"/>
<path d="M622.065 56.1077H610.797V67.3609H622.065V56.1077Z" fill="#FBB040"/>
<path d="M633.332 44.9336H622.064V56.1868H633.332V44.9336Z" fill="#F7941E"/>
<path d="M633.332 22.4272H622.064V33.6804H633.332V22.4272Z" fill="#BCBEC0"/>
<path d="M610.797 56.1077H599.529V67.3609H610.797V56.1077Z" fill="#FBB040"/>
<path d="M633.332 67.3608H622.064V78.614H633.332V67.3608Z" fill="#414042"/>
<path d="M633.332 89.7878H622.064V101.041H633.332V89.7878Z" fill="white"/>
<path d="M666.978 112.215H655.71V123.468H666.978V112.215Z" fill="#FFD5AD"/>
<path d="M711.97 56.1077H700.702V67.3609H711.97V56.1077Z" fill="#FBB040"/>
<path d="M644.522 213.256H633.254V224.509H644.522V213.256Z" fill="#E6E7E8"/>
<path d="M678.246 134.642H666.978V145.895H678.246V134.642Z" fill="#FFD5AD"/>
<path d="M711.97 168.323H700.702V179.576H711.97V168.323Z" fill="#414042"/>
<path d="M655.789 78.5347H644.521V89.7879H655.789V78.5347Z" fill="#414042"/>
<path d="M610.797 168.323H599.529V179.576H610.797V168.323Z" fill="#414042"/>
<path d="M689.514 33.6804H678.246V44.9336H689.514V33.6804Z" fill="#E6E7E8"/>
<path d="M678.246 33.6804H666.978V44.9336H678.246V33.6804Z" fill="#FBB040"/>
<path d="M655.789 101.041H644.521V112.294H655.789V101.041Z" fill="#FFD5AD"/>
<path d="M655.789 179.576H644.521V190.829H655.789V179.576Z" fill="#414042"/>
<path d="M622.065 168.323H610.797V179.576H622.065V168.323Z" fill="#414042"/>
<path d="M689.514 134.642H678.246V145.895H689.514V134.642Z" fill="#FFD5AD"/>
<path d="M700.703 168.323H689.435V179.576H700.703V168.323Z" fill="#414042"/>
<path d="M644.522 123.468H633.254V134.721H644.522V123.468Z" fill="white"/>
<path d="M644.522 157.148H633.254V168.402H644.522V157.148Z" fill="#E5B085"/>
<path d="M633.332 33.6804H622.064V44.9336H633.332V33.6804Z" fill="#BCBEC0"/>
<path d="M644.522 190.75H633.254V202.003H644.522V190.75Z" fill="#BCBEC0"/>
<path d="M655.789 112.215H644.521V123.468H655.789V112.215Z" fill="#FFD5AD"/>
<path d="M633.332 134.642H622.064V145.895H633.332V134.642Z" fill="#FFD5AD"/>
<path d="M644.522 224.43H633.254V235.683H644.522V224.43Z" fill="#E6E7E8"/>
<path d="M666.978 202.003H655.71V213.256H666.978V202.003Z" fill="#414042"/>
<path d="M678.246 67.3608H666.978V78.614H678.246V67.3608Z" fill="#414042"/>
<path d="M689.514 22.4272H678.246V33.6804H689.514V22.4272Z" fill="#E6E7E8"/>
<path d="M666.978 101.041H655.71V112.294H666.978V101.041Z" fill="#FFD5AD"/>
<path d="M689.514 44.9336H678.246V56.1868H689.514V44.9336Z" fill="#F7941E"/>
<path d="M678.246 89.7878H666.978V101.041H678.246V89.7878Z" fill="white"/>
<path d="M666.978 179.576H655.71V190.829H666.978V179.576Z" fill="#414042"/>
<path d="M666.978 78.5347H655.71V89.7879H666.978V78.5347Z" fill="#414042"/>
<path d="M678.246 44.9336H666.978V56.1868H678.246V44.9336Z" fill="#F7941E"/>
<path d="M689.514 89.7878H678.246V101.041H689.514V89.7878Z" fill="#414042"/>
<path d="M678.246 22.4272H666.978V33.6804H678.246V22.4272Z" fill="#E6E7E8"/>
<path d="M700.703 56.1077H689.435V67.3609H700.703V56.1077Z" fill="#FBB040"/>
<path d="M689.514 67.3608H678.246V78.614H689.514V67.3608Z" fill="#414042"/>
<path d="M666.978 56.1077H655.71V67.3609H666.978V56.1077Z" fill="#FBB040"/>
<path d="M689.514 157.148H678.246V168.402H689.514V157.148Z" fill="#BCBEC0"/>
<path d="M689.514 123.468H678.246V134.721H689.514V123.468Z" fill="#FFD5AD"/>
<path d="M678.246 224.43H666.978V235.683H678.246V224.43Z" fill="#E6E7E8"/>
<path d="M689.514 190.75H678.246V202.003H689.514V190.75Z" fill="#E6E7E8"/>
<path d="M723.159 224.43H711.891V235.683H723.159V224.43Z" fill="#E6E7E8"/>
<path d="M666.978 145.895H655.71V157.148H666.978V145.895Z" fill="#594A42"/>
<path d="M700.703 78.5347H689.435V89.7879H700.703V78.5347Z" fill="#414042"/>
<path d="M700.703 101.041H689.435V112.294H700.703V101.041Z" fill="#FFD5AD"/>
<path d="M700.703 179.576H689.435V190.829H700.703V179.576Z" fill="#E6E7E8"/>
<path d="M723.159 190.75H711.891V202.003H723.159V190.75Z" fill="#E6E7E8"/>
<path d="M689.514 224.43H678.246V235.683H689.514V224.43Z" fill="#E6E7E8"/>
<path d="M599.608 213.256H588.34V224.509H599.608V213.256Z" fill="#E6E7E8"/>
<path d="M678.246 190.75H666.978V202.003H678.246V190.75Z" fill="#BCBEC0"/>
<path d="M678.246 123.468H666.978V134.721H678.246V123.468Z" fill="white"/>
<path d="M678.246 157.148H666.978V168.402H678.246V157.148Z" fill="#E5B085"/>
<path d="M734.427 202.003H723.159V213.256H734.427V202.003Z" fill="#E6E7E8"/>
<path d="M622.065 112.215H610.797V123.468H622.065V112.215Z" fill="#FFD5AD"/>
<path d="M700.703 202.003H689.435V213.256H700.703V202.003Z" fill="#FBB040"/>
<path d="M644.522 22.4272H633.254V33.6804H644.522V22.4272Z" fill="#BCBEC0"/>
<path d="M734.427 179.576H723.159V190.829H734.427V179.576Z" fill="#FBB040"/>
<path d="M644.522 44.9336H633.254V56.1868H644.522V44.9336Z" fill="#F7941E"/>
<path d="M644.522 89.7878H633.254V101.041H644.522V89.7878Z" fill="#414042"/>
<path d="M633.332 213.256H622.064V224.509H633.332V213.256Z" fill="#E6E7E8"/>
<path d="M666.978 168.323H655.71V179.576H666.978V168.323Z" fill="#414042"/>
<path d="M644.522 67.3608H633.254V78.614H644.522V67.3608Z" fill="#414042"/>
<path d="M908.058 224.43H896.79V235.683H908.058V224.43Z" fill="#00A79D"/>
<path d="M818.152 168.323H806.884V179.576H818.152V168.323Z" fill="#00A79D"/>
<path d="M908.058 123.468H896.79V134.721H908.058V123.468Z" fill="#FFD5AD"/>
<path d="M874.333 213.256H863.065V224.509H874.333V213.256Z" fill="#00A79D"/>
<path d="M908.058 190.75H896.79V202.003H908.058V190.75Z" fill="#E6E7E8"/>
<path d="M896.79 112.215H885.522V123.468H896.79V112.215Z" fill="#E6E7E8"/>
<path d="M851.876 190.75H840.608V202.003H851.876V190.75Z" fill="#00A79D"/>
<path d="M851.876 123.468H840.608V134.721H851.876V123.468Z" fill="#BCBEC0"/>
<path d="M851.876 157.148H840.608V168.402H851.876V157.148Z" fill="#FFD5AD"/>
<path d="M885.522 89.7878H874.254V101.041H885.522V89.7878Z" fill="white"/>
<path d="M795.696 224.43H784.428V235.683H795.696V224.43Z" fill="#FFD5AD"/>
<path d="M885.522 67.3608H874.254V78.614H885.522V67.3608Z" fill="white"/>
<path d="M840.609 134.642H829.341V145.895H840.609V134.642Z" fill="#BCBEC0"/>
<path d="M885.522 22.4272H874.254V33.6804H885.522V22.4272Z" fill="#1CB7A8"/>
<path d="M863.066 112.215H851.798V123.468H863.066V112.215Z" fill="#BCBEC0"/>
<path d="M818.152 56.1077H806.884V67.3609H818.152V56.1077Z" fill="#00A79D"/>
<path d="M795.696 190.75H784.428V202.003H795.696V190.75Z" fill="#00A79D"/>
<path d="M885.522 44.9336H874.254V56.1868H885.522V44.9336Z" fill="#00A79D"/>
<path d="M851.876 224.43H840.608V235.683H851.876V224.43Z" fill="#00A79D"/>
<path d="M840.609 33.6804H829.341V44.9336H840.609V33.6804Z" fill="#00A79D"/>
<path d="M851.876 22.4272H840.608V33.6804H851.876V22.4272Z" fill="#00A79D"/>
<path d="M818.152 78.5347H806.884V89.7879H818.152V78.5347Z" fill="#FFD5AD"/>
<path d="M806.884 213.256H795.616V224.509H806.884V213.256Z" fill="#FFD5AD"/>
<path d="M851.876 44.9336H840.608V56.1868H851.876V44.9336Z" fill="#00A79D"/>
<path d="M885.522 224.43H874.254V235.683H885.522V224.43Z" fill="#00A79D"/>
<path d="M840.609 213.256H829.341V224.509H840.609V213.256Z" fill="#00A79D"/>
<path d="M885.522 190.75H874.254V202.003H885.522V190.75Z" fill="#00A79D"/>
<path d="M885.522 123.468H874.254V134.721H885.522V123.468Z" fill="#BCBEC0"/>
<path d="M885.522 157.148H874.254V168.402H885.522V157.148Z" fill="#FFD5AD"/>
<path d="M851.876 89.7878H840.608V101.041H851.876V89.7878Z" fill="white"/>
<path d="M851.876 67.3608H840.608V78.614H851.876V67.3608Z" fill="#414042"/>
<path d="M818.152 179.576H806.884V190.829H818.152V179.576Z" fill="#00A79D"/>
<path d="M818.152 101.041H806.884V112.294H818.152V101.041Z" fill="#BCBEC0"/>
<path d="M874.333 33.6804H863.065V44.9336H874.333V33.6804Z" fill="#00A79D"/>
<path d="M908.058 89.7878H896.79V101.041H908.058V89.7878Z" fill="#FFD5AD"/>
<path d="M908.058 67.3608H896.79V78.614H908.058V67.3608Z" fill="#FFD5AD"/>
<path d="M818.152 202.003H806.884V213.256H818.152V202.003Z" fill="#00A79D"/>
<path d="M874.333 134.642H863.065V145.895H874.333V134.642Z" fill="#BCBEC0"/>
<path d="M829.341 112.215H818.073V123.468H829.341V112.215Z" fill="#BCBEC0"/>
<path d="M908.058 44.9336H896.79V56.1868H908.058V44.9336Z" fill="#1CB7A8"/>
<path d="M896.79 56.1077H885.522V67.3609H896.79V56.1077Z" fill="#00A79D"/>
<path d="M851.876 33.6804H840.608V44.9336H851.876V33.6804Z" fill="#00A79D"/>
<path d="M885.522 213.256H874.254V224.509H885.522V213.256Z" fill="#00A79D"/>
<path d="M840.609 224.43H829.341V235.683H840.609V224.43Z" fill="#00A79D"/>
<path d="M829.341 101.041H818.073V112.294H829.341V101.041Z" fill="#BCBEC0"/>
<path d="M930.514 179.576H919.246V190.829H930.514V179.576Z" fill="#00A79D"/>
<path d="M806.884 224.43H795.616V235.683H806.884V224.43Z" fill="#FFD5AD"/>
<path d="M829.341 179.576H818.073V190.829H829.341V179.576Z" fill="#00A79D"/>
<path d="M840.609 157.148H829.341V168.402H840.609V157.148Z" fill="#00A79D"/>
<path d="M806.884 190.75H795.616V202.003H806.884V190.75Z" fill="#00A79D"/>
<path d="M829.341 78.5347H818.073V89.7879H829.341V78.5347Z" fill="#FFD5AD"/>
<path d="M840.609 123.468H829.341V134.721H840.609V123.468Z" fill="#BCBEC0"/>
<path d="M863.066 168.323H851.798V179.576H863.066V168.323Z" fill="#FFD5AD"/>
<path d="M919.247 56.1077H907.979V67.3609H919.247V56.1077Z" fill="#00A79D"/>
<path d="M840.609 190.75H829.341V202.003H840.609V190.75Z" fill="#00A79D"/>
<path d="M851.876 134.642H840.608V145.895H851.876V134.642Z" fill="#BCBEC0"/>
<path d="M874.333 44.9336H863.065V56.1868H874.333V44.9336Z" fill="#00A79D"/>
<path d="M863.066 145.895H851.798V157.148H863.066V145.895Z" fill="#E5B085"/>
<path d="M919.247 168.323H907.979V179.576H919.247V168.323Z" fill="#00A79D"/>
<path d="M863.066 56.1077H851.798V67.3609H863.066V56.1077Z" fill="#00A79D"/>
<path d="M874.333 22.4272H863.065V33.6804H874.333V22.4272Z" fill="#1CB7A8"/>
<path d="M874.333 67.3608H863.065V78.614H874.333V67.3608Z" fill="#FFD5AD"/>
<path d="M896.79 168.323H885.522V179.576H896.79V168.323Z" fill="#00A79D"/>
<path d="M829.341 202.003H818.073V213.256H829.341V202.003Z" fill="#00A79D"/>
<path d="M874.333 89.7878H863.065V101.041H874.333V89.7878Z" fill="#FFD5AD"/>
<path d="M908.058 33.6804H896.79V44.9336H908.058V33.6804Z" fill="#1CB7A8"/>
<path d="M930.514 202.003H919.246V213.256H930.514V202.003Z" fill="#FFD5AD"/>
<path d="M863.066 101.041H851.798V112.294H863.066V101.041Z" fill="#FFD5AD"/>
<path d="M863.066 179.576H851.798V190.829H863.066V179.576Z" fill="#FFD5AD"/>
<path d="M919.247 202.003H907.979V213.256H919.247V202.003Z" fill="#E6E7E8"/>
<path d="M874.333 190.75H863.065V202.003H874.333V190.75Z" fill="#00A79D"/>
<path d="M941.783 202.003H930.515V213.256H941.783V202.003Z" fill="#FFD5AD"/>
<path d="M908.058 213.256H896.79V224.509H908.058V213.256Z" fill="#00A79D"/>
<path d="M874.333 123.468H863.065V134.721H874.333V123.468Z" fill="#BCBEC0"/>
<path d="M874.333 157.148H863.065V168.402H874.333V157.148Z" fill="#E5B085"/>
<path d="M874.333 224.43H863.065V235.683H874.333V224.43Z" fill="#00A79D"/>
<path d="M863.066 78.5347H851.798V89.7879H863.066V78.5347Z" fill="#FFD5AD"/>
<path d="M829.341 168.323H818.073V179.576H829.341V168.323Z" fill="#00A79D"/>
<path d="M896.79 202.003H885.522V213.256H896.79V202.003Z" fill="#E6E7E8"/>
<path d="M930.514 168.323H919.246V179.576H930.514V168.323Z" fill="#00A79D"/>
<path d="M829.341 56.1077H818.073V67.3609H829.341V56.1077Z" fill="#00A79D"/>
<path d="M795.696 213.256H784.428V224.509H795.696V213.256Z" fill="#FFD5AD"/>
<path d="M919.247 78.5347H907.979V89.7879H919.247V78.5347Z" fill="#FFD5AD"/>
<path d="M840.609 89.7878H829.341V101.041H840.609V89.7878Z" fill="white"/>
<path d="M896.79 101.041H885.522V112.294H896.79V101.041Z" fill="#FFD5AD"/>
<path d="M840.609 67.3608H829.341V78.614H840.609V67.3608Z" fill="white"/>
<path d="M885.522 134.642H874.254V145.895H885.522V134.642Z" fill="#BCBEC0"/>
<path d="M896.79 179.576H885.522V190.829H896.79V179.576Z" fill="#00A79D"/>
<path d="M896.79 78.5347H885.522V89.7879H896.79V78.5347Z" fill="#414042"/>
<path d="M863.066 202.003H851.798V213.256H863.066V202.003Z" fill="#00A79D"/>
<path d="M840.609 22.4272H829.341V33.6804H840.609V22.4272Z" fill="#00A79D"/>
<path d="M885.522 33.6804H874.254V44.9336H885.522V33.6804Z" fill="#00A79D"/>
<path d="M919.247 101.041H907.979V112.294H919.247V101.041Z" fill="#E6E7E8"/>
<path d="M851.876 213.256H840.608V224.509H851.876V213.256Z" fill="#00A79D"/>
<path d="M919.247 179.576H907.979V190.829H919.247V179.576Z" fill="#00A79D"/>
<path d="M941.783 179.576H930.515V190.829H941.783V179.576Z" fill="#00A79D"/>
<path d="M840.609 44.9336H829.341V56.1868H840.609V44.9336Z" fill="#00A79D"/>
<path d="M795.696 202.003H784.428V213.256H795.696V202.003Z" fill="#FFD5AD"/>
<path d="M908.058 78.5347H896.79V89.7879H908.058V78.5347Z" fill="#FFD5AD"/>
<path d="M885.522 168.323H874.254V179.576H885.522V168.323Z" fill="#FFD5AD"/>
<path d="M863.066 213.256H851.798V224.509H863.066V213.256Z" fill="#00A79D"/>
<path d="M908.058 179.576H896.79V190.829H908.058V179.576Z" fill="#00A79D"/>
<path d="M851.876 202.003H840.608V213.256H851.876V202.003Z" fill="#00A79D"/>
<path d="M908.058 101.041H896.79V112.294H908.058V101.041Z" fill="#E6E7E8"/>
<path d="M818.152 89.7878H806.884V101.041H818.152V89.7878Z" fill="#FFD5AD"/>
<path d="M829.341 33.6804H818.073V44.9336H829.341V33.6804Z" fill="#00A79D"/>
<path d="M941.783 213.256H930.515V224.509H941.783V213.256Z" fill="#FFD5AD"/>
<path d="M851.876 101.041H840.608V112.294H851.876V101.041Z" fill="#FFD5AD"/>
<path d="M919.247 213.256H907.979V224.509H919.247V213.256Z" fill="#00A79D"/>
<path d="M818.152 67.3608H806.884V78.614H818.152V67.3608Z" fill="#594A42"/>
<path d="M908.058 202.003H896.79V213.256H908.058V202.003Z" fill="#E6E7E8"/>
<path d="M851.876 179.576H840.608V190.829H851.876V179.576Z" fill="#00A79D"/>
<path d="M885.522 56.1077H874.254V67.3609H885.522V56.1077Z" fill="#00A79D"/>
<path d="M851.876 78.5347H840.608V89.7879H851.876V78.5347Z" fill="#414042"/>
<path d="M795.696 179.576H784.428V190.829H795.696V179.576Z" fill="#00A79D"/>
<path d="M874.333 112.215H863.065V123.468H874.333V112.215Z" fill="#BCBEC0"/>
<path d="M896.79 213.256H885.522V224.509H896.79V213.256Z" fill="#00A79D"/>
<path d="M885.522 145.895H874.254V157.148H885.522V145.895Z" fill="#E5B085"/>
<path d="M851.876 56.1077H840.608V67.3609H851.876V56.1077Z" fill="#00A79D"/>
<path d="M885.522 78.5347H874.254V89.7879H885.522V78.5347Z" fill="#414042"/>
<path d="M896.79 33.6804H885.522V44.9336H896.79V33.6804Z" fill="#1CB7A8"/>
<path d="M818.152 224.43H806.884V235.683H818.152V224.43Z" fill="#00A79D"/>
<path d="M851.876 145.895H840.608V157.148H851.876V145.895Z" fill="#E5B085"/>
<path d="M908.058 168.323H896.79V179.576H908.058V168.323Z" fill="#00A79D"/>
<path d="M818.152 190.75H806.884V202.003H818.152V190.75Z" fill="#00A79D"/>
<path d="M829.341 213.256H818.073V224.509H829.341V213.256Z" fill="#00A79D"/>
<path d="M885.522 101.041H874.254V112.294H885.522V101.041Z" fill="#FFD5AD"/>
<path d="M930.514 213.256H919.246V224.509H930.514V213.256Z" fill="#FFD5AD"/>
<path d="M885.522 179.576H874.254V190.829H885.522V179.576Z" fill="#00A79D"/>
<path d="M896.79 134.642H885.522V145.895H896.79V134.642Z" fill="#BCBEC0"/>
<path d="M863.066 33.6804H851.798V44.9336H863.066V33.6804Z" fill="#00A79D"/>
<path d="M840.609 112.215H829.341V123.468H840.609V112.215Z" fill="#BCBEC0"/>
<path d="M885.522 202.003H874.254V213.256H885.522V202.003Z" fill="#00A79D"/>
<path d="M908.058 56.1077H896.79V67.3609H908.058V56.1077Z" fill="#00A79D"/>
<path d="M863.066 134.642H851.798V145.895H863.066V134.642Z" fill="#BCBEC0"/>
<path d="M851.876 168.323H840.608V179.576H851.876V168.323Z" fill="#FFD5AD"/>
<path d="M896.79 22.4272H885.522V33.6804H896.79V22.4272Z" fill="#1CB7A8"/>
<path d="M829.341 190.75H818.073V202.003H829.341V190.75Z" fill="#00A79D"/>
<path d="M829.341 123.468H818.073V134.721H829.341V123.468Z" fill="#FFD5AD"/>
<path d="M919.247 89.7878H907.979V101.041H919.247V89.7878Z" fill="#FFD5AD"/>
<path d="M840.609 78.5347H829.341V89.7879H840.609V78.5347Z" fill="#414042"/>
<path d="M930.514 190.75H919.246V202.003H930.514V190.75Z" fill="#00A79D"/>
<path d="M919.247 67.3608H907.979V78.614H919.247V67.3608Z" fill="#594A42"/>
<path d="M896.79 44.9336H885.522V56.1868H896.79V44.9336Z" fill="#00A79D"/>
<path d="M818.152 213.256H806.884V224.509H818.152V213.256Z" fill="#00A79D"/>
<path d="M874.333 168.323H863.065V179.576H874.333V168.323Z" fill="#FFD5AD"/>
<path d="M896.79 89.7878H885.522V101.041H896.79V89.7878Z" fill="white"/>
<path d="M896.79 67.3608H885.522V78.614H896.79V67.3608Z" fill="#414042"/>
<path d="M930.514 224.43H919.246V235.683H930.514V224.43Z" fill="#FFD5AD"/>
<path d="M840.609 179.576H829.341V190.829H840.609V179.576Z" fill="#00A79D"/>
<path d="M806.884 179.576H795.616V190.829H806.884V179.576Z" fill="#00A79D"/>
<path d="M829.341 224.43H818.073V235.683H829.341V224.43Z" fill="#00A79D"/>
<path d="M840.609 101.041H829.341V112.294H840.609V101.041Z" fill="#FFD5AD"/>
<path d="M874.333 145.895H863.065V157.148H874.333V145.895Z" fill="#E5B085"/>
<path d="M863.066 44.9336H851.798V56.1868H863.066V44.9336Z" fill="#00A79D"/>
<path d="M806.884 202.003H795.616V213.256H806.884V202.003Z" fill="#FFD5AD"/>
<path d="M863.066 22.4272H851.798V33.6804H863.066V22.4272Z" fill="#00A79D"/>
<path d="M874.333 56.1077H863.065V67.3609H874.333V56.1077Z" fill="#00A79D"/>
<path d="M885.522 112.215H874.254V123.468H885.522V112.215Z" fill="#BCBEC0"/>
<path d="M840.609 202.003H829.341V213.256H840.609V202.003Z" fill="#00A79D"/>
<path d="M863.066 67.3608H851.798V78.614H863.066V67.3608Z" fill="#FFD5AD"/>
<path d="M863.066 89.7878H851.798V101.041H863.066V89.7878Z" fill="#FFD5AD"/>
<path d="M874.333 101.041H863.065V112.294H874.333V101.041Z" fill="#FFD5AD"/>
<path d="M874.333 179.576H863.065V190.829H874.333V179.576Z" fill="#FFD5AD"/>
<path d="M806.884 168.323H795.616V179.576H806.884V168.323Z" fill="#00A79D"/>
<path d="M863.066 190.75H851.798V202.003H863.066V190.75Z" fill="#00A79D"/>
<path d="M863.066 157.148H851.798V168.402H863.066V157.148Z" fill="#E5B085"/>
<path d="M863.066 123.468H851.798V134.721H863.066V123.468Z" fill="#BCBEC0"/>
<path d="M840.609 168.323H829.341V179.576H840.609V168.323Z" fill="#00A79D"/>
<path d="M863.066 224.43H851.798V235.683H863.066V224.43Z" fill="#00A79D"/>
<path d="M874.333 78.5347H863.065V89.7879H874.333V78.5347Z" fill="#FFD5AD"/>
<path d="M851.876 112.215H840.608V123.468H851.876V112.215Z" fill="#BCBEC0"/>
<path d="M896.79 190.75H885.522V202.003H896.79V190.75Z" fill="#E6E7E8"/>
<path d="M896.79 123.468H885.522V134.721H896.79V123.468Z" fill="#BCBEC0"/>
<path d="M896.79 157.148H885.522V168.402H896.79V157.148Z" fill="#00A79D"/>
<path d="M908.058 112.215H896.79V123.468H908.058V112.215Z" fill="#E6E7E8"/>
<path d="M829.341 44.9336H818.073V56.1868H829.341V44.9336Z" fill="#00A79D"/>
<path d="M941.783 224.43H930.515V235.683H941.783V224.43Z" fill="#FFD5AD"/>
<path d="M919.247 224.43H907.979V235.683H919.247V224.43Z" fill="#00A79D"/>
<path d="M874.333 202.003H863.065V213.256H874.333V202.003Z" fill="#00A79D"/>
<path d="M919.247 190.75H907.979V202.003H919.247V190.75Z" fill="#E6E7E8"/>
<path d="M941.783 190.75H930.515V202.003H941.783V190.75Z" fill="#00A79D"/>
<path d="M840.609 56.1077H829.341V67.3609H840.609V56.1077Z" fill="#00A79D"/>
<path d="M829.341 89.7878H818.073V101.041H829.341V89.7878Z" fill="#FFD5AD"/>
<path d="M829.341 67.3608H818.073V78.614H829.341V67.3608Z" fill="#FFD5AD"/>
<path d="M896.79 224.43H885.522V235.683H896.79V224.43Z" fill="#00A79D"/>
<path d="M1048.04 168.322H1036.78V179.575H1048.04V168.322Z" fill="#BE1E2D"/>
<path d="M1081.77 168.322H1070.5V179.575H1081.77V168.322Z" fill="#FBB040"/>
<path d="M1115.49 168.322H1104.22V179.575H1115.49V168.322Z" fill="#BE1E2D"/>
<path d="M1126.68 179.575H1115.41V190.829H1126.68V179.575Z" fill="#FBB040"/>
<path d="M1126.68 101.041H1115.41V112.294H1126.68V101.041Z" fill="#FFD5AD"/>
<path d="M1014.32 202.003H1003.05V213.256H1014.32V202.003Z" fill="#FBB040"/>
<path d="M1126.68 78.5347H1115.41V89.7879H1126.68V78.5347Z" fill="#FFD5AD"/>
<path d="M1036.78 213.256H1025.51V224.509H1036.78V213.256Z" fill="#FBB040"/>
<path d="M1104.22 89.7878H1092.96V101.041H1104.22V89.7878Z" fill="#414042"/>
<path d="M1014.32 179.575H1003.05V190.829H1014.32V179.575Z" fill="#FBB040"/>
<path d="M1070.5 224.43H1059.23V235.683H1070.5V224.43Z" fill="#FBB040"/>
<path d="M1081.77 0H1070.5V11.2532H1081.77V0Z" fill="#BE1E2D"/>
<path d="M1104.22 67.3606H1092.96V78.6138H1104.22V67.3606Z" fill="#594A42"/>
<path d="M1003.05 213.256H991.783V224.509H1003.05V213.256Z" fill="#FFD5AD"/>
<path d="M1081.77 145.895H1070.5V157.148H1081.77V145.895Z" fill="#594A42"/>
<path d="M1070.5 157.148H1059.23V168.402H1070.5V157.148Z" fill="#E5B085"/>
<path d="M1070.5 123.468H1059.23V134.721H1070.5V123.468Z" fill="white"/>
<path d="M1104.22 22.4272H1092.96V33.6804H1104.22V22.4272Z" fill="#F7941E"/>
<path d="M1070.5 190.75H1059.23V202.003H1070.5V190.75Z" fill="#BE1E2D"/>
<path d="M1025.59 213.256H1014.32V224.509H1025.59V213.256Z" fill="#BE1E2D"/>
<path d="M1081.77 56.1074H1070.5V67.3606H1081.77V56.1074Z" fill="#414042"/>
<path d="M1048.04 56.1074H1036.78V67.3606H1048.04V56.1074Z" fill="#414042"/>
<path d="M1115.49 56.1074H1104.22V67.3606H1115.49V56.1074Z" fill="#414042"/>
<path d="M1126.68 202.003H1115.41V213.256H1126.68V202.003Z" fill="#FBB040"/>
<path d="M1104.22 44.9336H1092.96V56.1868H1104.22V44.9336Z" fill="#BE1E2D"/>
<path d="M1092.96 112.215H1081.69V123.468H1092.96V112.215Z" fill="#FFD5AD"/>
<path d="M1070.5 89.7878H1059.23V101.041H1070.5V89.7878Z" fill="#414042"/>
<path d="M1025.59 33.6804H1014.32V44.9336H1025.59V33.6804Z" fill="#BE1E2D"/>
<path d="M1048.04 78.5347H1036.78V89.7879H1048.04V78.5347Z" fill="#FFD5AD"/>
<path d="M1081.77 78.5347H1070.5V89.7879H1081.77V78.5347Z" fill="#FFD5AD"/>
<path d="M1070.5 67.3606H1059.23V78.6138H1070.5V67.3606Z" fill="#594A42"/>
<path d="M1115.49 78.5347H1104.22V89.7879H1115.49V78.5347Z" fill="#414042"/>
<path d="M1104.22 224.43H1092.96V235.683H1104.22V224.43Z" fill="#FBB040"/>
<path d="M1081.77 101.041H1070.5V112.294H1081.77V101.041Z" fill="#FFD5AD"/>
<path d="M1048.04 101.041H1036.78V112.294H1048.04V101.041Z" fill="#FFD5AD"/>
<path d="M1115.49 179.575H1104.22V190.829H1115.49V179.575Z" fill="#BE1E2D"/>
<path d="M1104.22 190.75H1092.96V202.003H1104.22V190.75Z" fill="#BE1E2D"/>
<path d="M1115.49 101.041H1104.22V112.294H1115.49V101.041Z" fill="white"/>
<path d="M1048.04 179.575H1036.78V190.829H1048.04V179.575Z" fill="#FBB040"/>
<path d="M1070.5 22.4272H1059.23V33.6804H1070.5V22.4272Z" fill="#F7941E"/>
<path d="M1081.77 179.575H1070.5V190.829H1081.77V179.575Z" fill="#FBB040"/>
<path d="M1104.22 157.148H1092.96V168.402H1104.22V157.148Z" fill="#E5B085"/>
<path d="M1104.22 123.468H1092.96V134.721H1104.22V123.468Z" fill="white"/>
<path d="M1070.5 44.9336H1059.23V56.1868H1070.5V44.9336Z" fill="#BE1E2D"/>
<path d="M1126.68 168.322H1115.41V179.575H1126.68V168.322Z" fill="#BE1E2D"/>
<path d="M1048.04 202.003H1036.78V213.256H1048.04V202.003Z" fill="#FBB040"/>
<path d="M1081.77 202.003H1070.5V213.256H1081.77V202.003Z" fill="#F7941E"/>
<path d="M1126.68 56.1074H1115.41V67.3606H1126.68V56.1074Z" fill="#414042"/>
<path d="M1115.49 202.003H1104.22V213.256H1115.49V202.003Z" fill="#FBB040"/>
<path d="M1160.41 224.43H1149.14V235.683H1160.41V224.43Z" fill="#FBB040"/>
<path d="M1036.78 33.6804H1025.51V44.9336H1036.78V33.6804Z" fill="#BE1E2D"/>
<path d="M1160.41 190.75H1149.14V202.003H1160.41V190.75Z" fill="#BE1E2D"/>
<path d="M1059.23 112.215H1047.96V123.468H1059.23V112.215Z" fill="#FFD5AD"/>
<path d="M1171.67 224.43H1160.41V235.683H1171.67V224.43Z" fill="#FFD5AD"/>
<path d="M1025.59 44.9336H1014.32V56.1868H1025.59V44.9336Z" fill="#BE1E2D"/>
<path d="M1092.96 202.003H1081.69V213.256H1092.96V202.003Z" fill="#F7941E"/>
<path d="M1137.95 168.322H1126.68V179.575H1137.95V168.322Z" fill="#FBB040"/>
<path d="M1059.23 179.575H1047.96V190.829H1059.23V179.575Z" fill="#BE1E2D"/>
<path d="M1070.5 134.642H1059.23V145.895H1070.5V134.642Z" fill="#FFD5AD"/>
<path d="M1104.22 213.256H1092.96V224.509H1104.22V213.256Z" fill="#FBB040"/>
<path d="M1104.22 11.2532H1092.96V22.5064H1104.22V11.2532Z" fill="#BE1E2D"/>
<path d="M1059.23 101.041H1047.96V112.294H1059.23V101.041Z" fill="white"/>
<path d="M1059.23 78.5347H1047.96V89.7879H1059.23V78.5347Z" fill="white"/>
<path d="M1149.14 202.003H1137.87V213.256H1149.14V202.003Z" fill="#FBB040"/>
<path d="M1070.5 33.6804H1059.23V44.9336H1070.5V33.6804Z" fill="#BE1E2D"/>
<path d="M1160.41 213.256H1149.14V224.509H1160.41V213.256Z" fill="#BE1E2D"/>
<path d="M1036.78 22.4272H1025.51V33.6804H1036.78V22.4272Z" fill="#BE1E2D"/>
<path d="M1115.49 112.215H1104.22V123.468H1115.49V112.215Z" fill="#FFD5AD"/>
<path d="M1149.14 179.575H1137.87V190.829H1149.14V179.575Z" fill="#FBB040"/>
<path d="M1081.77 112.215H1070.5V123.468H1081.77V112.215Z" fill="#FFD5AD"/>
<path d="M1048.04 112.215H1036.78V123.468H1048.04V112.215Z" fill="#FFD5AD"/>
<path d="M1092.96 78.5347H1081.69V89.7879H1092.96V78.5347Z" fill="#FFD5AD"/>
<path d="M1036.78 44.9336H1025.51V56.1868H1036.78V44.9336Z" fill="#BE1E2D"/>
<path d="M1092.96 179.575H1081.69V190.829H1092.96V179.575Z" fill="#FBB040"/>
<path d="M1137.95 56.1074H1126.68V67.3606H1137.95V56.1074Z" fill="#414042"/>
<path d="M1036.78 89.7878H1025.51V101.041H1036.78V89.7878Z" fill="#FFD5AD"/>
<path d="M1092.96 101.041H1081.69V112.294H1092.96V101.041Z" fill="#FFD5AD"/>
<path d="M1171.67 213.256H1160.41V224.509H1171.67V213.256Z" fill="#FFD5AD"/>
<path d="M1036.78 67.3606H1025.51V78.6138H1036.78V67.3606Z" fill="#594A42"/>
<path d="M1059.23 202.003H1047.96V213.256H1059.23V202.003Z" fill="#FBB040"/>
<path d="M1036.78 190.75H1025.51V202.003H1036.78V190.75Z" fill="#FBB040"/>
<path d="M1137.95 78.5347H1126.68V89.7879H1137.95V78.5347Z" fill="#594A42"/>
<path d="M1092.96 0H1081.69V11.2532H1092.96V0Z" fill="#BE1E2D"/>
<path d="M1092.96 145.895H1081.69V157.148H1092.96V145.895Z" fill="#594A42"/>
<path d="M1137.95 101.041H1126.68V112.294H1137.95V101.041Z" fill="#FFD5AD"/>
<path d="M1137.95 179.575H1126.68V190.829H1137.95V179.575Z" fill="#FBB040"/>
<path d="M1092.96 56.1074H1081.69V67.3606H1092.96V56.1074Z" fill="#414042"/>
<path d="M1036.78 224.43H1025.51V235.683H1036.78V224.43Z" fill="#FBB040"/>
<path d="M1059.23 168.322H1047.96V179.575H1059.23V168.322Z" fill="#BE1E2D"/>
<path d="M1059.23 56.1074H1047.96V67.3606H1059.23V56.1074Z" fill="#414042"/>
<path d="M1092.96 168.322H1081.69V179.575H1092.96V168.322Z" fill="#FBB040"/>
<path d="M1003.05 224.43H991.783V235.683H1003.05V224.43Z" fill="#FFD5AD"/>
<path d="M1137.95 202.003H1126.68V213.256H1137.95V202.003Z" fill="#FBB040"/>
<path d="M1070.5 11.2532H1059.23V22.5064H1070.5V11.2532Z" fill="#BE1E2D"/>
<path d="M1104.22 134.642H1092.96V145.895H1104.22V134.642Z" fill="#FFD5AD"/>
<path d="M1070.5 213.256H1059.23V224.509H1070.5V213.256Z" fill="#FBB040"/>
<path d="M1025.59 190.75H1014.32V202.003H1025.59V190.75Z" fill="#BE1E2D"/>
<path d="M1025.59 224.43H1014.32V235.683H1025.59V224.43Z" fill="#FBB040"/>
<path d="M1149.14 168.322H1137.87V179.575H1149.14V168.322Z" fill="#FBB040"/>
<path d="M1126.68 112.215H1115.41V123.468H1126.68V112.215Z" fill="#FFD5AD"/>
<path d="M1104.22 33.6804H1092.96V44.9336H1104.22V33.6804Z" fill="#BE1E2D"/>
<path d="M1126.68 123.468H1115.41V134.721H1126.68V123.468Z" fill="#FFD5AD"/>
<path d="M1092.96 134.642H1081.69V145.895H1092.96V134.642Z" fill="white"/>
<path d="M1126.68 190.75H1115.41V202.003H1126.68V190.75Z" fill="#FBB040"/>
<path d="M1149.14 33.6804H1137.87V44.9336H1149.14V33.6804Z" fill="#DD2238"/>
<path d="M1104.22 168.322H1092.96V179.575H1104.22V168.322Z" fill="#FBB040"/>
<path d="M1137.95 213.256H1126.68V224.509H1137.95V213.256Z" fill="#FBB040"/>
<path d="M1070.5 202.003H1059.23V213.256H1070.5V202.003Z" fill="#FBB040"/>
<path d="M1092.96 33.6804H1081.69V44.9336H1092.96V33.6804Z" fill="#F7941E"/>
<path d="M1126.68 224.43H1115.41V235.683H1126.68V224.43Z" fill="#FBB040"/>
<path d="M1081.77 67.3606H1070.5V78.6138H1081.77V67.3606Z" fill="#594A42"/>
<path d="M1048.04 67.3606H1036.78V78.6138H1048.04V67.3606Z" fill="#594A42"/>
<path d="M1070.5 78.5347H1059.23V89.7879H1070.5V78.5347Z" fill="#414042"/>
<path d="M1115.49 67.3606H1104.22V78.6138H1115.49V67.3606Z" fill="#594A42"/>
<path d="M1115.49 89.7878H1104.22V101.041H1115.49V89.7878Z" fill="#414042"/>
<path d="M1014.32 190.75H1003.05V202.003H1014.32V190.75Z" fill="#BE1E2D"/>
<path d="M1081.77 89.7878H1070.5V101.041H1081.77V89.7878Z" fill="#FFD5AD"/>
<path d="M1059.23 33.6804H1047.96V44.9336H1059.23V33.6804Z" fill="#BE1E2D"/>
<path d="M1048.04 89.7878H1036.78V101.041H1048.04V89.7878Z" fill="#FFD5AD"/>
<path d="M1115.49 44.9336H1104.22V56.1868H1115.49V44.9336Z" fill="#BE1E2D"/>
<path d="M1104.22 56.1074H1092.96V67.3606H1104.22V56.1074Z" fill="#414042"/>
<path d="M1014.32 224.43H1003.05V235.683H1014.32V224.43Z" fill="#FBB040"/>
<path d="M1081.77 44.9336H1070.5V56.1868H1081.77V44.9336Z" fill="#BE1E2D"/>
<path d="M1048.04 44.9336H1036.78V56.1868H1048.04V44.9336Z" fill="#BE1E2D"/>
<path d="M1104.22 145.895H1092.96V157.148H1104.22V145.895Z" fill="#E5B085"/>
<path d="M1059.23 134.642H1047.96V145.895H1059.23V134.642Z" fill="#FFD5AD"/>
<path d="M1070.5 179.575H1059.23V190.829H1070.5V179.575Z" fill="#BE1E2D"/>
<path d="M1081.77 22.4272H1070.5V33.6804H1081.77V22.4272Z" fill="#FBB040"/>
<path d="M1048.04 22.4272H1036.78V33.6804H1048.04V22.4272Z" fill="#BE1E2D"/>
<path d="M1115.49 22.4272H1104.22V33.6804H1115.49V22.4272Z" fill="#DD2238"/>
<path d="M1070.5 101.041H1059.23V112.294H1070.5V101.041Z" fill="white"/>
<path d="M1160.41 202.003H1149.14V213.256H1160.41V202.003Z" fill="#FBB040"/>
<path d="M1104.22 78.5347H1092.96V89.7879H1104.22V78.5347Z" fill="white"/>
<path d="M1115.49 224.43H1104.22V235.683H1115.49V224.43Z" fill="#FBB040"/>
<path d="M1081.77 224.43H1070.5V235.683H1081.77V224.43Z" fill="#F7941E"/>
<path d="M1048.04 224.43H1036.78V235.683H1048.04V224.43Z" fill="#FBB040"/>
<path d="M1070.5 56.1074H1059.23V67.3606H1070.5V56.1074Z" fill="#414042"/>
<path d="M1104.22 101.041H1092.96V112.294H1104.22V101.041Z" fill="white"/>
<path d="M1059.23 11.2532H1047.96V22.5064H1059.23V11.2532Z" fill="#BE1E2D"/>
<path d="M1171.67 202.003H1160.41V213.256H1171.67V202.003Z" fill="#FBB040"/>
<path d="M1115.49 123.468H1104.22V134.721H1115.49V123.468Z" fill="#FFD5AD"/>
<path d="M1081.77 190.75H1070.5V202.003H1081.77V190.75Z" fill="#BE1E2D"/>
<path d="M1115.49 157.148H1104.22V168.402H1115.49V157.148Z" fill="#BE1E2D"/>
<path d="M1048.04 190.75H1036.78V202.003H1048.04V190.75Z" fill="#FBB040"/>
<path d="M1104.22 179.575H1092.96V190.829H1104.22V179.575Z" fill="#BE1E2D"/>
<path d="M1059.23 213.256H1047.96V224.509H1059.23V213.256Z" fill="#FBB040"/>
<path d="M1081.77 123.468H1070.5V134.721H1081.77V123.468Z" fill="white"/>
<path d="M1115.49 190.75H1104.22V202.003H1115.49V190.75Z" fill="#BE1E2D"/>
<path d="M1048.04 123.468H1036.78V134.721H1048.04V123.468Z" fill="#FFD5AD"/>
<path d="M1070.5 145.895H1059.23V157.148H1070.5V145.895Z" fill="#E5B085"/>
<path d="M1081.77 157.148H1070.5V168.402H1081.77V157.148Z" fill="#E5B085"/>
<path d="M1092.96 11.2532H1081.69V22.5064H1092.96V11.2532Z" fill="#BE1E2D"/>
<path d="M1126.68 22.4272H1115.41V33.6804H1126.68V22.4272Z" fill="#DD2238"/>
<path d="M1092.96 213.256H1081.69V224.509H1092.96V213.256Z" fill="#F7941E"/>
<path d="M1104.22 202.003H1092.96V213.256H1104.22V202.003Z" fill="#FBB040"/>
<path d="M1126.68 44.9336H1115.41V56.1868H1126.68V44.9336Z" fill="#BE1E2D"/>
<path d="M1070.5 168.322H1059.23V179.575H1070.5V168.322Z" fill="#FBB040"/>
<path d="M1126.68 89.7878H1115.41V101.041H1126.68V89.7878Z" fill="#FFD5AD"/>
<path d="M1149.14 213.256H1137.87V224.509H1149.14V213.256Z" fill="#BE1E2D"/>
<path d="M1160.41 179.575H1149.14V190.829H1160.41V179.575Z" fill="#FBB040"/>
<path d="M1137.95 33.6804H1126.68V44.9336H1137.95V33.6804Z" fill="#DD2238"/>
<path d="M1126.68 67.3606H1115.41V78.6138H1126.68V67.3606Z" fill="#594A42"/>
<path d="M1059.23 157.148H1047.96V168.402H1059.23V157.148Z" fill="#BE1E2D"/>
<path d="M1059.23 123.468H1047.96V134.721H1059.23V123.468Z" fill="#FFD5AD"/>
<path d="M1115.49 11.2532H1104.22V22.5064H1115.49V11.2532Z" fill="#DD2238"/>
<path d="M1081.77 213.256H1070.5V224.509H1081.77V213.256Z" fill="#F7941E"/>
<path d="M1048.04 213.256H1036.78V224.509H1048.04V213.256Z" fill="#FBB040"/>
<path d="M1059.23 190.75H1047.96V202.003H1059.23V190.75Z" fill="#BE1E2D"/>
<path d="M1115.49 213.256H1104.22V224.509H1115.49V213.256Z" fill="#FBB040"/>
<path d="M1081.77 11.2532H1070.5V22.5064H1081.77V11.2532Z" fill="#BE1E2D"/>
<path d="M1059.23 224.43H1047.96V235.683H1059.23V224.43Z" fill="#FBB040"/>
<path d="M1036.78 168.322H1025.51V179.575H1036.78V168.322Z" fill="#FBB040"/>
<path d="M1092.96 224.43H1081.69V235.683H1092.96V224.43Z" fill="#F7941E"/>
<path d="M1036.78 56.1074H1025.51V67.3606H1036.78V56.1074Z" fill="#414042"/>
<path d="M1137.95 89.7878H1126.68V101.041H1137.95V89.7878Z" fill="#FFD5AD"/>
<path d="M1137.95 67.3606H1126.68V78.6138H1137.95V67.3606Z" fill="#594A42"/>
<path d="M1126.68 33.6804H1115.41V44.9336H1126.68V33.6804Z" fill="#BE1E2D"/>
<path d="M1149.14 190.75H1137.87V202.003H1149.14V190.75Z" fill="#BE1E2D"/>
<path d="M1104.22 112.215H1092.96V123.468H1104.22V112.215Z" fill="#FFD5AD"/>
<path d="M1149.14 224.43H1137.87V235.683H1149.14V224.43Z" fill="#FBB040"/>
<path d="M1137.95 22.4272H1126.68V33.6804H1137.95V22.4272Z" fill="#DD2238"/>
<path d="M1025.59 168.322H1014.32V179.575H1025.59V168.322Z" fill="#FBB040"/>
<path d="M1092.96 157.148H1081.69V168.402H1092.96V157.148Z" fill="#E5B085"/>
<path d="M1092.96 123.468H1081.69V134.721H1092.96V123.468Z" fill="white"/>
<path d="M1092.96 190.75H1081.69V202.003H1092.96V190.75Z" fill="#BE1E2D"/>
<path d="M1137.95 44.9336H1126.68V56.1868H1137.95V44.9336Z" fill="#DD2238"/>
<path d="M1149.14 44.9336H1137.87V56.1868H1149.14V44.9336Z" fill="#DD2238"/>
<path d="M1092.96 67.3606H1081.69V78.6138H1092.96V67.3606Z" fill="#594A42"/>
<path d="M1036.78 101.041H1025.51V112.294H1036.78V101.041Z" fill="#FFD5AD"/>
<path d="M1070.5 112.215H1059.23V123.468H1070.5V112.215Z" fill="#FFD5AD"/>
<path d="M1092.96 89.7878H1081.69V101.041H1092.96V89.7878Z" fill="#FFD5AD"/>
<path d="M1036.78 179.575H1025.51V190.829H1036.78V179.575Z" fill="#FBB040"/>
<path d="M1137.95 224.43H1126.68V235.683H1137.95V224.43Z" fill="#FBB040"/>
<path d="M1003.05 202.003H991.783V213.256H1003.05V202.003Z" fill="#FBB040"/>
<path d="M1092.96 44.9336H1081.69V56.1868H1092.96V44.9336Z" fill="#BE1E2D"/>
<path d="M1137.95 190.75H1126.68V202.003H1137.95V190.75Z" fill="#FBB040"/>
<path d="M1036.78 78.5347H1025.51V89.7879H1036.78V78.5347Z" fill="#594A42"/>
<path d="M1025.59 202.003H1014.32V213.256H1025.59V202.003Z" fill="#FBB040"/>
<path d="M1092.96 22.4272H1081.69V33.6804H1092.96V22.4272Z" fill="#FBB040"/>
<path d="M1126.68 213.256H1115.41V224.509H1126.68V213.256Z" fill="#FBB040"/>
<path d="M1025.59 179.575H1014.32V190.829H1025.59V179.575Z" fill="#FBB040"/>
<path d="M1115.49 134.642H1104.22V145.895H1115.49V134.642Z" fill="#FFD5AD"/>
<path d="M1059.23 22.4272H1047.96V33.6804H1059.23V22.4272Z" fill="#BE1E2D"/>
<path d="M1081.77 134.642H1070.5V145.895H1081.77V134.642Z" fill="white"/>
<path d="M1059.23 44.9336H1047.96V56.1868H1059.23V44.9336Z" fill="#BE1E2D"/>
<path d="M1014.32 213.256H1003.05V224.509H1014.32V213.256Z" fill="#BE1E2D"/>
<path d="M1081.77 33.6804H1070.5V44.9336H1081.77V33.6804Z" fill="#F7941E"/>
<path d="M1059.23 89.7878H1047.96V101.041H1059.23V89.7878Z" fill="#414042"/>
<path d="M1048.04 33.6804H1036.78V44.9336H1048.04V33.6804Z" fill="#BE1E2D"/>
<path d="M1115.49 33.6804H1104.22V44.9336H1115.49V33.6804Z" fill="#BE1E2D"/>
<path d="M1036.78 202.003H1025.51V213.256H1036.78V202.003Z" fill="#FBB040"/>
<path d="M1059.23 67.3606H1047.96V78.6138H1059.23V67.3606Z" fill="#594A42"/>
</svg>
