<svg width="103" height="131" viewBox="0 0 103 131" fill="none" xmlns="http://www.w3.org/2000/svg">
<path d="M40.4546 3.50642H39.9536H22.6221V12.8234H39.9536H40.4546H57.2853V3.50642H40.4546Z" fill="#313131"/>
<path d="M40.4557 0H40.055H25.3281V8.91625H40.055H40.4557H54.7818V0H40.4557Z" fill="#313131"/>
<path d="M67.403 51.8946H55.6816V59.208H67.403V51.8946Z" fill="#DDB99F"/>
<path d="M67.4048 31.9583H55.8838V52.3955H67.4048V31.9583Z" fill="#BFA08C"/>
<path d="M55.8845 48.2879H33.7441V59.1077H55.8845V48.2879Z" fill="#BFA08C"/>
<path d="M57.3854 12.8234H22.6221V52.5959H57.3854V12.8234Z" fill="#DDB99F"/>
<path d="M40.055 9.21674H39.6542H23.625V18.6339H39.6542H40.055H55.5833V9.21674H40.055Z" fill="#DDB99F"/>
<path d="M41.0564 7.01274H40.7559H28.1328V14.827H40.7559H41.0564H53.3788V7.01274H41.0564Z" fill="#DDB99F"/>
<path d="M48.5715 3.90715H48.4712H44.9648V10.5192H48.4712H48.5715H51.9776V3.90715H48.5715Z" fill="#DDB99F"/>
<path d="M40.4571 5.20941H40.2567H32.9434V11.9217H40.2567H40.4571H47.5701V5.20941H40.4571Z" fill="#DDB99F"/>
<path d="M67.5047 8.3152H57.2861V32.4592H67.5047V8.3152Z" fill="#313131"/>
<path d="M34.2446 76.239H0.883789V148.771C0.883789 148.771 101.167 148.17 101.768 148.771C102.369 149.372 101.768 76.239 101.768 76.239H67.8058H34.2446Z" fill="white"/>
<path d="M78.4238 76.4393H22.6221V148.571H78.4238V76.4393Z" fill="white"/>
<path d="M37.0499 52.696H22.5234V58.9073H37.0499V52.696Z" fill="#BFA08C"/>
<path d="M56.5842 70.1278H44.7627V81.0477H56.5842V70.1278Z" fill="#DDB99F"/>
<path d="M44.9634 59.1077L34.0436 58.9073L33.9434 70.228V76.2389H67.5045V59.0075H55.7832V70.0276H44.9634V59.1077Z" fill="#DDB99F"/>
<path d="M56.5842 59.1077H44.7627V70.1278H56.5842V59.1077Z" fill="#DDB99F"/>
<path d="M22.525 93.0696H11.5049V159.691H22.525V93.0696Z" fill="#E2E2E2"/>
<path d="M89.5465 93.0696H78.5264V159.691H89.5465V93.0696Z" fill="#E2E2E2"/>
<path d="M56.4876 83.7527H44.666V129.336H56.4876V83.7527Z" fill="#5E738C"/>
<path d="M56.4876 81.0477H44.666V91.6671H56.4876V81.0477Z" fill="#4A5C6D"/>
<path d="M54.8803 127.833H46.2646V131.339H54.8803V127.833Z" fill="#5E738C"/>
<path d="M53.3829 130.137H48.0732V133.644H53.3829V130.137Z" fill="#5E738C"/>
<path d="M60.4918 24.7451H52.8779V36.3663H60.4918V24.7451Z" fill="#DDB99F"/>
<path d="M36.4513 42.277H22.4258V46.4847H36.4513V42.277Z" fill="#313131"/>
<path d="M40.2556 46.1842H36.5488V55.6014H40.2556V46.1842Z" fill="#313131"/>
<path d="M36.6492 55.5012H22.5234V58.9074H36.6492V55.5012Z" fill="#313131"/>
<path d="M31.1398 25.7469H24.6279V43.3791H31.1398V25.7469Z" fill="#BFA08C"/>
<path d="M40.0561 22.4408H30.9395V29.4536H40.0561V22.4408Z" fill="#1E1E1E"/>
<path d="M37.05 26.1477H33.4434V29.4537H37.05V26.1477Z" fill="#1E1E1E"/>
<path d="M40.0553 22.4408H37.0498V26.0474H40.0553V22.4408Z" fill="#1E1E1E"/>
<path d="M39.1562 24.4445H32.3438V27.0492H39.1562V24.4445Z" fill="white"/>
<path d="M38.5561 25.8471H32.8457V28.0511H38.5561V25.8471Z" fill="white"/>
<path d="M38.5561 23.7433H32.8457V25.9473H38.5561V23.7433Z" fill="white"/>
<path d="M37.8528 27.1495H33.5449V28.8526H37.8528V27.1495Z" fill="white"/>
<path d="M37.8528 22.8416H33.5449V24.5447H37.8528V22.8416Z" fill="white"/>
<path d="M39.4523 21.4391H31.7383V22.7414H39.4523V21.4391Z" fill="#1E1E1E"/>
<path d="M39.4523 29.0529H31.7383V30.3553H39.4523V29.0529Z" fill="#1E1E1E"/>
<path d="M38.6516 29.7541H32.6406V31.0565H38.6516V29.7541Z" fill="#1E1E1E"/>
<path d="M38.6516 20.7377H32.6406V22.0401H38.6516V20.7377Z" fill="#1E1E1E"/>
<path d="M41.7568 23.2423H40.0537V28.4518H41.7568V23.2423Z" fill="#1E1E1E"/>
<path d="M24.6263 22.4409H22.5225V29.4537H24.6263V22.4409Z" fill="#313131"/>
<path d="M24.6263 22.4409H22.5225V26.0475H24.6263V22.4409Z" fill="#1E1E1E"/>
<path d="M24.0252 21.5393H22.5225V22.5411H24.0252V21.5393Z" fill="#1E1E1E"/>
<path d="M24.0252 28.8525H22.5225V29.8543H24.0252V28.8525Z" fill="#1E1E1E"/>
<path d="M24.2285 24.144H22.5254V26.7487H24.2285V24.144Z" fill="white"/>
<path d="M23.7276 25.6468H22.5254V27.8508H23.7276V25.6468Z" fill="white"/>
<path d="M23.7276 23.0419H22.5254V25.2459H23.7276V23.0419Z" fill="white"/>
<path d="M22.9261 26.9491H22.5254V28.6522H22.9261V26.9491Z" fill="white"/>
<path d="M22.9232 22.0402H22.5225V23.7432H22.9232V22.0402Z" fill="white"/>
<path d="M31.4389 24.144H24.0254V25.9473H31.4389V24.144Z" fill="#1E1E1E"/>
<path d="M30.436 23.643H25.2266V24.745H30.436V23.643Z" fill="#1E1E1E"/>
<path d="M30.436 25.1459H25.2266V26.2479H30.436V25.1459Z" fill="#BFA08C"/>
<path d="M28.935 23.042H26.6309V24.144H28.935V23.042Z" fill="#1E1E1E"/>
<path d="M28.935 24.5447H26.6309V25.6468H28.935V24.5447Z" fill="#BFA08C"/>
<path d="M32.4414 76.239V83.6525H35.7475V87.5596H38.252V90.9659H40.6564V94.2719H44.6637V90.9659V87.8602V87.5596V83.6525V83.352V78.6434V76.239H32.4414Z" fill="#E2E2E2"/>
<path d="M67.806 76.239H56.4854V87.8602V90.9659V94.2719H60.5928V90.9659H62.9972V87.8602H67.806V76.239Z" fill="#E2E2E2"/>
<path d="M41.8567 85.2554H34.6436V94.1716H41.8567V85.2554Z" fill="#424242"/>
<path d="M69.309 85.7563H60.6934V94.8729H69.309V85.7563Z" fill="#424242"/>
<path d="M35.0452 85.2554H20.3184V153.179H35.0452V85.2554Z" fill="#424242"/>
<path d="M68.3094 76.3391V85.7563H68.0088V153.179H68.3094V153.279H89.8486V76.3391H68.3094Z" fill="#424242"/>
<path d="M69.8095 153.179V93.2701H58.2885V98.2792H55.8841V105.292H47.3685V98.2792H43.762V93.2701H34.8457V153.179H69.8095Z" fill="#424242"/>
<path d="M53.1779 105.392H50.0723V156.084H53.1779V105.392Z" fill="#282828"/>
<path d="M34.7451 76.3391H11.7031V153.079H34.7451V76.3391Z" fill="#424242"/>
<path d="M11.7033 76.3391H0.583008V149.072H11.7033V76.3391Z" fill="#424242"/>
<path d="M101.767 76.3391H89.3447V149.072H101.767V76.3391Z" fill="#424242"/>
<path d="M16.0106 99.7819H11.6025V166.103H16.0106V99.7819Z" fill="#282828"/>
<path d="M89.4461 99.9822H85.0381V166.303H89.4461V99.9822Z" fill="#282828"/>
</svg>
