<svg width="98" height="131" viewBox="0 0 98 131" fill="none" xmlns="http://www.w3.org/2000/svg">
<path d="M28.6708 18.6339H17.25V75.6378H28.6708V18.6339Z" fill="#49361C"/>
<path d="M34.1837 74.8364H19.6572V81.4485H34.1837V74.8364Z" fill="#49361C"/>
<path d="M36.389 63.4156H28.4746V78.6434H36.389V63.4156Z" fill="#49361C"/>
<path d="M65.6403 56.6032H53.9189V63.9166H65.6403V56.6032Z" fill="#DDB99F"/>
<path d="M65.6395 36.7671H55.4209V57.2043H65.6395V36.7671Z" fill="#BFA08C"/>
<path d="M55.3197 53.0968H31.877V63.9165H55.3197V53.0968Z" fill="#DDB99F"/>
<path d="M55.4213 12.9236H20.3574V59.0076H55.4213V12.9236Z" fill="#DDB99F"/>
<path d="M41.7995 9.51736H40.9981H15.0508V19.2351H40.9981H41.7995H67.0456V9.51736H41.7995Z" fill="#604925"/>
<path d="M40.3964 4.80875H39.7953H18.5566V13.3243H39.7953H40.3964H61.0341V4.80875H40.3964Z" fill="#604925"/>
<path d="M39.2955 0H38.7946H22.4648V8.41533H38.7946H39.2955H55.2246V0H39.2955Z" fill="#604925"/>
<path d="M84.1771 81.0478H14.1494V147.168H84.1771V81.0478Z" fill="white"/>
<path d="M97.6 83.6525H85.5781V153.279C92.7913 153.279 97.4999 153.38 97.6 153.48C98.2011 154.181 97.6 83.6525 97.6 83.6525Z" fill="white"/>
<path d="M76.6611 79.5449H20.8594V140.055H76.6611V79.5449Z" fill="white"/>
<path d="M35.3844 57.2043H23.6631V63.4156H35.3844V57.2043Z" fill="#DDB99F"/>
<path d="M54.8225 74.8364H43.001V85.7563H54.8225V74.8364Z" fill="#DDB99F"/>
<path d="M27.8718 31.3572H24.165V48.9893H27.8718V31.3572Z" fill="#BFA08C"/>
<path d="M44.4014 63.8163L34.0826 63.616L33.9824 75.0368V81.0477H65.6401V63.8163H54.62V74.8364H44.4014V63.8163Z" fill="#DDB99F"/>
<path d="M55.624 63.8163H43.001V74.8364H55.624V63.8163Z" fill="#DDB99F"/>
<path d="M76.7613 110.702H20.8594V121.622H76.7613V110.702Z" fill="white"/>
<path d="M48.8091 62.9147H28.5723V67.7234H48.8091V62.9147Z" fill="#DDB99F"/>
<path d="M71.951 18.1331H55.4209V75.6379H71.951V18.1331Z" fill="#604925"/>
<path d="M60.0329 19.4354H54.623V58.6068H60.0329V19.4354Z" fill="#49361C"/>
<path d="M54.7204 58.4065H49.3105V63.3154H54.7204V58.4065Z" fill="#49361C"/>
<path d="M54.7223 63.3154H47.1084V68.2243H54.7223V63.3154Z" fill="#49361C"/>
<path d="M17.2548 14.1257H15.0508V19.2351H17.2548V14.1257Z" fill="#49361C"/>
<path d="M18.8549 82.4503H10.9404V131.139H18.8549V82.4503Z" fill="white"/>
<path d="M88.682 82.4503H80.7676V131.139H88.682V82.4503Z" fill="white"/>
<path d="M88.4838 85.055H80.5693V131.139H88.4838V85.055Z" fill="white"/>
<path d="M10.2406 85.4557H2.32617V121.922H10.2406V85.4557Z" fill="#465A6D"/>
<path d="M68.0641 131.102H75.9785V89.8269H68.0641V131.102Z" fill="white"/>
<path d="M73.1383 126.65H81.0527V95.6936H73.1383V126.65Z" fill="white"/>
<path d="M12.644 83.6525H0.62207V153.279C7.83522 153.279 12.5438 153.38 12.644 153.48C13.2451 154.181 12.644 83.6525 12.644 83.6525Z" fill="white"/>
<path d="M33.2816 31.4572H29.9756V34.7633H33.2816V31.4572Z" fill="#4F381A"/>
<path d="M21.5604 31.4572H20.0576V34.7633H21.5604V31.4572Z" fill="#4F381A"/>
<path d="M14.1504 97.7781H12.9482V131.139H14.1504V97.7781Z" fill="#E2E2E2"/>
<path d="M85.5748 97.7781H84.2725V131.139H85.5748V97.7781Z" fill="#E2E2E2"/>
<path d="M33.0823 27.951V27.2497H30.3773V27.951H28.7744V29.2533H30.4775V28.7524H33.1825V29.2533H34.8856V27.951H33.0823Z" fill="#604925"/>
<path d="M20.1572 27.9509V28.7524H20.2574V29.2533H21.8603V27.9509H20.1572Z" fill="#604925"/>
<path d="M43.2011 84.7544H41.5981V83.4521H40.2958V82.3501H35.9879V83.4521H34.6855V95.7745H35.9879V96.9767H40.2958V95.7745H41.5981V94.5723H43.2011V84.7544Z" fill="#424242"/>
<path d="M49.916 84.7544H51.4188V83.4521H52.8213V82.3501H57.1292V83.4521H58.3314V95.7745H57.1292V96.9767H52.8213V95.7745H51.4188V94.5723H49.916V84.7544Z" fill="#424242"/>
<path d="M50.6154 85.8565H42.4004V93.27H50.6154V85.8565Z" fill="#2B2B2B"/>
<path d="M67.0422 18.1331H54.7197V86.1571H67.0422V18.1331Z" fill="#604925"/>
<path d="M57.2272 68.2243H47.209V85.9567H57.2272V68.2243Z" fill="#604925"/>
<path d="M49.613 63.3154H47.1084V86.0568H49.613V63.3154Z" fill="#49361C"/>
<path d="M64.4389 85.9566H49.5117V91.5668H64.4389V85.9566Z" fill="#604925"/>
<path d="M75.7586 97.8785H60.4307V102.086H75.7586V97.8785Z" fill="#D39807"/>
</svg>
