<svg width="106" height="131" viewBox="0 0 106 131" fill="none" xmlns="http://www.w3.org/2000/svg">
<path d="M15.0641 27.7506H10.8564V49.2898H15.0641V27.7506Z" fill="#1E1E1E"/>
<path d="M21.1748 23.2424H13.6611V52.095H21.1748V23.2424Z" fill="#2B2B2B"/>
<path d="M67.1594 72.5322H41.5127V76.239H67.1594V72.5322Z" fill="#2B2B2B"/>
<path d="M92.002 27.7506H89.4974V23.2424H84.7889V12.9236H78.5775V7.31333H75.1713V3.80694H69.5611V0H33.0946V3.80694H28.4862V7.31333H22.6756V12.9236H17.0654V61.7125H23.0764V65.2189H27.9853V68.8254H33.1948V72.6324H62.9491V76.239H68.0583V72.6324H70.3626V68.8254H74.8708V65.2189H78.5775V61.7125H84.7889V52.095H89.4974V49.2898H92.002V27.7506Z" fill="#313131"/>
<path d="M28.4912 10.0182H22.6807V13.0237H28.4912V10.0182Z" fill="#2B2B2B"/>
<path d="M32.6932 10.0182H27.083V13.0237H32.6932V10.0182Z" fill="#2B2B2B"/>
<path d="M32.6971 7.21317H28.2891V10.0183H32.6971V7.21317Z" fill="#2B2B2B"/>
<path d="M26.1835 29.8544H13.5605V53.798H26.1835V29.8544Z" fill="#1E1E1E"/>
<path d="M30.0899 55.3008H23.0771V65.2189H30.0899V55.3008Z" fill="#2B2B2B"/>
<path d="M70.1617 82.851H58.4404V90.1643H70.1617V82.851Z" fill="#AF9584"/>
<path d="M70.2648 62.9147H58.6436V83.3519H70.2648V62.9147Z" fill="#917E73"/>
<path d="M60.047 79.3446H36.8047V90.1643H60.047V79.3446Z" fill="#917E73"/>
<path d="M59.7435 45.5832H25.3809V83.6526H59.7435V45.5832Z" fill="#AF9584"/>
<path d="M42.4126 35.4646H41.9117H23.3779V46.1842H41.9117H42.4126H60.5457V35.4646H42.4126Z" fill="#313131"/>
<path d="M71.1635 45.2825H59.6426V63.4156H71.1635V45.2825Z" fill="#1E1E1E"/>
<path d="M49.1259 90.1643L38.9072 89.9639V101.285V107.195H70.064V90.1643H59.2443V101.084H49.1259V90.1643Z" fill="#AF9584"/>
<path d="M36.5034 107.195H3.14258V179.728C3.14258 179.728 103.425 179.126 104.026 179.728C104.628 180.329 104.026 107.195 104.026 107.195H70.0645H36.5034Z" fill="#AF9584"/>
<path d="M20.3697 124.026H13.958V190.848H20.3697V124.026Z" fill="#917E73"/>
<path d="M92.5036 124.026H85.3906V190.948H92.5036V124.026Z" fill="#917E73"/>
<path d="M42.2117 75.1369H37.8037V83.0513H42.2117V75.1369Z" fill="#1E1E1E"/>
<path d="M59.3421 101.084H47.5205V112.004H59.3421V101.084Z" fill="#AF9584"/>
<path d="M59.3421 119.017H47.5205V129.937H59.3421V119.017Z" fill="#AF9584"/>
<path d="M59.2434 90.0642H47.4219V101.285H59.2434V90.0642Z" fill="#AF9584"/>
<path d="M39.3084 47.6869H25.1826V50.9929H39.3084V47.6869Z" fill="#1E1E1E"/>
<path d="M38.9065 53.197H34.5986V55.401H38.9065V53.197Z" fill="#2B2B2B"/>
<path d="M27.3845 53.197H25.3809V55.401H27.3845V53.197Z" fill="#2B2B2B"/>
<path d="M34.0992 56.503H27.6875V74.3355H34.0992V56.503Z" fill="#917E73"/>
<path d="M35.3991 69.1259H25.3809V74.3354H35.3991V69.1259Z" fill="#1E1E1E"/>
<path d="M37.904 72.7325H31.9932V76.6396H37.904V72.7325Z" fill="#1E1E1E"/>
<path d="M38.9076 83.0515H25.1826V89.9641H38.9076V83.0515Z" fill="#1E1E1E"/>
<path d="M65.8538 52.696H59.1416V69.5267H65.8538V52.696Z" fill="#AF9584"/>
<path d="M31.6919 129.135H25.9814V134.846H31.6919V129.135Z" fill="#917E73"/>
<path d="M77.8785 129.135H72.168V134.846H77.8785V129.135Z" fill="#917E73"/>
</svg>
