<svg width="104" height="131" viewBox="0 0 104 131" fill="none" xmlns="http://www.w3.org/2000/svg">
<path d="M13.6081 27.8507H9.40039V49.4902H13.6081V27.8507Z" fill="#3D2C18"/>
<path d="M19.9195 23.3425H12.3057V52.2953H19.9195V23.3425Z" fill="#3D2C18"/>
<path d="M66.0018 72.9329H40.2549V76.6397H66.0018V72.9329Z" fill="#3D2C18"/>
<path d="M90.9486 27.8508H88.4441V23.3425H83.6353V13.0237H77.424V7.41348H74.0178V3.90708H68.4075V0H31.8409V3.90708H27.1323V7.41348H21.3217V13.0237H15.6113V62.013H21.7225V65.5194H26.6314V69.126H31.8409V72.9329H61.7955V76.6397H66.9048V72.9329H69.209V69.126H73.7172V65.5194H77.424V62.013H83.6353V52.2953H88.4441V49.5904H90.9486V27.8508Z" fill="#49361C"/>
<path d="M27.1348 10.0182H21.3242V13.0237H27.1348V10.0182Z" fill="#3D2C18"/>
<path d="M31.4423 10.1184H25.832V13.1239H31.4423V10.1184Z" fill="#3D2C18"/>
<path d="M31.3377 7.31332H26.9297V10.1184H31.3377V7.31332Z" fill="#3D2C18"/>
<path d="M24.8281 30.0548H12.2051V54.0987H24.8281V30.0548Z" fill="#3D2C18"/>
<path d="M28.7384 55.6013H21.7256V65.5194H28.7384V55.6013Z" fill="#3D2C18"/>
<path d="M69.1077 83.1515H57.2861V90.565H69.1077V83.1515Z" fill="#DDB99F"/>
<path d="M69.2106 63.2152H57.4893V83.7527H69.2106V63.2152Z" fill="#BFA08C"/>
<path d="M58.7898 79.6452H35.4473V90.4649H58.7898V79.6452Z" fill="#BFA08C"/>
<path d="M58.689 45.7834H24.126V83.953H58.689V45.7834Z" fill="#DDB99F"/>
<path d="M41.1564 35.5649H40.6555H22.0215V46.4848H40.6555H41.1564H59.2894V35.5649H41.1564Z" fill="#49361C"/>
<path d="M70.1095 45.4828H58.4883V63.7161H70.1095V45.4828Z" fill="#49361C"/>
<path d="M46.2652 90.5651L35.2451 90.3647V101.685V107.696H68.9065V90.5651H57.1851V101.485H46.2652V90.5651Z" fill="#7852A0"/>
<path d="M34.4447 107.696H0.583008V180.529C0.583008 180.529 102.369 179.928 102.97 180.529C103.571 181.13 102.97 107.696 102.97 107.696H68.5068H34.4447Z" fill="#7852A0"/>
<path d="M55.2822 107.696H48.9707V118.216H55.2822V107.696Z" fill="#DDB99F"/>
<path d="M25.026 119.217H12.8037V191.85H25.026V119.217Z" fill="#64448E"/>
<path d="M91.3498 124.627H80.2295V191.749H91.3498V124.627Z" fill="#64448E"/>
<path d="M40.8553 75.5377H36.4473V83.5523H40.8553V75.5377Z" fill="#49361C"/>
<path d="M58.0862 101.485H46.2646V112.505H58.0862V101.485Z" fill="#DDB99F"/>
<path d="M58.0887 90.4649H46.167V112.605H58.0887V90.4649Z" fill="#DDB99F"/>
<path d="M38.0521 48.3882H23.8262V51.6942H38.0521V48.3882Z" fill="#49361C"/>
<path d="M31.7398 55.1005H25.3281V73.0331H31.7398V55.1005Z" fill="#BFA08C"/>
<path d="M34.1429 69.4265H24.0244V74.636H34.1429V69.4265Z" fill="#49361C"/>
<path d="M36.5475 73.0331H30.6367V76.9402H36.5475V73.0331Z" fill="#49361C"/>
<path d="M37.6514 83.4521H23.8262V90.4649H37.6514V83.4521Z" fill="#49361C"/>
<path d="M64.7025 52.8964H57.9902V69.7271H64.7025V52.8964Z" fill="#DDB99F"/>
<path d="M43.2594 53.5977H32.7402V61.9128H43.2594V53.5977Z" fill="#313131"/>
<path d="M39.7526 58.0056H35.5449V62.0129H39.7526V58.0056Z" fill="#424242"/>
<path d="M43.2593 53.5977H39.7529V57.9055H43.2593V53.5977Z" fill="#1E1E1E"/>
<path d="M24.8258 53.5977H20.6182V61.9128H24.8258V53.5977Z" fill="#313131"/>
<path d="M21.3224 58.0056H20.6211V62.0129H21.3224V58.0056Z" fill="#424242"/>
<path d="M24.8287 53.5977H21.3223V57.9055H24.8287V53.5977Z" fill="#1E1E1E"/>
<path d="M32.9416 53.5977H24.0254V57.7051H32.9416V53.5977Z" fill="#1E1E1E"/>
<path d="M53.5822 107.696H50.4766V140.256H53.5822V107.696Z" fill="#DDB99F"/>
</svg>
