<svg width="42" height="42" viewBox="0 0 42 42" fill="none" xmlns="http://www.w3.org/2000/svg">
<path d="M38.7188 17.7188C39.8042 17.7188 40.6875 16.8354 40.6875 15.75C40.6875 14.6646 39.8042 13.7812 38.7188 13.7812C37.8643 13.7812 37.1424 14.3318 36.8708 15.0938H34.169C33.4904 13.587 32.5618 12.2181 31.435 11.0381L32.4581 9.84375H34.2458C34.5174 10.6057 35.2393 11.1562 36.0938 11.1562C37.1792 11.1562 38.0625 10.2729 38.0625 9.1875C38.0625 8.10206 37.1792 7.21875 36.0938 7.21875C35.2393 7.21875 34.5174 7.76934 34.2458 8.53125H32.1562C31.9646 8.53125 31.7828 8.61459 31.6575 8.76094L30.4848 10.1292C29.1552 8.96766 27.6143 8.04366 25.9245 7.42809L28.5469 3.9375H36.8708C37.1424 4.69941 37.8643 5.25 38.7188 5.25C39.8042 5.25 40.6875 4.36669 40.6875 3.28125C40.6875 2.19581 39.8042 1.3125 38.7188 1.3125C37.8643 1.3125 37.1424 1.86309 36.8708 2.625H28.2188C28.0127 2.625 27.8184 2.72213 27.6938 2.88684L24.593 7.01531C23.4439 6.72 22.2403 6.5625 21 6.5625C19.7597 6.5625 18.5561 6.72 17.407 7.01531L14.3062 2.88684C14.1822 2.72213 13.9873 2.625 13.7812 2.625H5.12925C4.85756 1.86309 4.13569 1.3125 3.28125 1.3125C2.19581 1.3125 1.3125 2.19581 1.3125 3.28125C1.3125 4.36669 2.19581 5.25 3.28125 5.25C4.13569 5.25 4.85756 4.69941 5.12925 3.9375H13.4531L16.0748 7.42809C14.385 8.043 12.8435 8.96766 11.5146 10.1292L10.3418 8.76028C10.2172 8.61459 10.0354 8.53125 9.84375 8.53125H7.75425C7.48256 7.76934 6.76069 7.21875 5.90625 7.21875C4.82081 7.21875 3.9375 8.10206 3.9375 9.1875C3.9375 10.2729 4.82081 11.1562 5.90625 11.1562C6.76069 11.1562 7.48256 10.6057 7.75425 9.84375H9.54187L10.565 11.0381C9.43819 12.2181 8.50894 13.587 7.83103 15.0938H5.12925C4.85756 14.3318 4.13569 13.7812 3.28125 13.7812C2.19581 13.7812 1.3125 14.6646 1.3125 15.75C1.3125 16.8354 2.19581 17.7188 3.28125 17.7188C4.13569 17.7188 4.85756 17.1682 5.12925 16.4062H7.31653C6.83025 17.8507 6.5625 19.3942 6.5625 21C6.5625 22.6058 6.83025 24.1493 7.31588 25.5938H5.12925C4.85756 24.8318 4.13569 24.2812 3.28125 24.2812C2.19581 24.2812 1.3125 25.1646 1.3125 26.25C1.3125 27.3354 2.19581 28.2188 3.28125 28.2188C4.13569 28.2188 4.85756 27.6682 5.12925 26.9062H7.83103C8.50959 28.413 9.43819 29.7819 10.565 30.9619L9.54187 32.1562H7.75425C7.48256 31.3943 6.76069 30.8438 5.90625 30.8438C4.82081 30.8438 3.9375 31.7271 3.9375 32.8125C3.9375 33.8979 4.82081 34.7812 5.90625 34.7812C6.76069 34.7812 7.48256 34.2307 7.75425 33.4688H9.84375C10.0354 33.4688 10.2172 33.3854 10.3418 33.2391L11.5146 31.8701C12.8441 33.0317 14.385 33.9563 16.0748 34.5713L13.4531 38.0625H5.12925C4.85756 37.3006 4.13569 36.75 3.28125 36.75C2.19581 36.75 1.3125 37.6333 1.3125 38.7188C1.3125 39.8042 2.19581 40.6875 3.28125 40.6875C4.13569 40.6875 4.85756 40.1369 5.12925 39.375H13.7812C13.9873 39.375 14.1822 39.2779 14.3062 39.1132L17.407 34.9847C18.5561 35.28 19.7597 35.4375 21 35.4375C22.2403 35.4375 23.4439 35.28 24.593 34.9847L27.6938 39.1132C27.8184 39.2779 28.0127 39.375 28.2188 39.375H36.8708C37.1424 40.1369 37.8643 40.6875 38.7188 40.6875C39.8042 40.6875 40.6875 39.8042 40.6875 38.7188C40.6875 37.6333 39.8042 36.75 38.7188 36.75C37.8643 36.75 37.1424 37.3006 36.8708 38.0625H28.5469L25.9252 34.5713C27.615 33.9563 29.1559 33.0317 30.4854 31.8701L31.6582 33.2384C31.7828 33.3854 31.9646 33.4688 32.1562 33.4688H34.2458C34.5174 34.2307 35.2393 34.7812 36.0938 34.7812C37.1792 34.7812 38.0625 33.8979 38.0625 32.8125C38.0625 31.7271 37.1792 30.8438 36.0938 30.8438C35.2393 30.8438 34.5174 31.3943 34.2458 32.1562H32.4581L31.435 30.9619C32.5618 29.7819 33.4904 28.413 34.169 26.9062H36.8708C37.1424 27.6682 37.8643 28.2188 38.7188 28.2188C39.8042 28.2188 40.6875 27.3354 40.6875 26.25C40.6875 25.1646 39.8042 24.2812 38.7188 24.2812C37.8643 24.2812 37.1424 24.8318 36.8708 25.5938H34.6835C35.1698 24.1493 35.4375 22.6058 35.4375 21C35.4375 19.3942 35.1698 17.8507 34.6841 16.4062H36.8714C37.1424 17.1682 37.8643 17.7188 38.7188 17.7188ZM21 34.125C13.7629 34.125 7.875 28.2371 7.875 21C7.875 13.7629 13.7629 7.875 21 7.875C28.2371 7.875 34.125 13.7629 34.125 21C34.125 28.2371 28.2371 34.125 21 34.125Z" fill="#FF8F8F"/>
<path d="M21 9.1875C14.4867 9.1875 9.1875 14.4867 9.1875 21C9.1875 27.5133 14.4867 32.8125 21 32.8125C27.5133 32.8125 32.8125 27.5133 32.8125 21C32.8125 14.4867 27.5133 9.1875 21 9.1875ZM16.6983 15.204L20.6358 12.579C20.8563 12.432 21.1431 12.432 21.3636 12.579L25.3011 15.204C25.6029 15.4048 25.6843 15.8123 25.4828 16.1142C25.3575 16.3039 25.1488 16.4062 24.9368 16.4062C24.8122 16.4062 24.6855 16.3708 24.5733 16.296L21 13.9138L17.4267 16.296C17.1242 16.4968 16.7173 16.4154 16.5165 16.1142C16.3157 15.8123 16.3971 15.4048 16.6983 15.204ZM22.3125 20.3438C22.6754 20.3438 22.9688 20.6377 22.9688 21C22.9688 21.3623 22.6754 21.6562 22.3125 21.6562H21V23.625C21 23.9873 20.706 24.2812 20.3438 24.2812C19.9815 24.2812 19.6875 23.9873 19.6875 23.625V18.375C19.6875 18.0127 19.9815 17.7188 20.3438 17.7188H22.9688C23.3317 17.7188 23.625 18.0127 23.625 18.375C23.625 18.7373 23.3317 19.0312 22.9688 19.0312H21V20.3438H22.3125ZM12.4688 21.6562C12.1065 21.6562 11.8125 21.3623 11.8125 21C11.8125 20.6377 12.1065 20.3438 12.4688 20.3438C12.831 20.3438 13.125 20.6377 13.125 21C13.125 21.3623 12.831 21.6562 12.4688 21.6562ZM15.75 23.625C15.75 23.9873 15.456 24.2812 15.0938 24.2812C14.7315 24.2812 14.4375 23.9873 14.4375 23.625V18.375C14.4375 18.0705 14.6468 17.806 14.9428 17.7365C15.2427 17.6669 15.5446 17.8093 15.6811 18.0817L17.0625 20.8451V18.375C17.0625 18.0127 17.3565 17.7188 17.7188 17.7188C18.081 17.7188 18.375 18.0127 18.375 18.375V23.625C18.375 23.9295 18.1657 24.194 17.8697 24.2635C17.8192 24.2753 17.7686 24.2812 17.7188 24.2812C17.474 24.2812 17.2449 24.1447 17.1314 23.9183L15.75 21.1549V23.625ZM25.3017 26.796L21.3642 29.421C21.254 29.4945 21.1267 29.5312 21 29.5312C20.8733 29.5312 20.746 29.4945 20.6358 29.421L16.6983 26.796C16.3971 26.5952 16.3157 26.1877 16.5165 25.8858C16.7173 25.5839 17.1242 25.5019 17.4267 25.704L21 28.0862L24.5733 25.704C24.8752 25.5019 25.2827 25.5846 25.4835 25.8858C25.685 26.1877 25.6036 26.5952 25.3017 26.796ZM28.2188 19.0312H27.5625V23.625C27.5625 23.9873 27.2692 24.2812 26.9062 24.2812C26.5433 24.2812 26.25 23.9873 26.25 23.625V19.0312H25.5938C25.2308 19.0312 24.9375 18.7373 24.9375 18.375C24.9375 18.0127 25.2308 17.7188 25.5938 17.7188H28.2188C28.5817 17.7188 28.875 18.0127 28.875 18.375C28.875 18.7373 28.5817 19.0312 28.2188 19.0312ZM30.1875 21C30.1875 21.3623 29.8935 21.6562 29.5312 21.6562C29.169 21.6562 28.875 21.3623 28.875 21C28.875 20.6377 29.169 20.3438 29.5312 20.3438C29.8935 20.3438 30.1875 20.6377 30.1875 21Z" fill="url(#paint0_linear)"/>
<defs>
<linearGradient id="paint0_linear" x1="21" y1="9.1875" x2="21" y2="32.8125" gradientUnits="userSpaceOnUse">
<stop stop-color="#FFA4A4"/>
<stop offset="1" stop-color="#F1F1F1"/>
</linearGradient>
</defs>
</svg>
