<svg width="42" height="42" viewBox="0 0 42 42" fill="none" xmlns="http://www.w3.org/2000/svg">
<g clip-path="url(#clip0)">
<path d="M18 9H19.668C20.253 8.98778 20.788 9.3282 21.0248 9.86325C21.373 10.3168 21.9311 10.5577 22.5 10.5V4.5H7.5V27H16.5V25.3313C16.4883 24.747 16.8283 24.2128 17.3625 23.976C17.8165 23.6278 18.0578 23.0693 18 22.5C18.058 21.9309 17.817 21.3724 17.3632 21.024C16.8286 20.7876 16.4882 20.2532 16.5 19.6688V17.8313C16.4883 17.247 16.8283 16.7128 17.3625 16.476C17.8165 16.1278 18.0578 15.5693 18 15C18.058 14.4309 17.817 13.8724 17.3632 13.524C16.8286 13.2876 16.4882 12.7532 16.5 12.1688V10.5C16.5 9.67157 17.1716 9 18 9Z" fill="url(#paint0_linear)"/>
<path d="M3.00375 29.8328L3 31.5H4.665C5.24976 30.5036 6.34721 29.9229 7.5 30C8.65146 29.9219 9.7483 30.5008 10.3335 31.4955L12.165 31.5C12.7498 30.5036 13.8472 29.9229 15 30C16.0287 29.9504 17.0189 30.3965 17.6633 31.2C17.8929 30.8427 18.0102 30.4247 18 30C18.058 29.4309 17.817 28.8724 17.3633 28.524C17.349 28.518 17.3385 28.5068 17.3243 28.5H7.5C6.67157 28.5 6 27.8284 6 27V4.5C6 3.67157 6.67157 3 7.5 3H22.5C23.3284 3 24 3.67157 24 4.5V9.825C24.2444 9.3131 24.7648 8.99074 25.332 9H27V7.335C26.0026 6.75112 25.4216 5.65305 25.5 4.5C25.4216 3.34849 26.0009 2.25162 26.9963 1.66725L27 0H25.335C24.7502 0.996452 23.6528 1.57711 22.5 1.5C21.3485 1.57815 20.2517 0.999243 19.6665 0.0045L17.835 0C17.2502 0.996452 16.1528 1.57711 15 1.5C13.8485 1.57815 12.7517 0.999243 12.1665 0.0045L10.335 0C9.75024 0.996452 8.65279 1.57711 7.5 1.5C6.34854 1.57815 5.2517 0.999243 4.6665 0.0045L3 0V1.665C3.99738 2.24888 4.57837 3.34695 4.5 4.5C4.57842 5.65151 3.99906 6.74838 3.00375 7.33275L3 9.165C3.99738 9.74888 4.57837 10.8469 4.5 12C4.57842 13.1515 3.99906 14.2484 3.00375 14.8328L3 16.665C3.99738 17.2489 4.57837 18.3469 4.5 19.5C4.57842 20.6515 3.99906 21.7484 3.00375 22.3328L3 24.165C3.99738 24.7489 4.57837 25.847 4.5 27C4.57842 28.1515 3.99906 29.2484 3.00375 29.8328Z" fill="#FF8F8F"/>
<path d="M32.5747 17.439L32.076 15.729C31.806 16.0021 31.4657 16.1952 31.0927 16.287C30.6245 16.3834 30.1376 16.3261 29.7045 16.1235C29.5637 16.5983 29.2788 17.0177 28.8892 17.3235C28.307 17.7157 27.5545 17.7498 26.9392 17.412C26.8763 17.9635 26.6161 18.4736 26.2065 18.8482C25.7413 19.2402 25.1054 19.3613 24.5287 19.1677C24.4803 19.5773 24.3121 19.9635 24.045 20.2777C23.7899 20.5685 23.4619 20.786 23.0947 20.9077L24.3352 22.215C26.8795 20.2971 29.646 18.6935 32.5747 17.439Z" fill="#FF8F8F"/>
<path d="M42 12.168V10.5H40.3343C39.75 11.4966 38.6527 12.0774 37.5 12C36.348 12.0762 35.2517 11.4957 34.6673 10.5H32.8343C32.25 11.4966 31.1527 12.0774 30 12C28.848 12.0762 27.7517 11.4957 27.1673 10.5H25.3343C24.75 11.4966 23.6526 12.0774 22.5 12C21.3481 12.0759 20.2519 11.4954 19.6673 10.5H18V12.1658C18.9966 12.75 19.5774 13.8474 19.5 15C19.5768 16.1519 18.9961 17.2484 18 17.832V19.6658C18.9966 20.25 19.5774 21.3474 19.5 22.5C19.5768 23.6519 18.9961 24.7484 18 25.332V27.1658C18.9966 27.75 19.5774 28.8474 19.5 30C19.5768 31.1519 18.9961 32.2484 18 32.832V34.6658C18.9966 35.25 19.5774 36.3474 19.5 37.5C19.5768 38.6519 18.9961 39.7484 18 40.332V42H19.6658C20.2503 41.0037 21.3474 40.423 22.5 40.5C23.652 40.4238 24.7484 41.0043 25.3328 42H27.1658C27.75 41.0034 28.8474 40.4226 30 40.5C31.152 40.4238 32.2484 41.0043 32.8328 42H34.6658C35.25 41.0034 36.3474 40.4226 37.5 40.5C38.6519 40.4233 39.7483 41.004 40.332 42H42V40.3342C41.0034 39.75 40.4227 38.6526 40.5 37.5C40.4234 36.3481 41.0041 35.2518 42 34.668V32.8342C41.0034 32.25 40.4227 31.1526 40.5 30C40.4234 28.8481 41.0041 27.7518 42 27.168V25.3342C41.0034 24.75 40.4227 23.6526 40.5 22.5C40.4234 21.3481 41.0041 20.2518 42 19.668V17.8342C41.0034 17.25 40.4227 16.1526 40.5 15C40.4234 13.8481 41.0041 12.7518 42 12.168ZM38.34 28.1632C38.0527 29.097 37.5743 29.9608 36.9353 30.6997C36.6132 31.0729 36.4252 31.5431 36.4013 32.0355C36.3923 32.5675 36.1588 33.0709 35.7585 33.4215C35.5283 33.5963 35.0175 33.9847 32.7795 33.2992V33.8452C33.7253 34.5952 35.115 35.9775 35.3123 37.6853C35.424 38.1611 35.225 38.6559 34.815 38.922C34.6512 39.0208 34.4634 39.0727 34.272 39.072C33.537 39.072 32.601 38.4112 31.3223 37.5075C30.5923 36.9298 29.7959 36.4413 28.95 36.0525C28.1633 35.8949 27.3535 35.8921 26.5658 36.0442C25.7993 36.1432 25.2908 36.21 24.9113 35.8515C24.7174 35.6682 24.6163 35.4073 24.636 35.1413C24.7065 34.6261 25.1176 34.2246 25.6343 34.1663C25.9988 34.074 26.1345 34.0395 26.1848 33.4583C26.2388 32.8125 26.2478 32.1833 26.2388 31.641C26.0395 31.7041 25.832 31.7372 25.623 31.7393C25.4093 31.7402 25.1975 31.7 24.999 31.6208C24.3135 31.277 23.8468 30.6116 23.757 29.85C23.0409 29.6518 22.4823 29.0909 22.287 28.374C22.2049 27.7419 22.4036 27.1056 22.8308 26.6325C22.482 26.2003 22.2962 25.6593 22.3058 25.104C22.3596 24.3777 22.6695 23.6942 23.1803 23.175L21.258 21.15C20.9963 20.8756 20.9264 20.4702 21.081 20.124C21.2373 19.7795 21.584 19.5615 21.9623 19.5697C22.3005 19.6162 22.6426 19.5164 22.9028 19.2952C23.0593 19.0207 23.0982 18.6945 23.0108 18.3907C22.9417 18.0116 23.112 17.6289 23.4399 17.4265C23.7679 17.2241 24.1863 17.2434 24.4943 17.475C24.6938 17.625 25.0568 17.85 25.2375 17.7C25.4666 17.3513 25.5511 16.9271 25.473 16.5173C25.4414 16.1506 25.6286 15.7997 25.9508 15.6218C26.2777 15.4414 26.6803 15.4708 26.9775 15.6968C27.2521 15.9522 27.6067 16.1046 27.981 16.128C28.235 15.8617 28.3749 15.5067 28.371 15.1387C28.3951 14.785 28.6175 14.4755 28.945 14.3397C29.2725 14.2039 29.6487 14.2653 29.916 14.4982C30.1376 14.7197 30.4415 14.8388 30.7545 14.8267C31.0731 14.6672 31.3158 14.3882 31.4295 14.0505C31.5914 13.6934 31.9584 13.4749 32.3495 13.5028C32.7406 13.5308 33.0729 13.7993 33.1823 14.1757L34.0448 17.133C35.4383 17.1855 37.4078 17.7938 37.707 19.908C37.8482 20.6147 37.6293 21.3454 37.1228 21.858C36.9647 22.0106 36.7853 22.1394 36.5903 22.2405C36.5235 23.4727 36.6218 25.6725 37.9815 26.9048C38.338 27.2173 38.477 27.7105 38.3363 28.1632H38.34Z" fill="url(#paint1_linear)"/>
<path d="M34.3103 22.6538C34.2424 22.8615 34.1457 23.0586 34.0231 23.2395C33.5971 23.8094 32.9691 24.1945 32.2681 24.3158C32.3203 24.8199 32.1743 25.3245 31.8608 25.7228C31.3122 26.2817 30.5404 26.5628 29.7608 26.4878C29.5688 26.4878 29.3588 26.472 29.1451 26.4525C29.2462 26.8246 29.453 27.1594 29.7406 27.4163C29.9461 27.576 30.2971 27.7523 30.9803 27.4163C31.3499 27.2439 31.7895 27.3983 31.97 27.764C32.1505 28.1297 32.0057 28.5726 31.6441 28.761L31.6276 28.7678V29.9325C31.6276 30.3467 31.2918 30.6825 30.8776 30.6825C30.4634 30.6825 30.1276 30.3467 30.1276 29.9325V29.091C29.6507 29.0601 29.1938 28.8881 28.8151 28.5968C28.1016 27.9811 27.6538 27.1133 27.5656 26.175C27.4681 26.1518 27.3841 26.1375 27.2828 26.1113C27.014 26.054 26.7981 25.8542 26.7201 25.5906C26.6421 25.327 26.7145 25.0419 26.9088 24.8475C27.1031 24.6531 27.3882 24.5806 27.6518 24.6585C27.9391 24.7335 28.2091 24.792 28.4573 24.8385C30.2416 25.1865 30.6518 24.8258 30.7163 24.7508C30.7755 24.6599 30.8005 24.5509 30.7868 24.4433C30.7043 24.4433 30.6233 24.4433 30.5371 24.4365C30.1229 24.4158 29.8039 24.0632 29.8246 23.649C29.8453 23.2348 30.1979 22.9158 30.6121 22.9365C31.7213 22.9935 32.4931 22.7978 32.7871 22.3838C32.9939 21.92 32.9974 21.3908 32.7968 20.9243C32.6382 20.5443 32.8155 20.1075 33.1942 19.9457C33.5728 19.7839 34.0111 19.9575 34.1761 20.3348C34.2795 20.5984 34.3549 20.8721 34.4011 21.1515C34.984 21.2264 35.575 21.0988 36.0751 20.79C36.1336 20.7323 36.2896 20.5785 36.2251 20.115C36.0128 18.615 34.0891 18.609 33.6413 18.6315C30.433 19.9321 27.4217 21.6739 24.6946 23.8065C24.2408 24.1263 23.9239 24.605 23.8066 25.1475C23.8066 25.2585 23.7961 25.5975 24.3503 26.0475C24.5254 26.1908 24.6264 26.4055 24.6252 26.6317C24.624 26.8579 24.5208 27.0715 24.3443 27.213C24.0488 27.453 23.7203 27.8933 23.7578 28.0763C23.7721 28.1453 23.9596 28.368 24.6473 28.566C24.9581 28.6553 25.1766 28.9337 25.1896 29.2568C25.2083 29.637 25.3726 30.1568 25.5488 30.2243C25.7078 30.2835 26.2763 30.1328 27.3083 29.1188C27.4967 28.9182 27.7799 28.837 28.046 28.907C28.3121 28.9771 28.5184 29.1873 28.5836 29.4547C28.6488 29.722 28.5623 30.0036 28.3583 30.1883C28.1333 30.4133 27.9158 30.6023 27.7036 30.7763C27.7591 31.7121 27.7495 32.6506 27.6751 33.585C27.654 33.8784 27.5888 34.1669 27.4816 34.4408C28.114 34.3911 28.7502 34.4489 29.3633 34.6118C30.3772 35.031 31.3264 35.5921 32.1826 36.2783C32.6236 36.5895 33.2056 37.0013 33.6601 37.275C33.2258 36.3081 32.5341 35.4792 31.6606 34.8788C31.4163 34.6958 31.2733 34.4078 31.2751 34.1025V32.5755C31.2743 32.2591 31.4272 31.9619 31.6851 31.7785C31.943 31.5951 32.2739 31.5484 32.5726 31.653C33.3009 31.9496 34.0708 32.1312 34.8548 32.1915C34.8728 32.1165 34.8946 31.9545 34.9111 31.8315C34.9749 31.0445 35.2904 30.2989 35.8111 29.7053C36.2677 29.1727 36.6196 28.5587 36.8483 27.8955C35.3296 26.4105 35.0663 24.1455 35.0836 22.6455C34.8262 22.6637 34.568 22.6665 34.3103 22.6538Z" fill="#FF8F8F"/>
<path d="M3.45 41.25C4.20692 41.2348 4.91281 40.8652 5.3565 40.2517C5.697 39.8722 5.8335 39.75 6.14775 39.75C6.462 39.75 6.59775 39.8722 6.93975 40.2517C7.38297 40.8646 8.08788 41.2341 8.844 41.25C9.60151 41.2347 10.308 40.8652 10.7528 40.2517C11.0947 39.8722 11.232 39.75 11.547 39.75C11.862 39.75 11.997 39.8722 12.342 40.2525C12.7863 40.8659 13.4927 41.2352 14.25 41.25C14.6642 41.25 15 40.9142 15 40.5C15 40.0858 14.6642 39.75 14.25 39.75C13.935 39.75 13.8 39.6278 13.4557 39.2483C13.0211 38.6237 12.3083 38.2513 11.5474 38.2513C10.7864 38.2513 10.0737 38.6237 9.639 39.2483C9.297 39.6285 9.15975 39.7507 8.844 39.7507C8.52825 39.7507 8.394 39.6285 8.05275 39.249C7.60875 38.6354 6.9027 38.2656 6.1455 38.25C5.38858 38.2652 4.68269 38.6348 4.239 39.2483C3.9 39.6278 3.76125 39.75 3.45 39.75C3.13875 39.75 3 39.6278 2.65875 39.2483C2.21459 38.6342 1.50772 38.2645 0.75 38.25C0.335786 38.25 0 38.5858 0 39C0 39.4142 0.335786 39.75 0.75 39.75C1.0635 39.75 1.2 39.8722 1.54125 40.2517C1.98541 40.8658 2.69228 41.2355 3.45 41.25Z" fill="#FF8F8F"/>
<path d="M0.75 36C1.0635 36 1.2 36.1222 1.54125 36.5017C1.98541 37.1158 2.69228 37.4855 3.45 37.5C4.20692 37.4848 4.91281 37.1152 5.3565 36.5017C5.697 36.1222 5.8335 36 6.14775 36C6.462 36 6.59775 36.1222 6.93975 36.5017C7.38297 37.1146 8.08788 37.4841 8.844 37.5C9.60151 37.4847 10.308 37.1152 10.7528 36.5017C11.0947 36.1222 11.232 36 11.547 36C11.862 36 11.997 36.1222 12.342 36.5025C12.7863 37.1159 13.4927 37.4852 14.25 37.5C14.6642 37.5 15 37.1642 15 36.75C15 36.3358 14.6642 36 14.25 36C13.935 36 13.8 35.8778 13.4557 35.4983C13.0211 34.8737 12.3083 34.5013 11.5474 34.5013C10.7864 34.5013 10.0737 34.8737 9.639 35.4983C9.297 35.8785 9.15975 36.0007 8.844 36.0007C8.52825 36.0007 8.394 35.8785 8.05275 35.499C7.60875 34.8854 6.9027 34.5156 6.1455 34.5C5.38858 34.5152 4.68269 34.8848 4.239 35.4983C3.9 35.8778 3.76125 36 3.45 36C3.13875 36 3 35.8778 2.65875 35.4983C2.21459 34.8842 1.50772 34.5145 0.75 34.5C0.335786 34.5 0 34.8358 0 35.25C0 35.6642 0.335786 36 0.75 36Z" fill="#FF8F8F"/>
</g>
<defs>
<linearGradient id="paint0_linear" x1="15" y1="4.5" x2="15" y2="27" gradientUnits="userSpaceOnUse">
<stop stop-color="#FFA4A4"/>
<stop offset="1" stop-color="#F1F1F1"/>
</linearGradient>
<linearGradient id="paint1_linear" x1="30" y1="10.5" x2="30" y2="42" gradientUnits="userSpaceOnUse">
<stop stop-color="#FFA4A4"/>
<stop offset="1" stop-color="#F1F1F1"/>
</linearGradient>
<clipPath id="clip0">
<rect width="42" height="42" fill="white"/>
</clipPath>
</defs>
</svg>
